<svg width="44" height="44" viewBox="0 0 44 44" fill="none" xmlns="http://www.w3.org/2000/svg">
<path d="M22.15 32.3C22.6833 32.3 23.1167 32.1333 23.45 31.8C23.7833 31.4667 23.95 31.0333 23.95 30.5V24H30.55C31.05 24 31.4667 23.825 31.8 23.475C32.1333 23.125 32.3 22.7 32.3 22.2C32.3 21.6667 32.1333 21.2333 31.8 20.9C31.4667 20.5667 31.0333 20.4 30.5 20.4H23.95V13.45C23.95 12.95 23.775 12.5333 23.425 12.2C23.075 11.8667 22.65 11.7 22.15 11.7C21.6167 11.7 21.1833 11.8667 20.85 12.2C20.5167 12.5333 20.35 12.9667 20.35 13.5V20.4H13.45C12.95 20.4 12.5333 20.575 12.2 20.925C11.8667 21.275 11.7 21.7 11.7 22.2C11.7 22.7333 11.8667 23.1667 12.2 23.5C12.5333 23.8333 12.9667 24 13.5 24H20.35V30.55C20.35 31.05 20.525 31.4667 20.875 31.8C21.225 32.1333 21.65 32.3 22.15 32.3ZM22 43.25C19 43.25 16.2 42.7083 13.6 41.625C11 40.5417 8.75 39.05 6.85 37.15C4.95 35.25 3.45833 33 2.375 30.4C1.29167 27.8 0.75 25 0.75 22C0.75 19 1.29167 16.2083 2.375 13.625C3.45833 11.0417 4.95 8.79166 6.85 6.875C8.75 4.95833 11 3.45 13.6 2.35C16.2 1.25 19 0.699997 22 0.699997C25 0.699997 27.7917 1.25 30.375 2.35C32.9583 3.45 35.2083 4.95833 37.125 6.875C39.0417 8.79166 40.55 11.0417 41.65 13.625C42.75 16.2083 43.3 19 43.3 22C43.3 25 42.75 27.8 41.65 30.4C40.55 33 39.0417 35.25 37.125 37.15C35.2083 39.05 32.9583 40.5417 30.375 41.625C27.7917 42.7083 25 43.25 22 43.25ZM21.95 38.55C26.5167 38.55 30.425 36.9417 33.675 33.725C36.925 30.5083 38.55 26.6 38.55 22C38.55 17.4333 36.925 13.5333 33.675 10.3C30.425 7.06666 26.5333 5.45 22 5.45C17.4333 5.45 13.5333 7.06666 10.3 10.3C7.06667 13.5333 5.45 17.4333 5.45 22C5.45 26.6 7.06667 30.5083 10.3 33.725C13.5333 36.9417 17.4167 38.55 21.95 38.55Z" fill="#7F74FF"/>
</svg>
