<svg width="224" height="59" viewBox="0 0 224 59" fill="none" xmlns="http://www.w3.org/2000/svg">
<rect y="0.275848" width="32" height="32" rx="16" fill="#F7931A"/>
<g clip-path="url(#clip0_336_1115)">
<path d="M27.6397 19.1787C26.0371 25.6073 19.5259 29.5197 13.0965 27.9166C6.6698 26.3139 2.75746 19.8023 4.36085 13.3742C5.96283 6.94488 12.474 3.03224 18.9014 4.63493C25.3303 6.23762 29.2424 12.7499 27.6396 19.1788L27.6397 19.1787H27.6397Z" fill="#F7931A"/>
<path d="M21.2915 14.5662C21.5304 12.9692 20.3146 12.1108 18.6521 11.5382L19.1914 9.37496L17.8746 9.04684L17.3496 11.1531C17.0034 11.0667 16.6479 10.9854 16.2945 10.9047L16.8234 8.7846L15.5074 8.45648L14.9678 10.619C14.6813 10.5537 14.3999 10.4893 14.127 10.4214L14.1285 10.4146L12.3126 9.9611L11.9623 11.3675C11.9623 11.3675 12.9392 11.5915 12.9187 11.6053C13.4519 11.7383 13.5483 12.0913 13.5323 12.3711L12.918 14.8355C12.9547 14.8448 13.0023 14.8583 13.0549 14.8794C13.0109 14.8685 12.9642 14.8566 12.9157 14.845L12.0546 18.2972C11.9894 18.4593 11.824 18.7024 11.4512 18.6101C11.4644 18.6292 10.4941 18.3712 10.4941 18.3712L9.84033 19.8785L11.5539 20.3057C11.8727 20.3857 12.1851 20.4693 12.4928 20.548L11.9479 22.736L13.2631 23.0641L13.8028 20.8993C14.1621 20.9968 14.5108 21.0868 14.8522 21.1716L14.3144 23.3262L15.6312 23.6543L16.1761 21.4704C18.4215 21.8954 20.1099 21.724 20.8205 19.6931C21.3932 18.0579 20.792 17.1147 19.6107 16.4997C20.4711 16.3012 21.1192 15.7353 21.292 14.5663L21.2916 14.566L21.2915 14.5662ZM18.2829 18.785C17.876 20.4201 15.1229 19.5362 14.2302 19.3146L14.9533 16.4158C15.8459 16.6387 18.7083 17.0796 18.283 18.785H18.2829ZM18.6902 14.5425C18.319 16.0298 16.0275 15.2742 15.2842 15.0889L15.9397 12.4599C16.6831 12.6452 19.0769 12.991 18.6903 14.5425H18.6902Z" fill="white"/>
</g>
<path d="M45.456 23.1207V11.9207H50.32C51.0667 11.9207 51.696 12.0327 52.208 12.2567C52.7307 12.47 53.1253 12.7847 53.392 13.2007C53.6587 13.6167 53.792 14.1127 53.792 14.6887C53.792 15.3287 53.632 15.862 53.312 16.2887C52.992 16.7154 52.5333 17.0087 51.936 17.1687L51.92 16.8487C52.4107 16.966 52.8427 17.158 53.216 17.4247C53.5893 17.6914 53.8773 18.022 54.08 18.4167C54.2827 18.8114 54.384 19.2594 54.384 19.7607C54.384 20.3154 54.2933 20.806 54.112 21.2327C53.9307 21.6487 53.664 21.9954 53.312 22.2727C52.96 22.55 52.544 22.7634 52.064 22.9127C51.5947 23.0514 51.0667 23.1207 50.48 23.1207H45.456ZM47.76 21.0407H50.384C50.7253 21.0407 51.0133 20.9927 51.248 20.8967C51.4933 20.79 51.68 20.63 51.808 20.4167C51.936 20.2034 52 19.9527 52 19.6647C52 19.3874 51.9307 19.1527 51.792 18.9607C51.6533 18.7687 51.456 18.6247 51.2 18.5287C50.9547 18.422 50.656 18.3687 50.304 18.3687H47.76V21.0407ZM47.76 16.4647H50.032C50.32 16.4647 50.5707 16.4114 50.784 16.3047C50.9973 16.198 51.1573 16.054 51.264 15.8727C51.3813 15.6914 51.44 15.478 51.44 15.2327C51.44 14.838 51.312 14.534 51.056 14.3207C50.8 14.1074 50.416 14.0007 49.904 14.0007H47.76V16.4647ZM56.4374 23.1207V14.6567H58.7094V23.1207H56.4374ZM57.5574 12.9127C57.12 12.9127 56.7787 12.806 56.5334 12.5927C56.288 12.3794 56.1654 12.0754 56.1654 11.6807C56.1654 11.318 56.288 11.0247 56.5334 10.8007C56.7894 10.566 57.1307 10.4487 57.5574 10.4487C57.9947 10.4487 58.336 10.5607 58.5814 10.7847C58.8267 10.998 58.9494 11.2967 58.9494 11.6807C58.9494 12.054 58.8214 12.3527 58.5654 12.5767C58.32 12.8007 57.984 12.9127 57.5574 12.9127ZM61.952 23.1207V12.5127H64.224V23.1207H61.952ZM60.368 16.6887V14.6567H65.952V16.6887H60.368ZM71.0348 23.2807C70.2241 23.2807 69.4988 23.0887 68.8588 22.7047C68.2188 22.3207 67.7121 21.798 67.3388 21.1367C66.9761 20.4754 66.7948 19.7234 66.7948 18.8807C66.7948 18.0487 66.9761 17.302 67.3388 16.6407C67.7121 15.9687 68.2188 15.4407 68.8588 15.0567C69.4988 14.6727 70.2241 14.4807 71.0348 14.4807C71.7921 14.4807 72.4854 14.6194 73.1148 14.8967C73.7441 15.174 74.2348 15.558 74.5868 16.0487L73.3388 17.5527C73.1894 17.35 73.0028 17.1687 72.7788 17.0087C72.5548 16.838 72.3094 16.7047 72.0428 16.6087C71.7868 16.5127 71.5201 16.4647 71.2428 16.4647C70.8054 16.4647 70.4161 16.5714 70.0748 16.7847C69.7441 16.9874 69.4828 17.27 69.2908 17.6327C69.0988 17.9954 69.0028 18.4114 69.0028 18.8807C69.0028 19.3394 69.0988 19.75 69.2908 20.1127C69.4934 20.4647 69.7654 20.7527 70.1068 20.9767C70.4481 21.19 70.8321 21.2967 71.2588 21.2967C71.5361 21.2967 71.7974 21.2594 72.0428 21.1847C72.2881 21.0994 72.5174 20.9767 72.7308 20.8167C72.9548 20.6567 73.1574 20.4647 73.3388 20.2407L74.5708 21.7447C74.2081 22.2034 73.7068 22.5767 73.0668 22.8647C72.4268 23.142 71.7494 23.2807 71.0348 23.2807ZM79.9626 23.2807C79.0986 23.2807 78.3253 23.094 77.6426 22.7207C76.9706 22.3367 76.4373 21.814 76.0426 21.1527C75.6586 20.4914 75.4666 19.734 75.4666 18.8807C75.4666 18.0274 75.6586 17.2754 76.0426 16.6247C76.4373 15.9634 76.9706 15.4407 77.6426 15.0567C78.3253 14.6727 79.0986 14.4807 79.9626 14.4807C80.816 14.4807 81.5786 14.6727 82.2506 15.0567C82.9333 15.4407 83.4666 15.9634 83.8506 16.6247C84.2346 17.2754 84.4266 18.0274 84.4266 18.8807C84.4266 19.734 84.2346 20.4914 83.8506 21.1527C83.4666 21.814 82.9333 22.3367 82.2506 22.7207C81.5786 23.094 80.816 23.2807 79.9626 23.2807ZM79.9626 21.2967C80.3786 21.2967 80.752 21.1954 81.0826 20.9927C81.4133 20.7794 81.6693 20.4914 81.8506 20.1287C82.0426 19.7554 82.1386 19.3394 82.1386 18.8807C82.1386 18.4114 82.0426 17.9954 81.8506 17.6327C81.6693 17.2594 81.4133 16.9714 81.0826 16.7687C80.752 16.5554 80.3786 16.4487 79.9626 16.4487C79.536 16.4487 79.1573 16.5554 78.8266 16.7687C78.496 16.982 78.2346 17.27 78.0426 17.6327C77.8506 17.9954 77.76 18.4114 77.7706 18.8807C77.76 19.3394 77.8506 19.7554 78.0426 20.1287C78.2346 20.4914 78.496 20.7794 78.8266 20.9927C79.1573 21.1954 79.536 21.2967 79.9626 21.2967ZM86.328 23.1207V14.6567H88.6V23.1207H86.328ZM87.448 12.9127C87.0107 12.9127 86.6693 12.806 86.424 12.5927C86.1787 12.3794 86.056 12.0754 86.056 11.6807C86.056 11.318 86.1787 11.0247 86.424 10.8007C86.68 10.566 87.0213 10.4487 87.448 10.4487C87.8853 10.4487 88.2267 10.5607 88.472 10.7847C88.7173 10.998 88.84 11.2967 88.84 11.6807C88.84 12.054 88.712 12.3527 88.456 12.5767C88.2107 12.8007 87.8747 12.9127 87.448 12.9127ZM91.0266 23.1207V14.6567H93.2026L93.2666 16.3847L92.8186 16.5767C92.936 16.1927 93.144 15.846 93.4426 15.5367C93.752 15.2167 94.12 14.9607 94.5466 14.7687C94.9733 14.5767 95.4213 14.4807 95.8906 14.4807C96.5306 14.4807 97.064 14.6087 97.4906 14.8647C97.928 15.1207 98.2533 15.51 98.4666 16.0327C98.6906 16.5447 98.8026 17.1794 98.8026 17.9367V23.1207H96.5306V18.1127C96.5306 17.7287 96.4773 17.4087 96.3706 17.1527C96.264 16.8967 96.0986 16.71 95.8746 16.5927C95.6613 16.4647 95.3946 16.4114 95.0746 16.4327C94.8186 16.4327 94.5786 16.4754 94.3546 16.5607C94.1413 16.6354 93.9546 16.7474 93.7946 16.8967C93.6453 17.046 93.5226 17.2167 93.4266 17.4087C93.3413 17.6007 93.2986 17.8087 93.2986 18.0327V23.1207H92.1786C91.9333 23.1207 91.7146 23.1207 91.5226 23.1207C91.3306 23.1207 91.1653 23.1207 91.0266 23.1207Z" fill="white"/>
<path d="M171.432 23.2807C170.429 23.2807 169.554 23.1154 168.808 22.7847C168.072 22.4434 167.437 21.9474 166.904 21.2967L168.168 19.4407C168.733 20.102 169.282 20.566 169.816 20.8327C170.36 21.0994 170.946 21.2327 171.576 21.2327C171.906 21.2327 172.2 21.19 172.456 21.1047C172.722 21.0087 172.93 20.8754 173.08 20.7047C173.229 20.534 173.304 20.3314 173.304 20.0967C173.304 19.926 173.266 19.7714 173.192 19.6327C173.117 19.4834 173.01 19.3554 172.872 19.2487C172.733 19.1314 172.568 19.03 172.376 18.9447C172.184 18.8487 171.97 18.7687 171.736 18.7047C171.501 18.63 171.245 18.5714 170.968 18.5287C170.168 18.358 169.501 18.118 168.968 17.8087C168.445 17.4994 168.05 17.1154 167.784 16.6567C167.528 16.198 167.4 15.654 167.4 15.0247C167.4 14.5447 167.506 14.102 167.72 13.6967C167.933 13.2807 168.226 12.9234 168.6 12.6247C168.984 12.326 169.421 12.0967 169.912 11.9367C170.413 11.7767 170.941 11.6967 171.496 11.6967C172.392 11.6967 173.181 11.846 173.864 12.1447C174.557 12.4327 175.154 12.8807 175.656 13.4887L174.504 15.1527C174.109 14.694 173.656 14.3474 173.144 14.1127C172.642 13.878 172.109 13.7607 171.544 13.7607C171.192 13.7607 170.888 13.8087 170.632 13.9047C170.376 13.99 170.173 14.118 170.024 14.2887C169.885 14.4594 169.816 14.6674 169.816 14.9127C169.816 15.1047 169.864 15.2754 169.96 15.4247C170.056 15.574 170.194 15.7074 170.376 15.8247C170.557 15.9314 170.776 16.0274 171.032 16.1127C171.288 16.198 171.57 16.2727 171.88 16.3367C172.466 16.454 172.994 16.6087 173.464 16.8007C173.933 16.9927 174.333 17.2274 174.664 17.5047C175.005 17.7714 175.266 18.0914 175.448 18.4647C175.629 18.8274 175.72 19.238 175.72 19.6967C175.72 20.454 175.538 21.0994 175.176 21.6327C174.813 22.166 174.312 22.5767 173.672 22.8647C173.032 23.142 172.285 23.2807 171.432 23.2807ZM170.472 24.5767L170.6 17.1847L171.96 17.7127L172.088 24.5767H170.472ZM172.44 17.7287L171.08 17.2007L170.952 10.5447H172.568L172.44 17.7287ZM182.464 23.1207L181.936 21.8087L185.248 18.1447C185.429 17.9527 185.621 17.7287 185.824 17.4727C186.037 17.2167 186.24 16.9554 186.432 16.6887C186.634 16.4114 186.794 16.1447 186.912 15.8887C187.029 15.622 187.088 15.382 187.088 15.1687C187.088 14.9234 187.034 14.71 186.928 14.5287C186.821 14.3367 186.666 14.1874 186.464 14.0807C186.261 13.974 186.01 13.9207 185.712 13.9207C185.434 13.9207 185.173 13.9954 184.928 14.1447C184.682 14.2834 184.453 14.4914 184.24 14.7687C184.026 15.046 183.84 15.382 183.68 15.7767L181.888 14.7687C182.101 14.15 182.405 13.6114 182.8 13.1527C183.194 12.694 183.664 12.3367 184.208 12.0807C184.752 11.8247 185.333 11.6967 185.952 11.6967C186.602 11.7074 187.189 11.846 187.712 12.1127C188.234 12.3794 188.645 12.7527 188.944 13.2327C189.242 13.7127 189.392 14.2674 189.392 14.8967C189.392 15.1314 189.365 15.3714 189.312 15.6167C189.269 15.862 189.189 16.118 189.072 16.3847C188.965 16.6514 188.821 16.934 188.64 17.2327C188.469 17.5207 188.256 17.83 188 18.1607C187.754 18.4807 187.472 18.8167 187.152 19.1687L184.608 21.9367L184.288 20.9607H189.856V23.1207H182.464ZM194.509 23.2807C193.645 23.2807 192.888 23.094 192.237 22.7207C191.597 22.3474 191.005 21.7074 190.461 20.8007L192.221 19.6807C192.467 20.054 192.712 20.358 192.957 20.5927C193.213 20.8274 193.48 20.998 193.757 21.1047C194.035 21.2114 194.323 21.2647 194.621 21.2647C194.941 21.2647 195.24 21.19 195.517 21.0407C195.795 20.8914 196.013 20.6834 196.173 20.4167C196.344 20.1394 196.429 19.8247 196.429 19.4727C196.429 19.11 196.36 18.806 196.221 18.5607C196.083 18.3154 195.88 18.1287 195.613 18.0007C195.347 17.8727 195.032 17.8087 194.669 17.8087C194.509 17.8087 194.333 17.8247 194.141 17.8567C193.949 17.8887 193.752 17.942 193.549 18.0167C193.347 18.0807 193.128 18.1607 192.893 18.2567L192.333 16.7847L195.293 13.5527L195.901 13.9847L191.197 13.9207V11.8567H197.933L198.365 12.7367L194.669 16.7367L194.109 16.0807C194.195 16.038 194.333 16.0007 194.525 15.9687C194.728 15.926 194.915 15.9047 195.085 15.9047C195.576 15.9047 196.035 15.9954 196.461 16.1767C196.888 16.358 197.267 16.6087 197.597 16.9287C197.928 17.2487 198.184 17.622 198.365 18.0487C198.557 18.4754 198.653 18.934 198.653 19.4247C198.653 20.1607 198.467 20.822 198.093 21.4087C197.731 21.9847 197.235 22.4434 196.605 22.7847C195.987 23.1154 195.288 23.2807 194.509 23.2807ZM200.626 26.2087L199.922 25.3607C200.338 25.158 200.669 24.9127 200.914 24.6247C201.17 24.3367 201.298 24.086 201.298 23.8727C201.298 23.7767 201.271 23.6754 201.218 23.5687C201.165 23.462 201.047 23.3287 200.866 23.1687C200.631 22.9874 200.471 22.8167 200.386 22.6567C200.311 22.486 200.274 22.3047 200.274 22.1127C200.274 21.8034 200.386 21.558 200.61 21.3767C200.834 21.1954 201.122 21.1047 201.474 21.1047C201.762 21.1047 202.023 21.19 202.258 21.3607C202.503 21.5207 202.695 21.75 202.834 22.0487C202.973 22.3367 203.042 22.6727 203.042 23.0567C203.042 23.398 202.983 23.7287 202.866 24.0487C202.749 24.3794 202.578 24.6834 202.354 24.9607C202.141 25.2487 201.885 25.4994 201.586 25.7127C201.298 25.926 200.978 26.0914 200.626 26.2087ZM208.15 23.2807C207.286 23.2807 206.529 23.094 205.878 22.7207C205.238 22.3474 204.646 21.7074 204.102 20.8007L205.862 19.6807C206.107 20.054 206.353 20.358 206.598 20.5927C206.854 20.8274 207.121 20.998 207.398 21.1047C207.675 21.2114 207.963 21.2647 208.262 21.2647C208.582 21.2647 208.881 21.19 209.158 21.0407C209.435 20.8914 209.654 20.6834 209.814 20.4167C209.985 20.1394 210.07 19.8247 210.07 19.4727C210.07 19.11 210.001 18.806 209.862 18.5607C209.723 18.3154 209.521 18.1287 209.254 18.0007C208.987 17.8727 208.673 17.8087 208.31 17.8087C208.15 17.8087 207.974 17.8247 207.782 17.8567C207.59 17.8887 207.393 17.942 207.19 18.0167C206.987 18.0807 206.769 18.1607 206.534 18.2567L205.974 16.7847L208.934 13.5527L209.542 13.9847L204.838 13.9207V11.8567H211.574L212.006 12.7367L208.31 16.7367L207.75 16.0807C207.835 16.038 207.974 16.0007 208.166 15.9687C208.369 15.926 208.555 15.9047 208.726 15.9047C209.217 15.9047 209.675 15.9954 210.102 16.1767C210.529 16.358 210.907 16.6087 211.238 16.9287C211.569 17.2487 211.825 17.622 212.006 18.0487C212.198 18.4754 212.294 18.934 212.294 19.4247C212.294 20.1607 212.107 20.822 211.734 21.4087C211.371 21.9847 210.875 22.4434 210.246 22.7847C209.627 23.1154 208.929 23.2807 208.15 23.2807ZM214.347 23.1207V11.9207H219.211C219.957 11.9207 220.587 12.0327 221.099 12.2567C221.621 12.47 222.016 12.7847 222.283 13.2007C222.549 13.6167 222.683 14.1127 222.683 14.6887C222.683 15.3287 222.523 15.862 222.203 16.2887C221.883 16.7154 221.424 17.0087 220.827 17.1687L220.811 16.8487C221.301 16.966 221.733 17.158 222.107 17.4247C222.48 17.6914 222.768 18.022 222.971 18.4167C223.173 18.8114 223.275 19.2594 223.275 19.7607C223.275 20.3154 223.184 20.806 223.003 21.2327C222.821 21.6487 222.555 21.9954 222.203 22.2727C221.851 22.55 221.435 22.7634 220.955 22.9127C220.485 23.0514 219.957 23.1207 219.371 23.1207H214.347ZM216.651 21.0407H219.275C219.616 21.0407 219.904 20.9927 220.139 20.8967C220.384 20.79 220.571 20.63 220.699 20.4167C220.827 20.2034 220.891 19.9527 220.891 19.6647C220.891 19.3874 220.821 19.1527 220.683 18.9607C220.544 18.7687 220.347 18.6247 220.091 18.5287C219.845 18.422 219.547 18.3687 219.195 18.3687H216.651V21.0407ZM216.651 16.4647H218.923C219.211 16.4647 219.461 16.4114 219.675 16.3047C219.888 16.198 220.048 16.054 220.155 15.8727C220.272 15.6914 220.331 15.478 220.331 15.2327C220.331 14.838 220.203 14.534 219.947 14.3207C219.691 14.1074 219.307 14.0007 218.795 14.0007H216.651V16.4647Z" fill="white"/>
<path d="M178.328 55.7069L182.346 46.8309L182.682 47.5169H177.67V45.8789H183.844L184.054 46.9009L180.218 55.7069H178.328ZM187.348 55.0209V47.0689L187.866 47.7409L185.878 48.7489L185.472 47.1529L188.146 45.7669H189.154V55.0209H187.348ZM185.71 55.7069V54.0269H190.834V55.7069H185.71ZM192.87 58.3109L192.296 57.6249C192.642 57.4382 192.917 57.2189 193.122 56.9669C193.337 56.7242 193.444 56.5142 193.444 56.3369C193.444 56.2436 193.421 56.1502 193.374 56.0569C193.337 55.9729 193.239 55.8562 193.08 55.7069C192.884 55.5296 192.754 55.3756 192.688 55.2449C192.623 55.1142 192.59 54.9696 192.59 54.8109C192.59 54.5682 192.679 54.3722 192.856 54.2229C193.034 54.0736 193.262 53.9989 193.542 53.9989C193.794 53.9989 194.018 54.0689 194.214 54.2089C194.42 54.3489 194.578 54.5449 194.69 54.7969C194.802 55.0396 194.858 55.3242 194.858 55.6509C194.858 55.9402 194.807 56.2202 194.704 56.4909C194.611 56.7709 194.471 57.0276 194.284 57.2609C194.107 57.4942 193.897 57.6996 193.654 57.8769C193.421 58.0636 193.16 58.2082 192.87 58.3109ZM199.512 55.7069C199.017 55.7069 198.555 55.6182 198.126 55.4409C197.706 55.2636 197.337 55.0209 197.02 54.7129C196.712 54.3956 196.469 54.0269 196.292 53.6069C196.115 53.1869 196.026 52.7249 196.026 52.2209C196.026 51.9409 196.059 51.6422 196.124 51.3249C196.199 51.0076 196.306 50.6716 196.446 50.3169C196.595 49.9529 196.768 49.5749 196.964 49.1829C197.16 48.7909 197.389 48.3802 197.65 47.9509L198.952 45.7389H200.688L200.744 45.8789L199.078 48.6229C198.807 49.0709 198.569 49.4956 198.364 49.8969C198.159 50.2889 197.981 50.6669 197.832 51.0309C197.692 51.3856 197.575 51.7309 197.482 52.0669L197.104 50.7929C197.244 50.4942 197.417 50.2236 197.622 49.9809C197.827 49.7382 198.056 49.5329 198.308 49.3649C198.56 49.1969 198.821 49.0709 199.092 48.9869C199.372 48.9029 199.657 48.8609 199.946 48.8609C200.487 48.8609 200.987 49.0102 201.444 49.3089C201.901 49.5982 202.265 49.9856 202.536 50.4709C202.816 50.9562 202.956 51.4882 202.956 52.0669C202.956 52.7669 202.807 53.3922 202.508 53.9429C202.219 54.4842 201.813 54.9136 201.29 55.2309C200.767 55.5482 200.175 55.7069 199.512 55.7069ZM199.526 54.1109C199.862 54.1109 200.161 54.0316 200.422 53.8729C200.693 53.7142 200.903 53.4949 201.052 53.2149C201.201 52.9256 201.276 52.5942 201.276 52.2209C201.276 51.9036 201.197 51.6096 201.038 51.3389C200.889 51.0589 200.683 50.8349 200.422 50.6669C200.161 50.4896 199.867 50.4009 199.54 50.4009C199.185 50.4009 198.868 50.4849 198.588 50.6529C198.317 50.8116 198.103 51.0309 197.944 51.3109C197.795 51.5816 197.72 51.8849 197.72 52.2209C197.72 52.5756 197.795 52.8976 197.944 53.1869C198.103 53.4669 198.317 53.6909 198.588 53.8589C198.859 54.0269 199.171 54.1109 199.526 54.1109ZM207.498 55.7489C206.873 55.7489 206.299 55.6229 205.776 55.3709C205.263 55.1096 204.852 54.7642 204.544 54.3349C204.236 53.8962 204.082 53.4109 204.082 52.8789C204.082 52.5616 204.124 52.2676 204.208 51.9969C204.301 51.7262 204.432 51.4836 204.6 51.2689C204.777 51.0542 204.987 50.8629 205.23 50.6949C205.482 50.5176 205.767 50.3636 206.084 50.2329L205.972 50.6249C205.729 50.5222 205.505 50.4009 205.3 50.2609C205.104 50.1209 204.931 49.9622 204.782 49.7849C204.642 49.5982 204.535 49.4022 204.46 49.1969C204.385 48.9822 204.348 48.7582 204.348 48.5249C204.348 48.0209 204.488 47.5682 204.768 47.1669C205.057 46.7656 205.44 46.4482 205.916 46.2149C206.392 45.9722 206.919 45.8509 207.498 45.8509C208.086 45.8509 208.618 45.9722 209.094 46.2149C209.57 46.4482 209.948 46.7656 210.228 47.1669C210.517 47.5682 210.662 48.0209 210.662 48.5249C210.662 48.7582 210.625 48.9822 210.55 49.1969C210.475 49.4022 210.368 49.5936 210.228 49.7709C210.097 49.9389 209.929 50.0976 209.724 50.2469C209.519 50.3869 209.281 50.5129 209.01 50.6249L208.94 50.2889C209.239 50.3916 209.509 50.5269 209.752 50.6949C209.995 50.8629 210.205 51.0589 210.382 51.2829C210.559 51.5069 210.695 51.7542 210.788 52.0249C210.891 52.2956 210.942 52.5802 210.942 52.8789C210.942 53.4202 210.788 53.9102 210.48 54.3489C210.172 54.7782 209.757 55.1189 209.234 55.3709C208.721 55.6229 208.142 55.7489 207.498 55.7489ZM207.498 54.1809C207.815 54.1809 208.1 54.1202 208.352 53.9989C208.604 53.8776 208.8 53.7142 208.94 53.5089C209.089 53.3036 209.164 53.0656 209.164 52.7949C209.164 52.5056 209.089 52.2536 208.94 52.0389C208.8 51.8149 208.604 51.6422 208.352 51.5209C208.1 51.3902 207.815 51.3249 207.498 51.3249C207.19 51.3249 206.91 51.3902 206.658 51.5209C206.415 51.6422 206.219 51.8149 206.07 52.0389C205.921 52.2536 205.846 52.5056 205.846 52.7949C205.846 53.0562 205.921 53.2896 206.07 53.4949C206.219 53.7002 206.415 53.8682 206.658 53.9989C206.91 54.1202 207.19 54.1809 207.498 54.1809ZM207.498 49.7849C207.778 49.7849 208.025 49.7336 208.24 49.6309C208.464 49.5282 208.637 49.3882 208.758 49.2109C208.879 49.0336 208.94 48.8282 208.94 48.5949C208.94 48.3522 208.879 48.1422 208.758 47.9649C208.637 47.7782 208.464 47.6336 208.24 47.5309C208.025 47.4189 207.778 47.3629 207.498 47.3629C207.227 47.3629 206.98 47.4189 206.756 47.5309C206.541 47.6336 206.373 47.7782 206.252 47.9649C206.131 48.1422 206.07 48.3522 206.07 48.5949C206.07 48.8282 206.131 49.0336 206.252 49.2109C206.373 49.3882 206.541 49.5282 206.756 49.6309C206.98 49.7336 207.227 49.7849 207.498 49.7849ZM213.629 55.7069L220.111 45.9069H221.777L215.225 55.7069H213.629ZM214.427 51.1009C213.989 51.1009 213.597 50.9842 213.251 50.7509C212.915 50.5176 212.649 50.2002 212.453 49.7989C212.267 49.3976 212.173 48.9402 212.173 48.4269C212.173 47.9042 212.267 47.4422 212.453 47.0409C212.649 46.6302 212.915 46.3082 213.251 46.0749C213.597 45.8416 213.993 45.7249 214.441 45.7249C214.88 45.7249 215.267 45.8416 215.603 46.0749C215.949 46.3082 216.215 46.6302 216.401 47.0409C216.597 47.4422 216.695 47.9042 216.695 48.4269C216.695 48.9309 216.597 49.3882 216.401 49.7989C216.205 50.2002 215.935 50.5176 215.589 50.7509C215.244 50.9842 214.857 51.1009 214.427 51.1009ZM214.441 49.9109C214.619 49.9109 214.773 49.8502 214.903 49.7289C215.034 49.6076 215.137 49.4396 215.211 49.2249C215.286 49.0009 215.323 48.7349 215.323 48.4269C215.323 48.1189 215.286 47.8529 215.211 47.6289C215.137 47.4049 215.034 47.2322 214.903 47.1109C214.773 46.9896 214.614 46.9289 214.427 46.9289C214.25 46.9289 214.091 46.9942 213.951 47.1249C213.821 47.2462 213.718 47.4189 213.643 47.6429C213.569 47.8576 213.531 48.1189 213.531 48.4269C213.531 48.7349 213.564 49.0009 213.629 49.2249C213.704 49.4396 213.811 49.6076 213.951 49.7289C214.091 49.8502 214.255 49.9109 214.441 49.9109ZM221.077 55.8329C220.639 55.8329 220.247 55.7162 219.901 55.4829C219.565 55.2496 219.299 54.9322 219.103 54.5309C218.907 54.1296 218.809 53.6722 218.809 53.1589C218.809 52.6362 218.903 52.1742 219.089 51.7729C219.285 51.3622 219.556 51.0402 219.901 50.8069C220.247 50.5736 220.639 50.4569 221.077 50.4569C221.525 50.4569 221.917 50.5736 222.253 50.8069C222.589 51.0402 222.851 51.3622 223.037 51.7729C223.233 52.1742 223.331 52.6362 223.331 53.1589C223.331 53.6629 223.233 54.1202 223.037 54.5309C222.841 54.9322 222.571 55.2496 222.225 55.4829C221.889 55.7162 221.507 55.8329 221.077 55.8329ZM221.077 54.6569C221.255 54.6569 221.409 54.5962 221.539 54.4749C221.679 54.3442 221.787 54.1716 221.861 53.9569C221.936 53.7329 221.973 53.4669 221.973 53.1589C221.973 52.8602 221.936 52.5989 221.861 52.3749C221.787 52.1509 221.679 51.9782 221.539 51.8569C221.409 51.7262 221.255 51.6609 221.077 51.6609C220.891 51.6609 220.727 51.7216 220.587 51.8429C220.457 51.9642 220.354 52.1416 220.279 52.3749C220.205 52.5989 220.167 52.8602 220.167 53.1589C220.167 53.4669 220.205 53.7329 220.279 53.9569C220.354 54.1716 220.457 54.3442 220.587 54.4749C220.727 54.5962 220.891 54.6569 221.077 54.6569Z" fill="white"/>
<rect y="46.7931" width="168" height="8.13793" rx="4.06897" fill="#353535"/>
<rect y="46.7931" width="120" height="8.13793" rx="4.06897" fill="url(#paint0_linear_336_1115)"/>
<defs>
<linearGradient id="paint0_linear_336_1115" x1="124" y1="19.8362" x2="-9.09707" y2="71.1851" gradientUnits="userSpaceOnUse">
<stop stop-color="#FB03F5"/>
<stop offset="1" stop-color="#AA9CFF"/>
</linearGradient>
<clipPath id="clip0_336_1115">
<rect width="24" height="24" fill="white" transform="translate(4 4.27585)"/>
</clipPath>
</defs>
</svg>
