<svg width="224" height="58" viewBox="0 0 224 58" fill="none" xmlns="http://www.w3.org/2000/svg">
<rect width="32" height="32" rx="16" fill="#00FFA3"/>
<g clip-path="url(#clip0_336_1114)">
<path d="M15.9974 4L15.8364 4.54693V20.4161L15.9974 20.5767L23.3636 16.2225L15.9974 4Z" fill="#343434"/>
<path d="M15.9977 4L8.63135 16.2225L15.9977 20.5767V12.8743V4Z" fill="#8C8C8C"/>
<path d="M15.9975 21.9714L15.9067 22.082V27.7349L15.9975 27.9998L23.3681 17.6194L15.9975 21.9714Z" fill="#3C3C3B"/>
<path d="M15.9977 27.9998V21.9714L8.63135 17.6194L15.9977 27.9998Z" fill="#8C8C8C"/>
<path d="M15.9976 20.5767L23.3637 16.2225L15.9976 12.8743V20.5767Z" fill="#141414"/>
<path d="M8.63135 16.2225L15.9977 20.5767V12.8743L8.63135 16.2225Z" fill="#393939"/>
</g>
<path d="M45.456 23V11.8H53.024V13.912H47.792V20.888H53.136V23H45.456ZM46.576 18.312V16.264H52.256V18.312H46.576ZM56.1083 23V12.392H58.3802V23H56.1083ZM54.5243 16.568V14.536H60.1083V16.568H54.5243ZM61.5891 23V11.16H63.8291V16.264L63.3811 16.456C63.4985 16.072 63.7065 15.7253 64.0051 15.416C64.3145 15.096 64.6825 14.84 65.1091 14.648C65.5358 14.456 65.9838 14.36 66.4531 14.36C67.0931 14.36 67.6265 14.488 68.0531 14.744C68.4905 15 68.8158 15.3893 69.0291 15.912C69.2531 16.424 69.3651 17.0587 69.3651 17.816V23H67.0931V17.992C67.0931 17.608 67.0398 17.288 66.9331 17.032C66.8265 16.776 66.6611 16.5893 66.4371 16.472C66.2238 16.344 65.9571 16.2907 65.6371 16.312C65.3811 16.312 65.1411 16.3547 64.9171 16.44C64.7038 16.5147 64.5171 16.6267 64.3571 16.776C64.2078 16.9253 64.0851 17.096 63.9891 17.288C63.9038 17.48 63.8611 17.688 63.8611 17.912V23H62.7411C62.4958 23 62.2771 23 62.0851 23C61.8931 23 61.7278 23 61.5891 23ZM75.5583 23.16C74.6409 23.16 73.8409 22.9733 73.1583 22.6C72.4756 22.2267 71.9423 21.7147 71.5583 21.064C71.1743 20.4133 70.9823 19.6667 70.9823 18.824C70.9823 18.1733 71.0889 17.576 71.3023 17.032C71.5156 16.488 71.8143 16.0187 72.1983 15.624C72.5823 15.2187 73.0356 14.9093 73.5583 14.696C74.0916 14.472 74.6676 14.36 75.2863 14.36C75.8623 14.36 76.3956 14.4667 76.8863 14.68C77.3769 14.8827 77.7983 15.176 78.1503 15.56C78.5129 15.9333 78.7903 16.376 78.9823 16.888C79.1743 17.4 79.2596 17.96 79.2383 18.568L79.2222 19.272H72.4223L72.0543 17.88H77.3503L77.0943 18.168V17.816C77.0729 17.528 76.9769 17.2667 76.8063 17.032C76.6463 16.7973 76.4383 16.616 76.1823 16.488C75.9263 16.36 75.6383 16.296 75.3183 16.296C74.8489 16.296 74.4489 16.3867 74.1183 16.568C73.7983 16.7493 73.5529 17.016 73.3823 17.368C73.2116 17.72 73.1263 18.1467 73.1263 18.648C73.1263 19.16 73.2329 19.6027 73.4463 19.976C73.6703 20.3493 73.9796 20.6427 74.3743 20.856C74.7796 21.0587 75.2543 21.16 75.7983 21.16C76.1716 21.16 76.5129 21.1013 76.8223 20.984C77.1316 20.8667 77.4623 20.664 77.8143 20.376L78.9023 21.896C78.5929 22.1733 78.2516 22.408 77.8783 22.6C77.5049 22.7813 77.1209 22.92 76.7263 23.016C76.3316 23.112 75.9423 23.16 75.5583 23.16ZM80.9173 23V14.536H83.1093L83.1893 17.256L82.8053 16.696C82.9333 16.2587 83.1413 15.864 83.4293 15.512C83.7173 15.1493 84.0533 14.8667 84.4373 14.664C84.8319 14.4613 85.2426 14.36 85.6693 14.36C85.8506 14.36 86.0266 14.376 86.1973 14.408C86.3679 14.44 86.5119 14.4773 86.6293 14.52L86.0213 17.016C85.8933 16.952 85.7386 16.8987 85.5573 16.856C85.3759 16.8027 85.1893 16.776 84.9973 16.776C84.7413 16.776 84.5013 16.824 84.2773 16.92C84.0639 17.0053 83.8773 17.1333 83.7173 17.304C83.5573 17.464 83.4293 17.656 83.3333 17.88C83.2479 18.104 83.2053 18.3493 83.2053 18.616V23H80.9173ZM91.5895 23.16C90.6722 23.16 89.8722 22.9733 89.1895 22.6C88.5068 22.2267 87.9735 21.7147 87.5895 21.064C87.2055 20.4133 87.0135 19.6667 87.0135 18.824C87.0135 18.1733 87.1202 17.576 87.3335 17.032C87.5468 16.488 87.8455 16.0187 88.2295 15.624C88.6135 15.2187 89.0668 14.9093 89.5895 14.696C90.1228 14.472 90.6988 14.36 91.3175 14.36C91.8935 14.36 92.4268 14.4667 92.9175 14.68C93.4082 14.8827 93.8295 15.176 94.1815 15.56C94.5442 15.9333 94.8215 16.376 95.0135 16.888C95.2055 17.4 95.2908 17.96 95.2695 18.568L95.2535 19.272H88.4535L88.0855 17.88H93.3815L93.1255 18.168V17.816C93.1042 17.528 93.0082 17.2667 92.8375 17.032C92.6775 16.7973 92.4695 16.616 92.2135 16.488C91.9575 16.36 91.6695 16.296 91.3495 16.296C90.8802 16.296 90.4802 16.3867 90.1495 16.568C89.8295 16.7493 89.5842 17.016 89.4135 17.368C89.2428 17.72 89.1575 18.1467 89.1575 18.648C89.1575 19.16 89.2642 19.6027 89.4775 19.976C89.7015 20.3493 90.0108 20.6427 90.4055 20.856C90.8108 21.0587 91.2855 21.16 91.8295 21.16C92.2028 21.16 92.5442 21.1013 92.8535 20.984C93.1628 20.8667 93.4935 20.664 93.8455 20.376L94.9335 21.896C94.6242 22.1733 94.2828 22.408 93.9095 22.6C93.5362 22.7813 93.1522 22.92 92.7575 23.016C92.3628 23.112 91.9735 23.16 91.5895 23.16ZM99.8605 23.16C99.2418 23.16 98.7085 23.0267 98.2605 22.76C97.8232 22.4827 97.4818 22.0933 97.2365 21.592C97.0018 21.08 96.8845 20.4667 96.8845 19.752V14.536H99.1565V19.384C99.1565 19.768 99.2205 20.104 99.3485 20.392C99.4765 20.6693 99.6578 20.8827 99.8925 21.032C100.127 21.1813 100.415 21.256 100.757 21.256C101.002 21.256 101.231 21.2187 101.445 21.144C101.658 21.0587 101.839 20.9413 101.989 20.792C102.138 20.6427 102.255 20.4667 102.341 20.264C102.426 20.0613 102.469 19.8427 102.469 19.608V14.536H104.741V23H102.581L102.501 21.256L102.917 21.064C102.789 21.4587 102.575 21.816 102.277 22.136C101.978 22.456 101.621 22.7067 101.205 22.888C100.789 23.0693 100.341 23.16 99.8605 23.16ZM107.011 23V14.536H109.203L109.251 16.152L108.915 16.216C109.032 15.9387 109.187 15.688 109.379 15.464C109.571 15.24 109.795 15.048 110.051 14.888C110.317 14.728 110.595 14.6053 110.883 14.52C111.171 14.424 111.459 14.376 111.747 14.376C112.184 14.376 112.579 14.4453 112.931 14.584C113.283 14.7227 113.581 14.9413 113.827 15.24C114.072 15.528 114.264 15.912 114.403 16.392L114.051 16.36L114.163 16.104C114.301 15.848 114.477 15.6187 114.691 15.416C114.904 15.2027 115.144 15.0213 115.411 14.872C115.677 14.712 115.955 14.5893 116.243 14.504C116.531 14.4187 116.813 14.376 117.091 14.376C117.752 14.376 118.301 14.5093 118.739 14.776C119.176 15.032 119.501 15.4213 119.715 15.944C119.939 16.4667 120.051 17.1067 120.051 17.864V23H117.779V18.024C117.779 17.64 117.725 17.3253 117.619 17.08C117.512 16.8347 117.357 16.6533 117.155 16.536C116.952 16.408 116.691 16.344 116.371 16.344C116.125 16.344 115.896 16.3867 115.683 16.472C115.48 16.5467 115.299 16.6587 115.139 16.808C114.989 16.9467 114.872 17.112 114.787 17.304C114.701 17.496 114.659 17.7093 114.659 17.944V23H112.387V18.008C112.387 17.656 112.328 17.3573 112.211 17.112C112.104 16.856 111.949 16.664 111.747 16.536C111.544 16.408 111.293 16.344 110.995 16.344C110.749 16.344 110.52 16.3867 110.307 16.472C110.104 16.5467 109.928 16.6587 109.779 16.808C109.629 16.9467 109.507 17.112 109.411 17.304C109.325 17.496 109.283 17.704 109.283 17.928V23H107.011Z" fill="white"/>
<path d="M154.807 23.16C153.804 23.16 152.929 22.9947 152.183 22.664C151.447 22.3227 150.812 21.8267 150.279 21.176L151.543 19.32C152.108 19.9813 152.657 20.4453 153.191 20.712C153.735 20.9787 154.321 21.112 154.951 21.112C155.281 21.112 155.575 21.0693 155.831 20.984C156.097 20.888 156.305 20.7547 156.455 20.584C156.604 20.4133 156.679 20.2107 156.679 19.976C156.679 19.8053 156.641 19.6507 156.567 19.512C156.492 19.3627 156.385 19.2347 156.247 19.128C156.108 19.0107 155.943 18.9093 155.751 18.824C155.559 18.728 155.345 18.648 155.111 18.584C154.876 18.5093 154.62 18.4507 154.343 18.408C153.543 18.2373 152.876 17.9973 152.343 17.688C151.82 17.3787 151.425 16.9947 151.159 16.536C150.903 16.0773 150.775 15.5333 150.775 14.904C150.775 14.424 150.881 13.9813 151.095 13.576C151.308 13.16 151.601 12.8027 151.975 12.504C152.359 12.2053 152.796 11.976 153.287 11.816C153.788 11.656 154.316 11.576 154.871 11.576C155.767 11.576 156.556 11.7253 157.239 12.024C157.932 12.312 158.529 12.76 159.031 13.368L157.879 15.032C157.484 14.5733 157.031 14.2267 156.519 13.992C156.017 13.7573 155.484 13.64 154.919 13.64C154.567 13.64 154.263 13.688 154.007 13.784C153.751 13.8693 153.548 13.9973 153.399 14.168C153.26 14.3387 153.191 14.5467 153.191 14.792C153.191 14.984 153.239 15.1547 153.335 15.304C153.431 15.4533 153.569 15.5867 153.751 15.704C153.932 15.8107 154.151 15.9067 154.407 15.992C154.663 16.0773 154.945 16.152 155.255 16.216C155.841 16.3333 156.369 16.488 156.839 16.68C157.308 16.872 157.708 17.1067 158.039 17.384C158.38 17.6507 158.641 17.9707 158.823 18.344C159.004 18.7067 159.095 19.1173 159.095 19.576C159.095 20.3333 158.913 20.9787 158.551 21.512C158.188 22.0453 157.687 22.456 157.047 22.744C156.407 23.0213 155.66 23.16 154.807 23.16ZM153.847 24.456L153.975 17.064L155.335 17.592L155.463 24.456H153.847ZM155.815 17.608L154.455 17.08L154.327 10.424H155.943L155.815 17.608ZM169.119 23.16C168.255 23.16 167.497 22.9733 166.847 22.6C166.207 22.2267 165.615 21.5867 165.071 20.68L166.831 19.56C167.076 19.9333 167.321 20.2373 167.567 20.472C167.823 20.7067 168.089 20.8773 168.367 20.984C168.644 21.0907 168.932 21.144 169.231 21.144C169.551 21.144 169.849 21.0693 170.127 20.92C170.404 20.7707 170.623 20.5627 170.783 20.296C170.953 20.0187 171.039 19.704 171.039 19.352C171.039 18.9893 170.969 18.6853 170.831 18.44C170.692 18.1947 170.489 18.008 170.223 17.88C169.956 17.752 169.641 17.688 169.279 17.688C169.119 17.688 168.943 17.704 168.751 17.736C168.559 17.768 168.361 17.8213 168.159 17.896C167.956 17.96 167.737 18.04 167.503 18.136L166.943 16.664L169.903 13.432L170.511 13.864L165.807 13.8V11.736H172.543L172.975 12.616L169.279 16.616L168.719 15.96C168.804 15.9173 168.943 15.88 169.135 15.848C169.337 15.8053 169.524 15.784 169.695 15.784C170.185 15.784 170.644 15.8747 171.071 16.056C171.497 16.2373 171.876 16.488 172.207 16.808C172.537 17.128 172.793 17.5013 172.975 17.928C173.167 18.3547 173.263 18.8133 173.263 19.304C173.263 20.04 173.076 20.7013 172.703 21.288C172.34 21.864 171.844 22.3227 171.215 22.664C170.596 22.9947 169.897 23.16 169.119 23.16ZM179.075 23.16C178.115 23.16 177.294 22.9307 176.611 22.472C175.939 22.0133 175.422 21.3573 175.059 20.504C174.707 19.64 174.531 18.6053 174.531 17.4C174.531 16.1947 174.707 15.1653 175.059 14.312C175.422 13.448 175.939 12.7867 176.611 12.328C177.294 11.8693 178.115 11.64 179.075 11.64C180.035 11.64 180.857 11.8693 181.539 12.328C182.222 12.7867 182.739 13.448 183.091 14.312C183.454 15.1653 183.635 16.1947 183.635 17.4C183.635 18.6053 183.454 19.64 183.091 20.504C182.739 21.3573 182.222 22.0133 181.539 22.472C180.857 22.9307 180.035 23.16 179.075 23.16ZM179.075 21.096C179.79 21.096 180.345 20.776 180.739 20.136C181.134 19.496 181.331 18.584 181.331 17.4C181.331 16.1947 181.134 15.2667 180.739 14.616C180.345 13.9653 179.79 13.64 179.075 13.64C178.35 13.64 177.79 13.9653 177.395 14.616C177.011 15.2667 176.819 16.1947 176.819 17.4C176.819 18.584 177.011 19.496 177.395 20.136C177.79 20.776 178.35 21.096 179.075 21.096ZM187.721 22.216V13.128L188.312 14.2L185.977 15.336L185.513 13.208L188.633 11.64H190.089V22.216H187.721ZM185.753 23V20.84H192.105V23H185.753ZM194.104 23L193.576 21.688L196.888 18.024C197.07 17.832 197.262 17.608 197.464 17.352C197.678 17.096 197.88 16.8347 198.072 16.568C198.275 16.2907 198.435 16.024 198.552 15.768C198.67 15.5013 198.728 15.2613 198.728 15.048C198.728 14.8027 198.675 14.5893 198.568 14.408C198.462 14.216 198.307 14.0667 198.104 13.96C197.902 13.8533 197.651 13.8 197.352 13.8C197.075 13.8 196.814 13.8747 196.568 14.024C196.323 14.1627 196.094 14.3707 195.88 14.648C195.667 14.9253 195.48 15.2613 195.32 15.656L193.528 14.648C193.742 14.0293 194.046 13.4907 194.44 13.032C194.835 12.5733 195.304 12.216 195.848 11.96C196.392 11.704 196.974 11.576 197.592 11.576C198.243 11.5867 198.83 11.7253 199.352 11.992C199.875 12.2587 200.286 12.632 200.584 13.112C200.883 13.592 201.032 14.1467 201.032 14.776C201.032 15.0107 201.006 15.2507 200.952 15.496C200.91 15.7413 200.83 15.9973 200.712 16.264C200.606 16.5307 200.462 16.8133 200.28 17.112C200.11 17.4 199.896 17.7093 199.64 18.04C199.395 18.36 199.112 18.696 198.792 19.048L196.248 21.816L195.928 20.84H201.496V23H194.104ZM203.734 23.176C203.318 23.176 202.998 23.0587 202.774 22.824C202.55 22.5893 202.438 22.2533 202.438 21.816C202.438 21.4213 202.555 21.1013 202.79 20.856C203.035 20.6 203.35 20.472 203.734 20.472C204.139 20.472 204.454 20.5893 204.678 20.824C204.902 21.0587 205.014 21.3893 205.014 21.816C205.014 22.2213 204.897 22.552 204.662 22.808C204.427 23.0533 204.118 23.176 203.734 23.176ZM210.103 23.16C209.239 23.16 208.482 22.9733 207.831 22.6C207.191 22.2267 206.599 21.5867 206.055 20.68L207.815 19.56C208.06 19.9333 208.306 20.2373 208.551 20.472C208.807 20.7067 209.074 20.8773 209.351 20.984C209.628 21.0907 209.916 21.144 210.215 21.144C210.535 21.144 210.834 21.0693 211.111 20.92C211.388 20.7707 211.607 20.5627 211.767 20.296C211.938 20.0187 212.023 19.704 212.023 19.352C212.023 18.9893 211.954 18.6853 211.815 18.44C211.676 18.1947 211.474 18.008 211.207 17.88C210.94 17.752 210.626 17.688 210.263 17.688C210.103 17.688 209.927 17.704 209.735 17.736C209.543 17.768 209.346 17.8213 209.143 17.896C208.94 17.96 208.722 18.04 208.487 18.136L207.927 16.664L210.887 13.432L211.495 13.864L206.791 13.8V11.736H213.527L213.959 12.616L210.263 16.616L209.703 15.96C209.788 15.9173 209.927 15.88 210.119 15.848C210.322 15.8053 210.508 15.784 210.679 15.784C211.17 15.784 211.628 15.8747 212.055 16.056C212.482 16.2373 212.86 16.488 213.191 16.808C213.522 17.128 213.778 17.5013 213.959 17.928C214.151 18.3547 214.247 18.8133 214.247 19.304C214.247 20.04 214.06 20.7013 213.687 21.288C213.324 21.864 212.828 22.3227 212.199 22.664C211.58 22.9947 210.882 23.16 210.103 23.16ZM219.484 23C218.918 23 218.385 22.8987 217.884 22.696C217.393 22.4933 216.961 22.2107 216.588 21.848C216.225 21.4853 215.937 21.0587 215.724 20.568C215.521 20.0773 215.42 19.5493 215.42 18.984C215.42 18.632 215.462 18.2747 215.548 17.912C215.633 17.5387 215.75 17.1547 215.9 16.76C216.06 16.3653 216.252 15.9547 216.476 15.528C216.7 15.1013 216.95 14.6587 217.228 14.2L218.764 11.624H221.004L221.068 11.784L219.036 15.064C218.748 15.5333 218.492 15.9813 218.268 16.408C218.054 16.8347 217.862 17.2453 217.692 17.64C217.532 18.0347 217.382 18.4347 217.244 18.84L216.78 17.56C216.918 17.1973 217.105 16.872 217.34 16.584C217.574 16.2853 217.841 16.0347 218.14 15.832C218.438 15.6187 218.753 15.4587 219.084 15.352C219.414 15.2347 219.74 15.176 220.06 15.176C220.689 15.176 221.265 15.3467 221.788 15.688C222.321 16.0187 222.742 16.4613 223.052 17.016C223.372 17.5707 223.532 18.1787 223.532 18.84C223.532 19.64 223.356 20.3547 223.004 20.984C222.662 21.6027 222.182 22.0933 221.564 22.456C220.956 22.8187 220.262 23 219.484 23ZM219.516 20.968C219.878 20.968 220.198 20.888 220.476 20.728C220.764 20.5573 220.988 20.3227 221.148 20.024C221.308 19.7253 221.388 19.384 221.388 19C221.388 18.6693 221.302 18.36 221.132 18.072C220.972 17.7733 220.748 17.5333 220.46 17.352C220.182 17.1707 219.873 17.08 219.532 17.08C219.158 17.08 218.822 17.1707 218.524 17.352C218.236 17.5227 218.006 17.752 217.836 18.04C217.676 18.3173 217.596 18.632 217.596 18.984C217.596 19.368 217.676 19.7093 217.836 20.008C218.006 20.296 218.236 20.5307 218.524 20.712C218.812 20.8827 219.142 20.968 219.516 20.968Z" fill="white"/>
<path d="M181.699 55.042C181.074 55.042 180.5 54.916 179.977 54.664C179.464 54.4027 179.053 54.0573 178.745 53.628C178.437 53.1893 178.283 52.704 178.283 52.172C178.283 51.8547 178.325 51.5607 178.409 51.29C178.503 51.0193 178.633 50.7767 178.801 50.562C178.979 50.3473 179.189 50.156 179.431 49.988C179.683 49.8107 179.968 49.6567 180.285 49.526L180.173 49.918C179.931 49.8153 179.707 49.694 179.501 49.554C179.305 49.414 179.133 49.2553 178.983 49.078C178.843 48.8913 178.736 48.6953 178.661 48.49C178.587 48.2753 178.549 48.0513 178.549 47.818C178.549 47.314 178.689 46.8613 178.969 46.46C179.259 46.0587 179.641 45.7413 180.117 45.508C180.593 45.2653 181.121 45.144 181.699 45.144C182.287 45.144 182.819 45.2653 183.295 45.508C183.771 45.7413 184.149 46.0587 184.429 46.46C184.719 46.8613 184.863 47.314 184.863 47.818C184.863 48.0513 184.826 48.2753 184.751 48.49C184.677 48.6953 184.569 48.8867 184.429 49.064C184.299 49.232 184.131 49.3907 183.925 49.54C183.72 49.68 183.482 49.806 183.211 49.918L183.141 49.582C183.44 49.6847 183.711 49.82 183.953 49.988C184.196 50.156 184.406 50.352 184.583 50.576C184.761 50.8 184.896 51.0473 184.989 51.318C185.092 51.5887 185.143 51.8733 185.143 52.172C185.143 52.7133 184.989 53.2033 184.681 53.642C184.373 54.0713 183.958 54.412 183.435 54.664C182.922 54.916 182.343 55.042 181.699 55.042ZM181.699 53.474C182.017 53.474 182.301 53.4133 182.553 53.292C182.805 53.1707 183.001 53.0073 183.141 52.802C183.291 52.5967 183.365 52.3587 183.365 52.088C183.365 51.7987 183.291 51.5467 183.141 51.332C183.001 51.108 182.805 50.9353 182.553 50.814C182.301 50.6833 182.017 50.618 181.699 50.618C181.391 50.618 181.111 50.6833 180.859 50.814C180.617 50.9353 180.421 51.108 180.271 51.332C180.122 51.5467 180.047 51.7987 180.047 52.088C180.047 52.3493 180.122 52.5827 180.271 52.788C180.421 52.9933 180.617 53.1613 180.859 53.292C181.111 53.4133 181.391 53.474 181.699 53.474ZM181.699 49.078C181.979 49.078 182.227 49.0267 182.441 48.924C182.665 48.8213 182.838 48.6813 182.959 48.504C183.081 48.3267 183.141 48.1213 183.141 47.888C183.141 47.6453 183.081 47.4353 182.959 47.258C182.838 47.0713 182.665 46.9267 182.441 46.824C182.227 46.712 181.979 46.656 181.699 46.656C181.429 46.656 181.181 46.712 180.957 46.824C180.743 46.9267 180.575 47.0713 180.453 47.258C180.332 47.4353 180.271 47.6453 180.271 47.888C180.271 48.1213 180.332 48.3267 180.453 48.504C180.575 48.6813 180.743 48.8213 180.957 48.924C181.181 49.0267 181.429 49.078 181.699 49.078ZM188.908 55L188.852 54.86L191.82 48.672L191.988 49.722C191.848 50.0207 191.676 50.2867 191.47 50.52C191.274 50.7533 191.046 50.9587 190.784 51.136C190.532 51.304 190.271 51.4347 190 51.528C189.73 51.612 189.459 51.654 189.188 51.654C188.656 51.654 188.166 51.514 187.718 51.234C187.27 50.9447 186.911 50.5667 186.64 50.1C186.37 49.624 186.234 49.106 186.234 48.546C186.234 47.8833 186.388 47.286 186.696 46.754C187.004 46.2127 187.42 45.788 187.942 45.48C188.474 45.1627 189.072 45.004 189.734 45.004C190.21 45.004 190.658 45.0927 191.078 45.27C191.508 45.438 191.876 45.676 192.184 45.984C192.502 46.292 192.749 46.6467 192.926 47.048C193.113 47.4493 193.206 47.874 193.206 48.322C193.206 48.5927 193.178 48.8727 193.122 49.162C193.076 49.442 192.996 49.75 192.884 50.086C192.772 50.422 192.628 50.7907 192.45 51.192C192.282 51.5933 192.077 52.0507 191.834 52.564L190.644 55H188.908ZM189.594 50.086C189.93 50.086 190.234 50.0113 190.504 49.862C190.775 49.7033 190.985 49.498 191.134 49.246C191.284 48.994 191.358 48.7047 191.358 48.378C191.358 48.042 191.284 47.7387 191.134 47.468C190.985 47.1973 190.78 46.9873 190.518 46.838C190.257 46.6793 189.958 46.6 189.622 46.6C189.305 46.6 189.025 46.6747 188.782 46.824C188.54 46.9733 188.344 47.1833 188.194 47.454C188.054 47.7153 187.984 48.0233 187.984 48.378C187.984 48.6767 188.054 48.9567 188.194 49.218C188.344 49.4793 188.54 49.6893 188.782 49.848C189.034 50.0067 189.305 50.086 189.594 50.086ZM195.314 55.154C194.978 55.154 194.717 55.056 194.53 54.86C194.353 54.664 194.264 54.3887 194.264 54.034C194.264 53.7073 194.358 53.4413 194.544 53.236C194.74 53.0213 194.997 52.914 195.314 52.914C195.65 52.914 195.907 53.012 196.084 53.208C196.271 53.3947 196.364 53.67 196.364 54.034C196.364 54.3607 196.266 54.6313 196.07 54.846C195.884 55.0513 195.632 55.154 195.314 55.154ZM199.994 54.314V46.362L200.512 47.034L198.524 48.042L198.118 46.446L200.792 45.06H201.8V54.314H199.994ZM198.356 55V53.32H203.48V55H198.356ZM207.309 54.314V46.362L207.827 47.034L205.839 48.042L205.433 46.446L208.107 45.06H209.115V54.314H207.309ZM205.671 55V53.32H210.795V55H205.671ZM213.629 55L220.111 45.2H221.777L215.225 55H213.629ZM214.427 50.394C213.989 50.394 213.597 50.2773 213.251 50.044C212.915 49.8107 212.649 49.4933 212.453 49.092C212.267 48.6907 212.173 48.2333 212.173 47.72C212.173 47.1973 212.267 46.7353 212.453 46.334C212.649 45.9233 212.915 45.6013 213.251 45.368C213.597 45.1347 213.993 45.018 214.441 45.018C214.88 45.018 215.267 45.1347 215.603 45.368C215.949 45.6013 216.215 45.9233 216.401 46.334C216.597 46.7353 216.695 47.1973 216.695 47.72C216.695 48.224 216.597 48.6813 216.401 49.092C216.205 49.4933 215.935 49.8107 215.589 50.044C215.244 50.2773 214.857 50.394 214.427 50.394ZM214.441 49.204C214.619 49.204 214.773 49.1433 214.903 49.022C215.034 48.9007 215.137 48.7327 215.211 48.518C215.286 48.294 215.323 48.028 215.323 47.72C215.323 47.412 215.286 47.146 215.211 46.922C215.137 46.698 215.034 46.5253 214.903 46.404C214.773 46.2827 214.614 46.222 214.427 46.222C214.25 46.222 214.091 46.2873 213.951 46.418C213.821 46.5393 213.718 46.712 213.643 46.936C213.569 47.1507 213.531 47.412 213.531 47.72C213.531 48.028 213.564 48.294 213.629 48.518C213.704 48.7327 213.811 48.9007 213.951 49.022C214.091 49.1433 214.255 49.204 214.441 49.204ZM221.077 55.126C220.639 55.126 220.247 55.0093 219.901 54.776C219.565 54.5427 219.299 54.2253 219.103 53.824C218.907 53.4227 218.809 52.9653 218.809 52.452C218.809 51.9293 218.903 51.4673 219.089 51.066C219.285 50.6553 219.556 50.3333 219.901 50.1C220.247 49.8667 220.639 49.75 221.077 49.75C221.525 49.75 221.917 49.8667 222.253 50.1C222.589 50.3333 222.851 50.6553 223.037 51.066C223.233 51.4673 223.331 51.9293 223.331 52.452C223.331 52.956 223.233 53.4133 223.037 53.824C222.841 54.2253 222.571 54.5427 222.225 54.776C221.889 55.0093 221.507 55.126 221.077 55.126ZM221.077 53.95C221.255 53.95 221.409 53.8893 221.539 53.768C221.679 53.6373 221.787 53.4647 221.861 53.25C221.936 53.026 221.973 52.76 221.973 52.452C221.973 52.1533 221.936 51.892 221.861 51.668C221.787 51.444 221.679 51.2713 221.539 51.15C221.409 51.0193 221.255 50.954 221.077 50.954C220.891 50.954 220.727 51.0147 220.587 51.136C220.457 51.2573 220.354 51.4347 220.279 51.668C220.205 51.892 220.167 52.1533 220.167 52.452C220.167 52.76 220.205 53.026 220.279 53.25C220.354 53.4647 220.457 53.6373 220.587 53.768C220.727 53.8893 220.891 53.95 221.077 53.95Z" fill="white"/>
<rect y="46" width="168" height="8" rx="4" fill="#353535"/>
<rect y="46" width="120" height="8" rx="4" fill="url(#paint0_linear_336_1114)"/>
<defs>
<linearGradient id="paint0_linear_336_1114" x1="60" y1="46" x2="60" y2="54" gradientUnits="userSpaceOnUse">
<stop stop-color="#5CFF9C"/>
<stop offset="1" stop-color="#00FFA3"/>
</linearGradient>
<clipPath id="clip0_336_1114">
<rect width="24" height="24" fill="white" transform="translate(4 4)"/>
</clipPath>
</defs>
</svg>
