<svg width="302" height="44" viewBox="0 0 302 44" fill="none" xmlns="http://www.w3.org/2000/svg">
<path d="M0 15C0 6.71573 6.71573 0 15 0H287C295.284 0 302 6.71573 302 15V29C302 37.2843 295.284 44 287 44H15C6.71572 44 0 37.2843 0 29V15Z" fill="#2E3047" fill-opacity="0.7"/>
<path d="M246.53 35L246.2 34.18L248.34 31.77C248.453 31.65 248.57 31.5133 248.69 31.36C248.816 31.2 248.936 31.0367 249.05 30.87C249.163 30.7033 249.253 30.54 249.32 30.38C249.393 30.2133 249.43 30.0567 249.43 29.91C249.43 29.6967 249.386 29.5167 249.3 29.37C249.22 29.2167 249.1 29.1 248.94 29.02C248.786 28.94 248.6 28.9 248.38 28.9C248.186 28.9 247.996 28.9567 247.81 29.07C247.623 29.1833 247.453 29.3433 247.3 29.55C247.146 29.7567 247.026 29.9967 246.94 30.27L246.11 29.75C246.223 29.3633 246.393 29.0333 246.62 28.76C246.853 28.48 247.13 28.2667 247.45 28.12C247.776 27.9733 248.13 27.9 248.51 27.9C248.903 27.9 249.253 27.9833 249.56 28.15C249.866 28.31 250.106 28.5367 250.28 28.83C250.453 29.1167 250.54 29.45 250.54 29.83C250.54 29.9833 250.523 30.14 250.49 30.3C250.456 30.46 250.403 30.6267 250.33 30.8C250.256 30.9667 250.163 31.1433 250.05 31.33C249.936 31.51 249.8 31.7 249.64 31.9C249.486 32.1 249.31 32.31 249.11 32.53L247.52 34.26L247.32 33.96H250.76V35H246.53ZM253.588 35.1C253.095 35.1 252.665 34.9867 252.298 34.76C251.938 34.5333 251.598 34.1533 251.278 33.62L252.118 33.09C252.285 33.3367 252.448 33.54 252.608 33.7C252.775 33.8533 252.945 33.9667 253.118 34.04C253.291 34.1133 253.475 34.15 253.668 34.15C253.901 34.15 254.118 34.0933 254.318 33.98C254.518 33.86 254.678 33.6967 254.798 33.49C254.918 33.2833 254.978 33.05 254.978 32.79C254.978 32.53 254.931 32.31 254.838 32.13C254.745 31.9433 254.608 31.8033 254.428 31.71C254.248 31.61 254.035 31.56 253.788 31.56C253.675 31.56 253.555 31.5733 253.428 31.6C253.308 31.62 253.178 31.6533 253.038 31.7C252.898 31.74 252.745 31.7933 252.578 31.86L252.278 31.07L254.438 28.69L254.648 29H251.668V28H255.678L255.878 28.4L253.588 30.94L253.338 30.68C253.391 30.6533 253.478 30.63 253.598 30.61C253.725 30.5833 253.828 30.57 253.908 30.57C254.201 30.57 254.475 30.6267 254.728 30.74C254.988 30.8467 255.211 31 255.398 31.2C255.591 31.3933 255.741 31.6233 255.848 31.89C255.961 32.15 256.018 32.43 256.018 32.73C256.018 33.1833 255.908 33.59 255.688 33.95C255.475 34.3033 255.185 34.5833 254.818 34.79C254.451 34.9967 254.041 35.1 253.588 35.1ZM259.891 35V29.36L260.141 29.42L257.841 32.23L257.801 32.11H262.151V33.1H257.131L256.671 32.2L260.101 28H260.931V35H259.891ZM269.075 35.06C268.535 35.06 268.052 34.9433 267.625 34.71C267.198 34.47 266.862 34.1433 266.615 33.73C266.375 33.31 266.255 32.8367 266.255 32.31V27.99H267.335V32.22C267.335 32.56 267.415 32.8667 267.575 33.14C267.735 33.4067 267.945 33.62 268.205 33.78C268.472 33.94 268.762 34.02 269.075 34.02C269.408 34.02 269.708 33.94 269.975 33.78C270.248 33.62 270.465 33.4067 270.625 33.14C270.785 32.8667 270.865 32.56 270.865 32.22V27.99H271.895V32.31C271.895 32.8367 271.772 33.31 271.525 33.73C271.285 34.1433 270.952 34.47 270.525 34.71C270.098 34.9433 269.615 35.06 269.075 35.06ZM275.82 35.1C275.44 35.1 275.086 35.05 274.76 34.95C274.44 34.85 274.146 34.7 273.88 34.5C273.62 34.2933 273.386 34.04 273.18 33.74L273.92 32.89C274.246 33.3567 274.56 33.68 274.86 33.86C275.16 34.04 275.516 34.13 275.93 34.13C276.183 34.13 276.413 34.09 276.62 34.01C276.826 33.93 276.99 33.82 277.11 33.68C277.23 33.54 277.29 33.38 277.29 33.2C277.29 33.08 277.27 32.9667 277.23 32.86C277.19 32.7533 277.126 32.6567 277.04 32.57C276.96 32.4833 276.853 32.4033 276.72 32.33C276.593 32.2567 276.443 32.1933 276.27 32.14C276.096 32.08 275.896 32.03 275.67 31.99C275.31 31.9167 274.996 31.82 274.73 31.7C274.463 31.58 274.24 31.43 274.06 31.25C273.88 31.07 273.746 30.8667 273.66 30.64C273.573 30.4067 273.53 30.1467 273.53 29.86C273.53 29.58 273.59 29.32 273.71 29.08C273.836 28.84 274.006 28.6333 274.22 28.46C274.44 28.28 274.696 28.1433 274.99 28.05C275.283 27.95 275.6 27.9 275.94 27.9C276.3 27.9 276.63 27.9467 276.93 28.04C277.23 28.1333 277.496 28.2733 277.73 28.46C277.963 28.64 278.156 28.8633 278.31 29.13L277.55 29.88C277.416 29.66 277.266 29.4767 277.1 29.33C276.933 29.1767 276.75 29.0633 276.55 28.99C276.35 28.91 276.136 28.87 275.91 28.87C275.65 28.87 275.423 28.91 275.23 28.99C275.036 29.07 274.883 29.1833 274.77 29.33C274.663 29.47 274.61 29.6367 274.61 29.83C274.61 29.97 274.636 30.1 274.69 30.22C274.743 30.3333 274.823 30.4367 274.93 30.53C275.043 30.6167 275.193 30.6967 275.38 30.77C275.566 30.8367 275.79 30.8967 276.05 30.95C276.416 31.03 276.743 31.1333 277.03 31.26C277.316 31.38 277.56 31.5233 277.76 31.69C277.96 31.8567 278.11 32.0433 278.21 32.25C278.316 32.4567 278.37 32.68 278.37 32.92C278.37 33.3667 278.266 33.7533 278.06 34.08C277.853 34.4067 277.56 34.66 277.18 34.84C276.8 35.0133 276.346 35.1 275.82 35.1ZM279.9 35V28H282.64C283.14 28 283.59 28.0833 283.99 28.25C284.397 28.4167 284.743 28.6567 285.03 28.97C285.317 29.2833 285.537 29.6533 285.69 30.08C285.843 30.5067 285.92 30.98 285.92 31.5C285.92 32.02 285.843 32.4967 285.69 32.93C285.537 33.3567 285.317 33.7267 285.03 34.04C284.75 34.3467 284.407 34.5833 284 34.75C283.593 34.9167 283.14 35 282.64 35H279.9ZM280.98 34.07L280.95 33.96H282.59C282.943 33.96 283.257 33.9033 283.53 33.79C283.81 33.6767 284.043 33.5167 284.23 33.31C284.423 33.0967 284.57 32.8367 284.67 32.53C284.77 32.2233 284.82 31.88 284.82 31.5C284.82 31.12 284.77 30.78 284.67 30.48C284.57 30.1733 284.423 29.9133 284.23 29.7C284.037 29.4867 283.803 29.3233 283.53 29.21C283.257 29.0967 282.943 29.04 282.59 29.04H280.92L280.98 28.95V34.07Z" fill="white"/>
<path d="M148.659 17.016V15.928H156.515V17.016H148.659ZM151.955 20.328V12.6H153.187V20.328H151.955ZM166.693 21.16C165.818 21.16 165.072 20.9307 164.453 20.472C163.845 20.0133 163.376 19.3573 163.045 18.504C162.725 17.64 162.565 16.6053 162.565 15.4C162.565 14.1947 162.725 13.1653 163.045 12.312C163.376 11.448 163.845 10.7867 164.453 10.328C165.072 9.86933 165.818 9.64 166.693 9.64C167.557 9.64 168.298 9.86933 168.917 10.328C169.536 10.7867 170.005 11.448 170.325 12.312C170.656 13.1653 170.821 14.1947 170.821 15.4C170.821 16.6053 170.656 17.64 170.325 18.504C170.005 19.3573 169.536 20.0133 168.917 20.472C168.298 20.9307 167.557 21.16 166.693 21.16ZM166.693 19.992C167.61 19.992 168.314 19.592 168.805 18.792C169.306 17.992 169.557 16.8613 169.557 15.4C169.557 13.9387 169.306 12.808 168.805 12.008C168.314 11.208 167.61 10.808 166.693 10.808C165.765 10.808 165.05 11.208 164.549 12.008C164.058 12.808 163.813 13.9387 163.813 15.4C163.813 16.8613 164.058 17.992 164.549 18.792C165.05 19.592 165.765 19.992 166.693 19.992ZM173.418 21.16C173.13 21.16 172.906 21.0747 172.746 20.904C172.596 20.7333 172.522 20.488 172.522 20.168C172.522 19.88 172.602 19.6453 172.762 19.464C172.932 19.272 173.151 19.176 173.418 19.176C173.706 19.176 173.924 19.2667 174.074 19.448C174.234 19.6187 174.314 19.8587 174.314 20.168C174.314 20.4667 174.228 20.7067 174.058 20.888C173.898 21.0693 173.684 21.16 173.418 21.16ZM180.13 21.16C179.256 21.16 178.509 20.9307 177.89 20.472C177.282 20.0133 176.813 19.3573 176.482 18.504C176.162 17.64 176.002 16.6053 176.002 15.4C176.002 14.1947 176.162 13.1653 176.482 12.312C176.813 11.448 177.282 10.7867 177.89 10.328C178.509 9.86933 179.256 9.64 180.13 9.64C180.994 9.64 181.736 9.86933 182.354 10.328C182.973 10.7867 183.442 11.448 183.762 12.312C184.093 13.1653 184.258 14.1947 184.258 15.4C184.258 16.6053 184.093 17.64 183.762 18.504C183.442 19.3573 182.973 20.0133 182.354 20.472C181.736 20.9307 180.994 21.16 180.13 21.16ZM180.13 19.992C181.048 19.992 181.752 19.592 182.242 18.792C182.744 17.992 182.994 16.8613 182.994 15.4C182.994 13.9387 182.744 12.808 182.242 12.008C181.752 11.208 181.048 10.808 180.13 10.808C179.202 10.808 178.488 11.208 177.986 12.008C177.496 12.808 177.25 13.9387 177.25 15.4C177.25 16.8613 177.496 17.992 177.986 18.792C178.488 19.592 179.202 19.992 180.13 19.992ZM189.927 21.16C189.053 21.16 188.306 20.9307 187.687 20.472C187.079 20.0133 186.61 19.3573 186.279 18.504C185.959 17.64 185.799 16.6053 185.799 15.4C185.799 14.1947 185.959 13.1653 186.279 12.312C186.61 11.448 187.079 10.7867 187.687 10.328C188.306 9.86933 189.053 9.64 189.927 9.64C190.791 9.64 191.533 9.86933 192.151 10.328C192.77 10.7867 193.239 11.448 193.559 12.312C193.89 13.1653 194.055 14.1947 194.055 15.4C194.055 16.6053 193.89 17.64 193.559 18.504C193.239 19.3573 192.77 20.0133 192.151 20.472C191.533 20.9307 190.791 21.16 189.927 21.16ZM189.927 19.992C190.845 19.992 191.549 19.592 192.039 18.792C192.541 17.992 192.791 16.8613 192.791 15.4C192.791 13.9387 192.541 12.808 192.039 12.008C191.549 11.208 190.845 10.808 189.927 10.808C188.999 10.808 188.285 11.208 187.783 12.008C187.293 12.808 187.047 13.9387 187.047 15.4C187.047 16.8613 187.293 17.992 187.783 18.792C188.285 19.592 188.999 19.992 189.927 19.992ZM198.14 20.456V10.792L198.604 11.144L196.524 12.392L196.156 11.272L198.924 9.64H199.404V20.456H198.14ZM196.492 21V19.784H201.084V21H196.492ZM207.052 21.16C206.178 21.16 205.431 20.9307 204.812 20.472C204.204 20.0133 203.735 19.3573 203.404 18.504C203.084 17.64 202.924 16.6053 202.924 15.4C202.924 14.1947 203.084 13.1653 203.404 12.312C203.735 11.448 204.204 10.7867 204.812 10.328C205.431 9.86933 206.178 9.64 207.052 9.64C207.916 9.64 208.658 9.86933 209.276 10.328C209.895 10.7867 210.364 11.448 210.684 12.312C211.015 13.1653 211.18 14.1947 211.18 15.4C211.18 16.6053 211.015 17.64 210.684 18.504C210.364 19.3573 209.895 20.0133 209.276 20.472C208.658 20.9307 207.916 21.16 207.052 21.16ZM207.052 19.992C207.97 19.992 208.674 19.592 209.164 18.792C209.666 17.992 209.916 16.8613 209.916 15.4C209.916 13.9387 209.666 12.808 209.164 12.008C208.674 11.208 207.97 10.808 207.052 10.808C206.124 10.808 205.41 11.208 204.908 12.008C204.418 12.808 204.172 13.9387 204.172 15.4C204.172 16.8613 204.418 17.992 204.908 18.792C205.41 19.592 206.124 19.992 207.052 19.992ZM213.441 21L213.057 20.072L216.833 15.832C217.014 15.6293 217.201 15.4 217.393 15.144C217.596 14.888 217.782 14.6213 217.953 14.344C218.134 14.056 218.278 13.7733 218.385 13.496C218.492 13.2187 218.545 12.9467 218.545 12.68C218.545 12.2853 218.46 11.9547 218.289 11.688C218.118 11.4107 217.873 11.1973 217.553 11.048C217.244 10.8987 216.881 10.824 216.465 10.824C216.102 10.824 215.745 10.9093 215.393 11.08C215.041 11.2507 214.721 11.512 214.433 11.864C214.145 12.216 213.921 12.664 213.761 13.208L212.769 12.616C212.961 11.9653 213.244 11.4213 213.617 10.984C213.99 10.536 214.433 10.2 214.945 9.976C215.457 9.752 216.006 9.64 216.593 9.64C217.212 9.64 217.766 9.768 218.257 10.024C218.748 10.2693 219.137 10.6213 219.425 11.08C219.713 11.528 219.857 12.0453 219.857 12.632C219.857 12.888 219.825 13.144 219.761 13.4C219.708 13.656 219.622 13.912 219.505 14.168C219.388 14.424 219.244 14.6853 219.073 14.952C218.913 15.2187 218.721 15.4907 218.497 15.768C218.284 16.0453 218.044 16.3333 217.777 16.632L214.561 20.216L214.369 19.8H220.209V21H213.441ZM225.615 21.16C224.74 21.16 223.993 20.9307 223.375 20.472C222.767 20.0133 222.297 19.3573 221.967 18.504C221.647 17.64 221.487 16.6053 221.487 15.4C221.487 14.1947 221.647 13.1653 221.967 12.312C222.297 11.448 222.767 10.7867 223.375 10.328C223.993 9.86933 224.74 9.64 225.615 9.64C226.479 9.64 227.22 9.86933 227.839 10.328C228.457 10.7867 228.927 11.448 229.247 12.312C229.577 13.1653 229.743 14.1947 229.743 15.4C229.743 16.6053 229.577 17.64 229.247 18.504C228.927 19.3573 228.457 20.0133 227.839 20.472C227.22 20.9307 226.479 21.16 225.615 21.16ZM225.615 19.992C226.532 19.992 227.236 19.592 227.727 18.792C228.228 17.992 228.479 16.8613 228.479 15.4C228.479 13.9387 228.228 12.808 227.727 12.008C227.236 11.208 226.532 10.808 225.615 10.808C224.687 10.808 223.972 11.208 223.471 12.008C222.98 12.808 222.735 13.9387 222.735 15.4C222.735 16.8613 222.98 17.992 223.471 18.792C223.972 19.592 224.687 19.992 225.615 19.992ZM235.412 21.16C234.537 21.16 233.79 20.9307 233.172 20.472C232.564 20.0133 232.094 19.3573 231.764 18.504C231.444 17.64 231.284 16.6053 231.284 15.4C231.284 14.1947 231.444 13.1653 231.764 12.312C232.094 11.448 232.564 10.7867 233.172 10.328C233.79 9.86933 234.537 9.64 235.412 9.64C236.276 9.64 237.017 9.86933 237.636 10.328C238.254 10.7867 238.724 11.448 239.044 12.312C239.374 13.1653 239.54 14.1947 239.54 15.4C239.54 16.6053 239.374 17.64 239.044 18.504C238.724 19.3573 238.254 20.0133 237.636 20.472C237.017 20.9307 236.276 21.16 235.412 21.16ZM235.412 19.992C236.329 19.992 237.033 19.592 237.524 18.792C238.025 17.992 238.276 16.8613 238.276 15.4C238.276 13.9387 238.025 12.808 237.524 12.008C237.033 11.208 236.329 10.808 235.412 10.808C234.484 10.808 233.769 11.208 233.268 12.008C232.777 12.808 232.532 13.9387 232.532 15.4C232.532 16.8613 232.777 17.992 233.268 18.792C233.769 19.592 234.484 19.992 235.412 19.992ZM245.209 21.16C244.334 21.16 243.587 20.9307 242.969 20.472C242.361 20.0133 241.891 19.3573 241.561 18.504C241.241 17.64 241.081 16.6053 241.081 15.4C241.081 14.1947 241.241 13.1653 241.561 12.312C241.891 11.448 242.361 10.7867 242.969 10.328C243.587 9.86933 244.334 9.64 245.209 9.64C246.073 9.64 246.814 9.86933 247.433 10.328C248.051 10.7867 248.521 11.448 248.841 12.312C249.171 13.1653 249.337 14.1947 249.337 15.4C249.337 16.6053 249.171 17.64 248.841 18.504C248.521 19.3573 248.051 20.0133 247.433 20.472C246.814 20.9307 246.073 21.16 245.209 21.16ZM245.209 19.992C246.126 19.992 246.83 19.592 247.321 18.792C247.822 17.992 248.073 16.8613 248.073 15.4C248.073 13.9387 247.822 12.808 247.321 12.008C246.83 11.208 246.126 10.808 245.209 10.808C244.281 10.808 243.566 11.208 243.065 12.008C242.574 12.808 242.329 13.9387 242.329 15.4C242.329 16.8613 242.574 17.992 243.065 18.792C243.566 19.592 244.281 19.992 245.209 19.992ZM256.242 21V9.8H260.786C261.436 9.8 261.996 9.91733 262.466 10.152C262.946 10.376 263.314 10.7013 263.57 11.128C263.826 11.544 263.954 12.04 263.954 12.616C263.954 13.2347 263.778 13.768 263.426 14.216C263.074 14.6533 262.594 14.9573 261.986 15.128L261.954 14.824C262.476 14.92 262.93 15.1067 263.314 15.384C263.698 15.6507 263.996 15.9813 264.21 16.376C264.434 16.7707 264.546 17.2133 264.546 17.704C264.546 18.2053 264.46 18.6587 264.29 19.064C264.119 19.4693 263.874 19.816 263.554 20.104C263.244 20.392 262.866 20.616 262.418 20.776C261.98 20.9253 261.49 21 260.946 21H256.242ZM257.49 19.784H260.85C261.33 19.784 261.746 19.704 262.098 19.544C262.46 19.3733 262.738 19.1333 262.93 18.824C263.132 18.5147 263.234 18.1573 263.234 17.752C263.234 17.368 263.127 17.032 262.914 16.744C262.711 16.456 262.423 16.232 262.05 16.072C261.687 15.912 261.26 15.832 260.77 15.832H257.49V19.784ZM257.49 14.616H260.69C261.074 14.616 261.415 14.5413 261.714 14.392C262.012 14.232 262.247 14.0187 262.418 13.752C262.588 13.4747 262.674 13.1653 262.674 12.824C262.674 12.28 262.487 11.8427 262.114 11.512C261.751 11.1813 261.239 11.016 260.578 11.016H257.49V14.616ZM268.774 21V11.016H265.574V9.8H273.35V11.016H270.022V21H268.774ZM279.616 21.16C278.816 21.16 278.08 21.0213 277.408 20.744C276.736 20.456 276.155 20.056 275.664 19.544C275.173 19.0213 274.789 18.408 274.512 17.704C274.245 17 274.112 16.232 274.112 15.4C274.112 14.5787 274.245 13.8267 274.512 13.144C274.789 12.4507 275.179 11.848 275.68 11.336C276.181 10.8133 276.763 10.4133 277.424 10.136C278.085 9.85867 278.811 9.72 279.6 9.72C280.123 9.72 280.64 9.80533 281.152 9.976C281.664 10.136 282.133 10.36 282.56 10.648C282.997 10.936 283.355 11.2667 283.632 11.64L282.768 12.536C282.501 12.216 282.192 11.9387 281.84 11.704C281.499 11.4693 281.136 11.288 280.752 11.16C280.368 11.032 279.984 10.968 279.6 10.968C279.003 10.968 278.443 11.08 277.92 11.304C277.408 11.5173 276.965 11.8213 276.592 12.216C276.219 12.6107 275.925 13.08 275.712 13.624C275.509 14.168 275.408 14.76 275.408 15.4C275.408 16.0613 275.509 16.6693 275.712 17.224C275.925 17.7787 276.224 18.2587 276.608 18.664C277.003 19.0587 277.461 19.368 277.984 19.592C278.517 19.8053 279.109 19.912 279.76 19.912C280.144 19.912 280.528 19.8587 280.912 19.752C281.296 19.6347 281.648 19.4747 281.968 19.272C282.288 19.0693 282.56 18.84 282.784 18.584L283.424 19.624C283.179 19.9227 282.848 20.1893 282.432 20.424C282.027 20.648 281.579 20.8293 281.088 20.968C280.597 21.096 280.107 21.16 279.616 21.16Z" fill="#47DBB8"/>
<path d="M50.25 36L52.93 29H53.82L56.48 36H55.63L53.92 31.46C53.8733 31.3333 53.82 31.1867 53.76 31.02C53.7067 30.8467 53.6467 30.67 53.58 30.49C53.52 30.3033 53.46 30.1233 53.4 29.95C53.3467 29.7767 53.2967 29.6233 53.25 29.49H53.45C53.3967 29.6567 53.34 29.8267 53.28 30C53.2267 30.1667 53.17 30.3367 53.11 30.51C53.05 30.6767 52.99 30.8433 52.93 31.01C52.87 31.1767 52.81 31.3433 52.75 31.51L51.05 36H50.25ZM51.39 34.07L51.68 33.31H54.99L55.31 34.07H51.39ZM57.4585 38.2V30.78H58.2085L58.2285 32.05L58.0885 32.07C58.1485 31.8167 58.2785 31.5867 58.4785 31.38C58.6785 31.1667 58.9218 30.9967 59.2085 30.87C59.4952 30.7433 59.7985 30.68 60.1185 30.68C60.5852 30.68 61.0018 30.7967 61.3685 31.03C61.7418 31.2633 62.0385 31.5833 62.2585 31.99C62.4785 32.3967 62.5885 32.8633 62.5885 33.39C62.5885 33.91 62.4818 34.3733 62.2685 34.78C62.0552 35.1867 61.7618 35.51 61.3885 35.75C61.0152 35.9833 60.5952 36.1 60.1285 36.1C59.8018 36.1 59.4918 36.0333 59.1985 35.9C58.9052 35.7667 58.6552 35.5933 58.4485 35.38C58.2418 35.16 58.1052 34.9233 58.0385 34.67H58.2185V38.2H57.4585ZM60.0085 35.38C60.3618 35.38 60.6752 35.2933 60.9485 35.12C61.2218 34.9467 61.4385 34.71 61.5985 34.41C61.7585 34.11 61.8385 33.77 61.8385 33.39C61.8385 33.0033 61.7585 32.66 61.5985 32.36C61.4385 32.06 61.2218 31.8233 60.9485 31.65C60.6752 31.4767 60.3618 31.39 60.0085 31.39C59.6552 31.39 59.3385 31.4767 59.0585 31.65C58.7852 31.8167 58.5685 32.05 58.4085 32.35C58.2485 32.65 58.1685 32.9933 58.1685 33.38C58.1685 33.7667 58.2485 34.11 58.4085 34.41C58.5685 34.71 58.7852 34.9467 59.0585 35.12C59.3385 35.2933 59.6552 35.38 60.0085 35.38ZM63.6792 36V30.78H64.4292L64.4492 32.17L64.3692 31.98C64.4426 31.7467 64.5592 31.53 64.7192 31.33C64.8859 31.13 65.0826 30.97 65.3092 30.85C65.5359 30.73 65.7859 30.67 66.0592 30.67C66.1726 30.67 66.2792 30.68 66.3792 30.7C66.4792 30.7133 66.5626 30.7333 66.6292 30.76L66.4192 31.6C66.3326 31.56 66.2426 31.5333 66.1492 31.52C66.0626 31.5 65.9792 31.49 65.8992 31.49C65.6726 31.49 65.4692 31.53 65.2892 31.61C65.1092 31.69 64.9559 31.8033 64.8292 31.95C64.7026 32.09 64.6059 32.2533 64.5392 32.44C64.4726 32.6267 64.4392 32.8267 64.4392 33.04V36H63.6792ZM67.6097 36V30.78H68.3597V36H67.6097ZM67.9797 29.65C67.793 29.65 67.6497 29.6033 67.5497 29.51C67.4564 29.41 67.4097 29.2767 67.4097 29.11C67.4097 28.9433 67.4597 28.81 67.5597 28.71C67.6597 28.61 67.7997 28.56 67.9797 28.56C68.1597 28.56 68.2997 28.61 68.3997 28.71C68.4997 28.8033 68.5497 28.9367 68.5497 29.11C68.5497 29.27 68.4997 29.4 68.3997 29.5C68.2997 29.6 68.1597 29.65 67.9797 29.65ZM70.0176 36V28.6H70.7676V36H70.0176ZM75.2464 36L75.0064 35.42L77.3664 32.77C77.4797 32.6433 77.5964 32.5 77.7164 32.34C77.8431 32.18 77.9597 32.0133 78.0664 31.84C78.1797 31.66 78.2697 31.4833 78.3364 31.31C78.4031 31.1367 78.4364 30.9667 78.4364 30.8C78.4364 30.5533 78.3831 30.3467 78.2764 30.18C78.1697 30.0067 78.0164 29.8733 77.8164 29.78C77.6231 29.6867 77.3964 29.64 77.1364 29.64C76.9097 29.64 76.6864 29.6933 76.4664 29.8C76.2464 29.9067 76.0464 30.07 75.8664 30.29C75.6864 30.51 75.5464 30.79 75.4464 31.13L74.8264 30.76C74.9464 30.3533 75.1231 30.0133 75.3564 29.74C75.5897 29.46 75.8664 29.25 76.1864 29.11C76.5064 28.97 76.8497 28.9 77.2164 28.9C77.6031 28.9 77.9497 28.98 78.2564 29.14C78.5631 29.2933 78.8064 29.5133 78.9864 29.8C79.1664 30.08 79.2564 30.4033 79.2564 30.77C79.2564 30.93 79.2364 31.09 79.1964 31.25C79.1631 31.41 79.1097 31.57 79.0364 31.73C78.9631 31.89 78.8731 32.0533 78.7664 32.22C78.6664 32.3867 78.5464 32.5567 78.4064 32.73C78.2731 32.9033 78.1231 33.0833 77.9564 33.27L75.9464 35.51L75.8264 35.25H79.4764V36H75.2464ZM82.8549 36.1C82.3083 36.1 81.8416 35.9567 81.4549 35.67C81.0749 35.3833 80.7816 34.9733 80.5749 34.44C80.3749 33.9 80.2749 33.2533 80.2749 32.5C80.2749 31.7467 80.3749 31.1033 80.5749 30.57C80.7816 30.03 81.0749 29.6167 81.4549 29.33C81.8416 29.0433 82.3083 28.9 82.8549 28.9C83.3949 28.9 83.8583 29.0433 84.2449 29.33C84.6316 29.6167 84.9249 30.03 85.1249 30.57C85.3316 31.1033 85.4349 31.7467 85.4349 32.5C85.4349 33.2533 85.3316 33.9 85.1249 34.44C84.9249 34.9733 84.6316 35.3833 84.2449 35.67C83.8583 35.9567 83.3949 36.1 82.8549 36.1ZM82.8549 35.37C83.4283 35.37 83.8683 35.12 84.1749 34.62C84.4883 34.12 84.6449 33.4133 84.6449 32.5C84.6449 31.5867 84.4883 30.88 84.1749 30.38C83.8683 29.88 83.4283 29.63 82.8549 29.63C82.2749 29.63 81.8283 29.88 81.5149 30.38C81.2083 30.88 81.0549 31.5867 81.0549 32.5C81.0549 33.4133 81.2083 34.12 81.5149 34.62C81.8283 35.12 82.2749 35.37 82.8549 35.37ZM86.748 37.65L86.468 37.29C86.6813 37.1633 86.848 37.0267 86.968 36.88C87.088 36.7333 87.148 36.5933 87.148 36.46C87.148 36.3867 87.1346 36.3167 87.108 36.25C87.0813 36.1833 87.0146 36.1 86.908 36C86.8146 35.9133 86.7446 35.83 86.698 35.75C86.658 35.67 86.638 35.5867 86.638 35.5C86.638 35.3667 86.6846 35.26 86.778 35.18C86.8713 35.0933 86.9946 35.05 87.148 35.05C87.3013 35.05 87.4346 35.09 87.548 35.17C87.6613 35.25 87.748 35.3633 87.808 35.51C87.8746 35.65 87.908 35.8167 87.908 36.01C87.908 36.19 87.8813 36.3567 87.828 36.51C87.7746 36.67 87.698 36.82 87.598 36.96C87.498 37.1 87.378 37.2267 87.238 37.34C87.098 37.4533 86.9346 37.5567 86.748 37.65ZM93.2809 35.66V29.62L93.5709 29.84L92.2709 30.62L92.0409 29.92L93.7709 28.9H94.0709V35.66H93.2809ZM92.2509 36V35.24H95.1209V36H92.2509ZM96.931 36.1C96.751 36.1 96.611 36.0467 96.511 35.94C96.4177 35.8333 96.371 35.68 96.371 35.48C96.371 35.3 96.421 35.1533 96.521 35.04C96.6277 34.92 96.7643 34.86 96.931 34.86C97.111 34.86 97.2477 34.9167 97.341 35.03C97.441 35.1367 97.491 35.2867 97.491 35.48C97.491 35.6667 97.4377 35.8167 97.331 35.93C97.231 36.0433 97.0977 36.1 96.931 36.1ZM96.931 31.91C96.751 31.91 96.611 31.8567 96.511 31.75C96.4177 31.6433 96.371 31.49 96.371 31.29C96.371 31.11 96.421 30.9633 96.521 30.85C96.6277 30.73 96.7643 30.67 96.931 30.67C97.111 30.67 97.2477 30.7267 97.341 30.84C97.441 30.9467 97.491 31.0967 97.491 31.29C97.491 31.4767 97.4377 31.6267 97.331 31.74C97.231 31.8533 97.0977 31.91 96.931 31.91ZM100.626 36.1C100.133 36.1 99.6964 35.99 99.3164 35.77C98.9431 35.5433 98.5931 35.16 98.2664 34.62L98.9064 34.22C99.0864 34.5067 99.2697 34.7367 99.4564 34.91C99.6497 35.0767 99.8464 35.1967 100.046 35.27C100.246 35.3433 100.46 35.38 100.686 35.38C100.966 35.38 101.223 35.3133 101.456 35.18C101.69 35.04 101.876 34.8533 102.016 34.62C102.156 34.38 102.226 34.1133 102.226 33.82C102.226 33.52 102.163 33.2567 102.036 33.03C101.91 32.8033 101.733 32.6267 101.506 32.5C101.286 32.3733 101.03 32.31 100.736 32.31C100.63 32.31 100.513 32.3233 100.386 32.35C100.266 32.37 100.133 32.4133 99.9864 32.48C99.8464 32.54 99.6931 32.63 99.5264 32.75L99.2964 32.13L101.766 29.44L101.936 29.73H98.7564V29H102.536L102.736 29.4L100.336 31.96L100.136 31.76C100.223 31.7067 100.326 31.6633 100.446 31.63C100.566 31.59 100.686 31.57 100.806 31.57C101.113 31.57 101.4 31.6267 101.666 31.74C101.933 31.8533 102.163 32.0133 102.356 32.22C102.556 32.42 102.713 32.6533 102.826 32.92C102.94 33.1867 102.996 33.4767 102.996 33.79C102.996 34.2233 102.893 34.6167 102.686 34.97C102.48 35.3167 102.196 35.5933 101.836 35.8C101.476 36 101.073 36.1 100.626 36.1ZM105.899 36L105.859 35.9L107.899 31.66L107.969 32.14C107.836 32.3733 107.693 32.58 107.539 32.76C107.386 32.9333 107.219 33.08 107.039 33.2C106.866 33.32 106.683 33.4133 106.489 33.48C106.296 33.54 106.096 33.57 105.889 33.57C105.489 33.57 105.123 33.4667 104.789 33.26C104.463 33.0533 104.199 32.78 103.999 32.44C103.806 32.1 103.709 31.7233 103.709 31.31C103.709 30.85 103.816 30.4367 104.029 30.07C104.243 29.7033 104.533 29.4167 104.899 29.21C105.266 28.9967 105.673 28.89 106.119 28.89C106.453 28.89 106.759 28.95 107.039 29.07C107.326 29.19 107.576 29.3567 107.789 29.57C108.009 29.7833 108.179 30.0333 108.299 30.32C108.419 30.6 108.479 30.9033 108.479 31.23C108.479 31.4233 108.453 31.6367 108.399 31.87C108.353 32.0967 108.283 32.34 108.189 32.6C108.096 32.8533 107.989 33.12 107.869 33.4C107.749 33.68 107.619 33.9667 107.479 34.26L106.649 36H105.899ZM106.059 32.83C106.359 32.83 106.629 32.76 106.869 32.62C107.109 32.4733 107.299 32.28 107.439 32.04C107.579 31.8 107.649 31.5333 107.649 31.24C107.649 30.94 107.579 30.6667 107.439 30.42C107.306 30.1733 107.119 29.98 106.879 29.84C106.639 29.7 106.369 29.63 106.069 29.63C105.776 29.63 105.513 29.7 105.279 29.84C105.046 29.98 104.859 30.17 104.719 30.41C104.586 30.65 104.519 30.9233 104.519 31.23C104.519 31.5233 104.586 31.79 104.719 32.03C104.859 32.27 105.046 32.4633 105.279 32.61C105.513 32.7567 105.773 32.83 106.059 32.83ZM111.91 36L114.59 29H115.48L118.14 36H117.29L115.58 31.46C115.533 31.3333 115.48 31.1867 115.42 31.02C115.367 30.8467 115.307 30.67 115.24 30.49C115.18 30.3033 115.12 30.1233 115.06 29.95C115.007 29.7767 114.957 29.6233 114.91 29.49H115.11C115.057 29.6567 115 29.8267 114.94 30C114.887 30.1667 114.83 30.3367 114.77 30.51C114.71 30.6767 114.65 30.8433 114.59 31.01C114.53 31.1767 114.47 31.3433 114.41 31.51L112.71 36H111.91ZM113.05 34.07L113.34 33.31H116.65L116.97 34.07H113.05ZM119.419 36V29H120.179L122.869 33.37L122.509 33.36L125.229 29H125.939V36H125.159V32.8C125.159 32.2 125.169 31.66 125.189 31.18C125.209 30.7 125.245 30.2233 125.299 29.75L125.439 30.03L122.929 33.97H122.389L119.949 30.08L120.059 29.75C120.112 30.1967 120.149 30.6567 120.169 31.13C120.189 31.5967 120.199 32.1533 120.199 32.8V36H119.419Z" fill="white"/>
<path d="M51.372 19V9.2H55.544C56.104 9.2 56.6173 9.34 57.084 9.62C57.56 9.89067 57.938 10.264 58.218 10.74C58.498 11.2067 58.638 11.734 58.638 12.322C58.638 12.854 58.498 13.3487 58.218 13.806C57.938 14.2633 57.5647 14.632 57.098 14.912C56.6313 15.1827 56.1133 15.318 55.544 15.318H52.884V19H51.372ZM57.196 19L54.704 14.576L56.258 14.226L59.03 19.014L57.196 19ZM52.884 13.862H55.684C55.9547 13.862 56.1973 13.7967 56.412 13.666C56.6267 13.526 56.7947 13.3393 56.916 13.106C57.0373 12.8633 57.098 12.5973 57.098 12.308C57.098 11.9813 57.0187 11.6967 56.86 11.454C56.7107 11.202 56.496 11.006 56.216 10.866C55.9453 10.726 55.6373 10.656 55.292 10.656H52.884V13.862ZM63.8989 19.14C63.1429 19.14 62.4709 18.9813 61.8829 18.664C61.3043 18.3373 60.8469 17.894 60.5109 17.334C60.1843 16.774 60.0209 16.13 60.0209 15.402C60.0209 14.8233 60.1143 14.296 60.3009 13.82C60.4876 13.344 60.7443 12.9333 61.0709 12.588C61.4069 12.2333 61.8036 11.9627 62.2609 11.776C62.7276 11.58 63.2316 11.482 63.7729 11.482C64.2489 11.482 64.6923 11.5753 65.1029 11.762C65.5136 11.9393 65.8683 12.1867 66.1669 12.504C66.4749 12.8213 66.7083 13.1993 66.8669 13.638C67.0349 14.0673 67.1143 14.5387 67.1049 15.052L67.0909 15.668H61.0849L60.7629 14.52H65.8449L65.6349 14.758V14.422C65.6069 14.114 65.5043 13.8387 65.3269 13.596C65.1496 13.3533 64.9256 13.162 64.6549 13.022C64.3843 12.882 64.0903 12.812 63.7729 12.812C63.2689 12.812 62.8443 12.91 62.4989 13.106C62.1536 13.2927 61.8923 13.5727 61.7149 13.946C61.5376 14.31 61.4489 14.7627 61.4489 15.304C61.4489 15.8173 61.5563 16.2653 61.7709 16.648C61.9856 17.0213 62.2889 17.3107 62.6809 17.516C63.0729 17.7213 63.5256 17.824 64.0389 17.824C64.4029 17.824 64.7389 17.7633 65.0469 17.642C65.3643 17.5207 65.7049 17.3013 66.0689 16.984L66.7969 18.006C66.5729 18.23 66.2976 18.426 65.9709 18.594C65.6536 18.762 65.3129 18.8973 64.9489 19C64.5943 19.0933 64.2443 19.14 63.8989 19.14ZM71.7941 19.14C71.1127 19.14 70.5014 18.972 69.9601 18.636C69.4281 18.3 69.0034 17.8427 68.6861 17.264C68.3781 16.6853 68.2241 16.0367 68.2241 15.318C68.2241 14.5993 68.3781 13.9507 68.6861 13.372C69.0034 12.7933 69.4281 12.336 69.9601 12C70.5014 11.664 71.1127 11.496 71.7941 11.496C72.4474 11.496 73.0401 11.6313 73.5721 11.902C74.1134 12.1633 74.5241 12.5227 74.8041 12.98L74.0061 13.96C73.8567 13.7453 73.6654 13.5493 73.4321 13.372C73.1987 13.1947 72.9514 13.0547 72.6901 12.952C72.4287 12.8493 72.1767 12.798 71.9341 12.798C71.4861 12.798 71.0847 12.91 70.7301 13.134C70.3847 13.3487 70.1094 13.6473 69.9041 14.03C69.6987 14.4127 69.5961 14.842 69.5961 15.318C69.5961 15.794 69.7034 16.2233 69.9181 16.606C70.1327 16.9793 70.4174 17.278 70.7721 17.502C71.1267 17.726 71.5187 17.838 71.9481 17.838C72.2001 17.838 72.4427 17.796 72.6761 17.712C72.9187 17.628 73.1521 17.502 73.3761 17.334C73.6001 17.166 73.8101 16.9607 74.0061 16.718L74.8041 17.698C74.5054 18.118 74.0761 18.4633 73.5161 18.734C72.9654 19.0047 72.3914 19.14 71.7941 19.14ZM79.5943 19.14C78.8383 19.14 78.1663 18.9813 77.5783 18.664C76.9996 18.3373 76.5423 17.894 76.2063 17.334C75.8796 16.774 75.7163 16.13 75.7163 15.402C75.7163 14.8233 75.8096 14.296 75.9963 13.82C76.1829 13.344 76.4396 12.9333 76.7663 12.588C77.1023 12.2333 77.4989 11.9627 77.9563 11.776C78.4229 11.58 78.9269 11.482 79.4683 11.482C79.9443 11.482 80.3876 11.5753 80.7983 11.762C81.2089 11.9393 81.5636 12.1867 81.8623 12.504C82.1703 12.8213 82.4036 13.1993 82.5623 13.638C82.7303 14.0673 82.8096 14.5387 82.8003 15.052L82.7863 15.668H76.7803L76.4583 14.52H81.5403L81.3303 14.758V14.422C81.3023 14.114 81.1996 13.8387 81.0223 13.596C80.8449 13.3533 80.6209 13.162 80.3503 13.022C80.0796 12.882 79.7856 12.812 79.4683 12.812C78.9643 12.812 78.5396 12.91 78.1943 13.106C77.8489 13.2927 77.5876 13.5727 77.4103 13.946C77.2329 14.31 77.1443 14.7627 77.1443 15.304C77.1443 15.8173 77.2516 16.2653 77.4663 16.648C77.6809 17.0213 77.9843 17.3107 78.3763 17.516C78.7683 17.7213 79.2209 17.824 79.7343 17.824C80.0983 17.824 80.4343 17.7633 80.7423 17.642C81.0596 17.5207 81.4003 17.3013 81.7643 16.984L82.4923 18.006C82.2683 18.23 81.9929 18.426 81.6663 18.594C81.3489 18.762 81.0083 18.8973 80.6443 19C80.2896 19.0933 79.9396 19.14 79.5943 19.14ZM84.6054 19V11.65H86.0474V19H84.6054ZM85.3054 10.026C84.9974 10.026 84.7594 9.94667 84.5914 9.788C84.4234 9.62933 84.3394 9.40533 84.3394 9.116C84.3394 8.84533 84.4234 8.626 84.5914 8.458C84.7687 8.29 85.0067 8.206 85.3054 8.206C85.6134 8.206 85.8514 8.28533 86.0194 8.444C86.1874 8.60267 86.2714 8.82667 86.2714 9.116C86.2714 9.38667 86.1827 9.606 86.0054 9.774C85.8374 9.942 85.604 10.026 85.3054 10.026ZM90.6719 19L87.5639 11.65H89.1179L91.3579 17.152L91.0919 17.278L93.4859 11.65H94.9699L91.7079 19H90.6719ZM99.5142 19.14C98.7582 19.14 98.0862 18.9813 97.4982 18.664C96.9195 18.3373 96.4622 17.894 96.1262 17.334C95.7995 16.774 95.6362 16.13 95.6362 15.402C95.6362 14.8233 95.7295 14.296 95.9162 13.82C96.1028 13.344 96.3595 12.9333 96.6862 12.588C97.0222 12.2333 97.4188 11.9627 97.8762 11.776C98.3428 11.58 98.8468 11.482 99.3882 11.482C99.8642 11.482 100.308 11.5753 100.718 11.762C101.129 11.9393 101.484 12.1867 101.782 12.504C102.09 12.8213 102.324 13.1993 102.482 13.638C102.65 14.0673 102.73 14.5387 102.72 15.052L102.706 15.668H96.7002L96.3782 14.52H101.46L101.25 14.758V14.422C101.222 14.114 101.12 13.8387 100.942 13.596C100.765 13.3533 100.541 13.162 100.27 13.022C99.9995 12.882 99.7055 12.812 99.3882 12.812C98.8842 12.812 98.4595 12.91 98.1142 13.106C97.7688 13.2927 97.5075 13.5727 97.3302 13.946C97.1528 14.31 97.0642 14.7627 97.0642 15.304C97.0642 15.8173 97.1715 16.2653 97.3862 16.648C97.6008 17.0213 97.9042 17.3107 98.2962 17.516C98.6882 17.7213 99.1408 17.824 99.6542 17.824C100.018 17.824 100.354 17.7633 100.662 17.642C100.98 17.5207 101.32 17.3013 101.684 16.984L102.412 18.006C102.188 18.23 101.913 18.426 101.586 18.594C101.269 18.762 100.928 18.8973 100.564 19C100.21 19.0933 99.8595 19.14 99.5142 19.14ZM107.353 19.14C106.681 19.14 106.079 18.9767 105.547 18.65C105.025 18.314 104.609 17.8613 104.301 17.292C103.993 16.7133 103.839 16.0553 103.839 15.318C103.839 14.5807 103.989 13.9273 104.287 13.358C104.595 12.7793 105.011 12.3267 105.533 12C106.056 11.664 106.649 11.496 107.311 11.496C107.675 11.496 108.025 11.5567 108.361 11.678C108.707 11.79 109.015 11.9487 109.285 12.154C109.556 12.35 109.766 12.5693 109.915 12.812C110.074 13.0453 110.153 13.2833 110.153 13.526L109.733 13.554V8.64H111.175V19H109.733V17.25H110.013C110.013 17.474 109.939 17.698 109.789 17.922C109.64 18.1367 109.439 18.3373 109.187 18.524C108.945 18.7107 108.66 18.86 108.333 18.972C108.016 19.084 107.689 19.14 107.353 19.14ZM107.549 17.894C107.988 17.894 108.375 17.782 108.711 17.558C109.047 17.334 109.309 17.0307 109.495 16.648C109.691 16.256 109.789 15.8127 109.789 15.318C109.789 14.8233 109.691 14.3847 109.495 14.002C109.309 13.61 109.047 13.302 108.711 13.078C108.375 12.854 107.988 12.742 107.549 12.742C107.111 12.742 106.723 12.854 106.387 13.078C106.051 13.302 105.785 13.61 105.589 14.002C105.403 14.3847 105.309 14.8233 105.309 15.318C105.309 15.8127 105.403 16.256 105.589 16.648C105.785 17.0307 106.051 17.334 106.387 17.558C106.723 17.782 107.111 17.894 107.549 17.894Z" fill="white"/>
<path d="M30 20.5L26.8 24.2143M20.8333 16.9993C20.1667 16.3149 18.9942 15.8386 17.9167 15.8089L20.8333 16.9993ZM15 23.4993C15.6267 24.3582 16.7917 24.8485 17.9167 24.8903L15 23.4993ZM17.9167 15.8079C16.6342 15.7726 15.4858 16.3688 15.4858 17.9994C15.4858 20.9986 20.8333 19.499 20.8333 22.4992C20.8333 24.2096 19.41 24.9451 17.9167 24.8903V15.8079ZM17.9167 15.8079V14V15.8079ZM17.9167 24.8912V27V24.8912ZM23.3333 20.5H30H23.3333ZM30 20.5L26.8 16.7857L30 20.5Z" stroke="#47DBB8" stroke-width="1.5" stroke-linecap="round" stroke-linejoin="round"/>
</svg>
