<svg width="302" height="44" viewBox="0 0 302 44" fill="none" xmlns="http://www.w3.org/2000/svg">
<path d="M0 15C0 6.71573 6.71573 0 15 0H287C295.284 0 302 6.71573 302 15V29C302 37.2843 295.284 44 287 44H15C6.71572 44 0 37.2843 0 29V15Z" fill="#2E3047" fill-opacity="0.7"/>
<path d="M17.9167 16.8089C18.9942 16.8386 20.1667 17.3149 20.8333 17.9993L17.9167 16.8089ZM17.9167 16.8089C16.6342 16.7736 15.4858 17.3688 15.4858 18.9994C15.4858 21.9986 20.8333 20.499 20.8333 23.4992C20.8333 25.2096 19.41 25.9451 17.9167 25.8903M17.9167 16.8089V25.8903M17.9167 16.8089V15M17.9167 25.8903C16.7917 25.8485 15.6267 25.3582 15 24.4993L17.9167 25.8903ZM17.9167 25.8903V28M30 21.5H23.3333M23.3333 21.5L26.5333 17.7857M23.3333 21.5L26.5333 25.2143" stroke="#FFAB45" stroke-width="1.5" stroke-linecap="round" stroke-linejoin="round"/>
<path d="M158.716 18.144V16.944H163.228V18.144H158.716ZM173.498 22.16C172.623 22.16 171.876 21.9307 171.258 21.472C170.65 21.0133 170.18 20.3573 169.85 19.504C169.53 18.64 169.37 17.6053 169.37 16.4C169.37 15.1947 169.53 14.1653 169.85 13.312C170.18 12.448 170.65 11.7867 171.258 11.328C171.876 10.8693 172.623 10.64 173.498 10.64C174.362 10.64 175.103 10.8693 175.722 11.328C176.34 11.7867 176.81 12.448 177.13 13.312C177.46 14.1653 177.626 15.1947 177.626 16.4C177.626 17.6053 177.46 18.64 177.13 19.504C176.81 20.3573 176.34 21.0133 175.722 21.472C175.103 21.9307 174.362 22.16 173.498 22.16ZM173.498 20.992C174.415 20.992 175.119 20.592 175.61 19.792C176.111 18.992 176.362 17.8613 176.362 16.4C176.362 14.9387 176.111 13.808 175.61 13.008C175.119 12.208 174.415 11.808 173.498 11.808C172.57 11.808 171.855 12.208 171.354 13.008C170.863 13.808 170.618 14.9387 170.618 16.4C170.618 17.8613 170.863 18.992 171.354 19.792C171.855 20.592 172.57 20.992 173.498 20.992ZM180.222 22.16C179.934 22.16 179.71 22.0747 179.55 21.904C179.401 21.7333 179.326 21.488 179.326 21.168C179.326 20.88 179.406 20.6453 179.566 20.464C179.737 20.272 179.956 20.176 180.222 20.176C180.51 20.176 180.729 20.2667 180.878 20.448C181.038 20.6187 181.118 20.8587 181.118 21.168C181.118 21.4667 181.033 21.7067 180.862 21.888C180.702 22.0693 180.489 22.16 180.222 22.16ZM186.935 22.16C186.06 22.16 185.314 21.9307 184.695 21.472C184.087 21.0133 183.618 20.3573 183.287 19.504C182.967 18.64 182.807 17.6053 182.807 16.4C182.807 15.1947 182.967 14.1653 183.287 13.312C183.618 12.448 184.087 11.7867 184.695 11.328C185.314 10.8693 186.06 10.64 186.935 10.64C187.799 10.64 188.54 10.8693 189.159 11.328C189.778 11.7867 190.247 12.448 190.567 13.312C190.898 14.1653 191.063 15.1947 191.063 16.4C191.063 17.6053 190.898 18.64 190.567 19.504C190.247 20.3573 189.778 21.0133 189.159 21.472C188.54 21.9307 187.799 22.16 186.935 22.16ZM186.935 20.992C187.852 20.992 188.556 20.592 189.047 19.792C189.548 18.992 189.799 17.8613 189.799 16.4C189.799 14.9387 189.548 13.808 189.047 13.008C188.556 12.208 187.852 11.808 186.935 11.808C186.007 11.808 185.292 12.208 184.791 13.008C184.3 13.808 184.055 14.9387 184.055 16.4C184.055 17.8613 184.3 18.992 184.791 19.792C185.292 20.592 186.007 20.992 186.935 20.992ZM195.932 22.16C195.143 22.16 194.444 21.984 193.836 21.632C193.239 21.2693 192.679 20.656 192.156 19.792L193.18 19.152C193.468 19.6107 193.761 19.9787 194.06 20.256C194.369 20.5227 194.684 20.7147 195.004 20.832C195.324 20.9493 195.665 21.008 196.028 21.008C196.476 21.008 196.887 20.9013 197.26 20.688C197.633 20.464 197.932 20.1653 198.156 19.792C198.38 19.408 198.492 18.9813 198.492 18.512C198.492 18.032 198.391 17.6107 198.188 17.248C197.985 16.8853 197.703 16.6027 197.34 16.4C196.988 16.1973 196.577 16.096 196.108 16.096C195.937 16.096 195.751 16.1173 195.548 16.16C195.356 16.192 195.143 16.2613 194.908 16.368C194.684 16.464 194.439 16.608 194.172 16.8L193.804 15.808L197.756 11.504L198.028 11.968H192.94V10.8H198.988L199.308 11.44L195.468 15.536L195.148 15.216C195.287 15.1307 195.452 15.0613 195.644 15.008C195.836 14.944 196.028 14.912 196.22 14.912C196.711 14.912 197.169 15.0027 197.596 15.184C198.023 15.3653 198.391 15.6213 198.7 15.952C199.02 16.272 199.271 16.6453 199.452 17.072C199.633 17.4987 199.724 17.9627 199.724 18.464C199.724 19.1573 199.559 19.7867 199.228 20.352C198.897 20.9067 198.444 21.3493 197.868 21.68C197.292 22 196.647 22.16 195.932 22.16ZM203.617 21.456V11.792L204.081 12.144L202.001 13.392L201.633 12.272L204.401 10.64H204.881V21.456H203.617ZM201.969 22V20.784H206.561V22H201.969ZM212.529 22.16C211.654 22.16 210.907 21.9307 210.289 21.472C209.681 21.0133 209.211 20.3573 208.881 19.504C208.561 18.64 208.401 17.6053 208.401 16.4C208.401 15.1947 208.561 14.1653 208.881 13.312C209.211 12.448 209.681 11.7867 210.289 11.328C210.907 10.8693 211.654 10.64 212.529 10.64C213.393 10.64 214.134 10.8693 214.753 11.328C215.371 11.7867 215.841 12.448 216.161 13.312C216.491 14.1653 216.657 15.1947 216.657 16.4C216.657 17.6053 216.491 18.64 216.161 19.504C215.841 20.3573 215.371 21.0133 214.753 21.472C214.134 21.9307 213.393 22.16 212.529 22.16ZM212.529 20.992C213.446 20.992 214.15 20.592 214.641 19.792C215.142 18.992 215.393 17.8613 215.393 16.4C215.393 14.9387 215.142 13.808 214.641 13.008C214.15 12.208 213.446 11.808 212.529 11.808C211.601 11.808 210.886 12.208 210.385 13.008C209.894 13.808 209.649 14.9387 209.649 16.4C209.649 17.8613 209.894 18.992 210.385 19.792C210.886 20.592 211.601 20.992 212.529 20.992ZM218.918 22L218.534 21.072L222.31 16.832C222.491 16.6293 222.678 16.4 222.87 16.144C223.072 15.888 223.259 15.6213 223.43 15.344C223.611 15.056 223.755 14.7733 223.862 14.496C223.968 14.2187 224.022 13.9467 224.022 13.68C224.022 13.2853 223.936 12.9547 223.766 12.688C223.595 12.4107 223.35 12.1973 223.03 12.048C222.72 11.8987 222.358 11.824 221.942 11.824C221.579 11.824 221.222 11.9093 220.87 12.08C220.518 12.2507 220.198 12.512 219.91 12.864C219.622 13.216 219.398 13.664 219.238 14.208L218.246 13.616C218.438 12.9653 218.72 12.4213 219.094 11.984C219.467 11.536 219.91 11.2 220.422 10.976C220.934 10.752 221.483 10.64 222.07 10.64C222.688 10.64 223.243 10.768 223.734 11.024C224.224 11.2693 224.614 11.6213 224.902 12.08C225.19 12.528 225.334 13.0453 225.334 13.632C225.334 13.888 225.302 14.144 225.238 14.4C225.184 14.656 225.099 14.912 224.982 15.168C224.864 15.424 224.72 15.6853 224.55 15.952C224.39 16.2187 224.198 16.4907 223.974 16.768C223.76 17.0453 223.52 17.3333 223.254 17.632L220.038 21.216L219.846 20.8H225.686V22H218.918ZM231.963 22V12.288L232.315 12.4L227.675 18.064L227.547 17.776H235.131V18.96H227.083L226.491 17.776L232.203 10.8H233.179V22H231.963ZM240.701 22.16C239.826 22.16 239.079 21.9307 238.461 21.472C237.853 21.0133 237.383 20.3573 237.053 19.504C236.733 18.64 236.573 17.6053 236.573 16.4C236.573 15.1947 236.733 14.1653 237.053 13.312C237.383 12.448 237.853 11.7867 238.461 11.328C239.079 10.8693 239.826 10.64 240.701 10.64C241.565 10.64 242.306 10.8693 242.925 11.328C243.543 11.7867 244.013 12.448 244.333 13.312C244.663 14.1653 244.829 15.1947 244.829 16.4C244.829 17.6053 244.663 18.64 244.333 19.504C244.013 20.3573 243.543 21.0133 242.925 21.472C242.306 21.9307 241.565 22.16 240.701 22.16ZM240.701 20.992C241.618 20.992 242.322 20.592 242.813 19.792C243.314 18.992 243.565 17.8613 243.565 16.4C243.565 14.9387 243.314 13.808 242.813 13.008C242.322 12.208 241.618 11.808 240.701 11.808C239.773 11.808 239.058 12.208 238.557 13.008C238.066 13.808 237.821 14.9387 237.821 16.4C237.821 17.8613 238.066 18.992 238.557 19.792C239.058 20.592 239.773 20.992 240.701 20.992ZM248.914 21.456V11.792L249.378 12.144L247.298 13.392L246.93 12.272L249.698 10.64H250.178V21.456H248.914ZM247.266 22V20.784H251.858V22H247.266ZM259.062 22V10.8H260.31V20.784H265.686V22H259.062ZM268.813 22V12.016H265.613V10.8H273.389V12.016H270.061V22H268.813ZM279.655 22.16C278.855 22.16 278.119 22.0213 277.447 21.744C276.775 21.456 276.194 21.056 275.703 20.544C275.213 20.0213 274.829 19.408 274.551 18.704C274.285 18 274.151 17.232 274.151 16.4C274.151 15.5787 274.285 14.8267 274.551 14.144C274.829 13.4507 275.218 12.848 275.719 12.336C276.221 11.8133 276.802 11.4133 277.463 11.136C278.125 10.8587 278.85 10.72 279.639 10.72C280.162 10.72 280.679 10.8053 281.191 10.976C281.703 11.136 282.173 11.36 282.599 11.648C283.037 11.936 283.394 12.2667 283.671 12.64L282.807 13.536C282.541 13.216 282.231 12.9387 281.879 12.704C281.538 12.4693 281.175 12.288 280.791 12.16C280.407 12.032 280.023 11.968 279.639 11.968C279.042 11.968 278.482 12.08 277.959 12.304C277.447 12.5173 277.005 12.8213 276.631 13.216C276.258 13.6107 275.965 14.08 275.751 14.624C275.549 15.168 275.447 15.76 275.447 16.4C275.447 17.0613 275.549 17.6693 275.751 18.224C275.965 18.7787 276.263 19.2587 276.647 19.664C277.042 20.0587 277.501 20.368 278.023 20.592C278.557 20.8053 279.149 20.912 279.799 20.912C280.183 20.912 280.567 20.8587 280.951 20.752C281.335 20.6347 281.687 20.4747 282.007 20.272C282.327 20.0693 282.599 19.84 282.823 19.584L283.463 20.624C283.218 20.9227 282.887 21.1893 282.471 21.424C282.066 21.648 281.618 21.8293 281.127 21.968C280.637 22.096 280.146 22.16 279.655 22.16Z" fill="#FFAB45"/>
<path d="M252.594 35.1C252.1 35.1 251.67 34.9867 251.304 34.76C250.944 34.5333 250.604 34.1533 250.284 33.62L251.124 33.09C251.29 33.3367 251.454 33.54 251.614 33.7C251.78 33.8533 251.95 33.9667 252.124 34.04C252.297 34.1133 252.48 34.15 252.674 34.15C252.907 34.15 253.124 34.0933 253.324 33.98C253.524 33.86 253.684 33.6967 253.804 33.49C253.924 33.2833 253.984 33.05 253.984 32.79C253.984 32.53 253.937 32.31 253.844 32.13C253.75 31.9433 253.614 31.8033 253.434 31.71C253.254 31.61 253.04 31.56 252.794 31.56C252.68 31.56 252.56 31.5733 252.434 31.6C252.314 31.62 252.184 31.6533 252.044 31.7C251.904 31.74 251.75 31.7933 251.584 31.86L251.284 31.07L253.444 28.69L253.654 29H250.674V28H254.684L254.884 28.4L252.594 30.94L252.344 30.68C252.397 30.6533 252.484 30.63 252.604 30.61C252.73 30.5833 252.834 30.57 252.914 30.57C253.207 30.57 253.48 30.6267 253.734 30.74C253.994 30.8467 254.217 31 254.404 31.2C254.597 31.3933 254.747 31.6233 254.854 31.89C254.967 32.15 255.024 32.43 255.024 32.73C255.024 33.1833 254.914 33.59 254.694 33.95C254.48 34.3033 254.19 34.5833 253.824 34.79C253.457 34.9967 253.047 35.1 252.594 35.1ZM258.897 35V29.36L259.147 29.42L256.847 32.23L256.807 32.11H261.157V33.1H256.137L255.677 32.2L259.107 28H259.937V35H258.897ZM268.081 35.06C267.541 35.06 267.057 34.9433 266.631 34.71C266.204 34.47 265.867 34.1433 265.621 33.73C265.381 33.31 265.261 32.8367 265.261 32.31V27.99H266.341V32.22C266.341 32.56 266.421 32.8667 266.581 33.14C266.741 33.4067 266.951 33.62 267.211 33.78C267.477 33.94 267.767 34.02 268.081 34.02C268.414 34.02 268.714 33.94 268.981 33.78C269.254 33.62 269.471 33.4067 269.631 33.14C269.791 32.8667 269.871 32.56 269.871 32.22V27.99H270.901V32.31C270.901 32.8367 270.777 33.31 270.531 33.73C270.291 34.1433 269.957 34.47 269.531 34.71C269.104 34.9433 268.621 35.06 268.081 35.06ZM274.825 35.1C274.445 35.1 274.092 35.05 273.765 34.95C273.445 34.85 273.152 34.7 272.885 34.5C272.625 34.2933 272.392 34.04 272.185 33.74L272.925 32.89C273.252 33.3567 273.565 33.68 273.865 33.86C274.165 34.04 274.522 34.13 274.935 34.13C275.189 34.13 275.419 34.09 275.625 34.01C275.832 33.93 275.995 33.82 276.115 33.68C276.235 33.54 276.295 33.38 276.295 33.2C276.295 33.08 276.275 32.9667 276.235 32.86C276.195 32.7533 276.132 32.6567 276.045 32.57C275.965 32.4833 275.859 32.4033 275.725 32.33C275.599 32.2567 275.449 32.1933 275.275 32.14C275.102 32.08 274.902 32.03 274.675 31.99C274.315 31.9167 274.002 31.82 273.735 31.7C273.469 31.58 273.245 31.43 273.065 31.25C272.885 31.07 272.752 30.8667 272.665 30.64C272.579 30.4067 272.535 30.1467 272.535 29.86C272.535 29.58 272.595 29.32 272.715 29.08C272.842 28.84 273.012 28.6333 273.225 28.46C273.445 28.28 273.702 28.1433 273.995 28.05C274.289 27.95 274.605 27.9 274.945 27.9C275.305 27.9 275.635 27.9467 275.935 28.04C276.235 28.1333 276.502 28.2733 276.735 28.46C276.969 28.64 277.162 28.8633 277.315 29.13L276.555 29.88C276.422 29.66 276.272 29.4767 276.105 29.33C275.939 29.1767 275.755 29.0633 275.555 28.99C275.355 28.91 275.142 28.87 274.915 28.87C274.655 28.87 274.429 28.91 274.235 28.99C274.042 29.07 273.889 29.1833 273.775 29.33C273.669 29.47 273.615 29.6367 273.615 29.83C273.615 29.97 273.642 30.1 273.695 30.22C273.749 30.3333 273.829 30.4367 273.935 30.53C274.049 30.6167 274.199 30.6967 274.385 30.77C274.572 30.8367 274.795 30.8967 275.055 30.95C275.422 31.03 275.749 31.1333 276.035 31.26C276.322 31.38 276.565 31.5233 276.765 31.69C276.965 31.8567 277.115 32.0433 277.215 32.25C277.322 32.4567 277.375 32.68 277.375 32.92C277.375 33.3667 277.272 33.7533 277.065 34.08C276.859 34.4067 276.565 34.66 276.185 34.84C275.805 35.0133 275.352 35.1 274.825 35.1ZM278.905 35V28H281.645C282.145 28 282.595 28.0833 282.995 28.25C283.402 28.4167 283.749 28.6567 284.035 28.97C284.322 29.2833 284.542 29.6533 284.695 30.08C284.849 30.5067 284.925 30.98 284.925 31.5C284.925 32.02 284.849 32.4967 284.695 32.93C284.542 33.3567 284.322 33.7267 284.035 34.04C283.755 34.3467 283.412 34.5833 283.005 34.75C282.599 34.9167 282.145 35 281.645 35H278.905ZM279.985 34.07L279.955 33.96H281.595C281.949 33.96 282.262 33.9033 282.535 33.79C282.815 33.6767 283.049 33.5167 283.235 33.31C283.429 33.0967 283.575 32.8367 283.675 32.53C283.775 32.2233 283.825 31.88 283.825 31.5C283.825 31.12 283.775 30.78 283.675 30.48C283.575 30.1733 283.429 29.9133 283.235 29.7C283.042 29.4867 282.809 29.3233 282.535 29.21C282.262 29.0967 281.949 29.04 281.595 29.04H279.925L279.985 28.95V34.07Z" fill="white"/>
<path d="M50.25 35L52.93 28H53.82L56.48 35H55.63L53.92 30.46C53.8733 30.3333 53.82 30.1867 53.76 30.02C53.7067 29.8467 53.6467 29.67 53.58 29.49C53.52 29.3033 53.46 29.1233 53.4 28.95C53.3467 28.7767 53.2967 28.6233 53.25 28.49H53.45C53.3967 28.6567 53.34 28.8267 53.28 29C53.2267 29.1667 53.17 29.3367 53.11 29.51C53.05 29.6767 52.99 29.8433 52.93 30.01C52.87 30.1767 52.81 30.3433 52.75 30.51L51.05 35H50.25ZM51.39 33.07L51.68 32.31H54.99L55.31 33.07H51.39ZM57.4585 37.2V29.78H58.2085L58.2285 31.05L58.0885 31.07C58.1485 30.8167 58.2785 30.5867 58.4785 30.38C58.6785 30.1667 58.9218 29.9967 59.2085 29.87C59.4952 29.7433 59.7985 29.68 60.1185 29.68C60.5852 29.68 61.0018 29.7967 61.3685 30.03C61.7418 30.2633 62.0385 30.5833 62.2585 30.99C62.4785 31.3967 62.5885 31.8633 62.5885 32.39C62.5885 32.91 62.4818 33.3733 62.2685 33.78C62.0552 34.1867 61.7618 34.51 61.3885 34.75C61.0152 34.9833 60.5952 35.1 60.1285 35.1C59.8018 35.1 59.4918 35.0333 59.1985 34.9C58.9052 34.7667 58.6552 34.5933 58.4485 34.38C58.2418 34.16 58.1052 33.9233 58.0385 33.67H58.2185V37.2H57.4585ZM60.0085 34.38C60.3618 34.38 60.6752 34.2933 60.9485 34.12C61.2218 33.9467 61.4385 33.71 61.5985 33.41C61.7585 33.11 61.8385 32.77 61.8385 32.39C61.8385 32.0033 61.7585 31.66 61.5985 31.36C61.4385 31.06 61.2218 30.8233 60.9485 30.65C60.6752 30.4767 60.3618 30.39 60.0085 30.39C59.6552 30.39 59.3385 30.4767 59.0585 30.65C58.7852 30.8167 58.5685 31.05 58.4085 31.35C58.2485 31.65 58.1685 31.9933 58.1685 32.38C58.1685 32.7667 58.2485 33.11 58.4085 33.41C58.5685 33.71 58.7852 33.9467 59.0585 34.12C59.3385 34.2933 59.6552 34.38 60.0085 34.38ZM63.6792 35V29.78H64.4292L64.4492 31.17L64.3692 30.98C64.4426 30.7467 64.5592 30.53 64.7192 30.33C64.8859 30.13 65.0826 29.97 65.3092 29.85C65.5359 29.73 65.7859 29.67 66.0592 29.67C66.1726 29.67 66.2792 29.68 66.3792 29.7C66.4792 29.7133 66.5626 29.7333 66.6292 29.76L66.4192 30.6C66.3326 30.56 66.2426 30.5333 66.1492 30.52C66.0626 30.5 65.9792 30.49 65.8992 30.49C65.6726 30.49 65.4692 30.53 65.2892 30.61C65.1092 30.69 64.9559 30.8033 64.8292 30.95C64.7026 31.09 64.6059 31.2533 64.5392 31.44C64.4726 31.6267 64.4392 31.8267 64.4392 32.04V35H63.6792ZM67.6097 35V29.78H68.3597V35H67.6097ZM67.9797 28.65C67.793 28.65 67.6497 28.6033 67.5497 28.51C67.4564 28.41 67.4097 28.2767 67.4097 28.11C67.4097 27.9433 67.4597 27.81 67.5597 27.71C67.6597 27.61 67.7997 27.56 67.9797 27.56C68.1597 27.56 68.2997 27.61 68.3997 27.71C68.4997 27.8033 68.5497 27.9367 68.5497 28.11C68.5497 28.27 68.4997 28.4 68.3997 28.5C68.2997 28.6 68.1597 28.65 67.9797 28.65ZM70.0176 35V27.6H70.7676V35H70.0176ZM75.2464 35L75.0064 34.42L77.3664 31.77C77.4797 31.6433 77.5964 31.5 77.7164 31.34C77.8431 31.18 77.9597 31.0133 78.0664 30.84C78.1797 30.66 78.2697 30.4833 78.3364 30.31C78.4031 30.1367 78.4364 29.9667 78.4364 29.8C78.4364 29.5533 78.3831 29.3467 78.2764 29.18C78.1697 29.0067 78.0164 28.8733 77.8164 28.78C77.6231 28.6867 77.3964 28.64 77.1364 28.64C76.9097 28.64 76.6864 28.6933 76.4664 28.8C76.2464 28.9067 76.0464 29.07 75.8664 29.29C75.6864 29.51 75.5464 29.79 75.4464 30.13L74.8264 29.76C74.9464 29.3533 75.1231 29.0133 75.3564 28.74C75.5897 28.46 75.8664 28.25 76.1864 28.11C76.5064 27.97 76.8497 27.9 77.2164 27.9C77.6031 27.9 77.9497 27.98 78.2564 28.14C78.5631 28.2933 78.8064 28.5133 78.9864 28.8C79.1664 29.08 79.2564 29.4033 79.2564 29.77C79.2564 29.93 79.2364 30.09 79.1964 30.25C79.1631 30.41 79.1097 30.57 79.0364 30.73C78.9631 30.89 78.8731 31.0533 78.7664 31.22C78.6664 31.3867 78.5464 31.5567 78.4064 31.73C78.2731 31.9033 78.1231 32.0833 77.9564 32.27L75.9464 34.51L75.8264 34.25H79.4764V35H75.2464ZM82.8549 35.1C82.3083 35.1 81.8416 34.9567 81.4549 34.67C81.0749 34.3833 80.7816 33.9733 80.5749 33.44C80.3749 32.9 80.2749 32.2533 80.2749 31.5C80.2749 30.7467 80.3749 30.1033 80.5749 29.57C80.7816 29.03 81.0749 28.6167 81.4549 28.33C81.8416 28.0433 82.3083 27.9 82.8549 27.9C83.3949 27.9 83.8583 28.0433 84.2449 28.33C84.6316 28.6167 84.9249 29.03 85.1249 29.57C85.3316 30.1033 85.4349 30.7467 85.4349 31.5C85.4349 32.2533 85.3316 32.9 85.1249 33.44C84.9249 33.9733 84.6316 34.3833 84.2449 34.67C83.8583 34.9567 83.3949 35.1 82.8549 35.1ZM82.8549 34.37C83.4283 34.37 83.8683 34.12 84.1749 33.62C84.4883 33.12 84.6449 32.4133 84.6449 31.5C84.6449 30.5867 84.4883 29.88 84.1749 29.38C83.8683 28.88 83.4283 28.63 82.8549 28.63C82.2749 28.63 81.8283 28.88 81.5149 29.38C81.2083 29.88 81.0549 30.5867 81.0549 31.5C81.0549 32.4133 81.2083 33.12 81.5149 33.62C81.8283 34.12 82.2749 34.37 82.8549 34.37ZM86.748 36.65L86.468 36.29C86.6813 36.1633 86.848 36.0267 86.968 35.88C87.088 35.7333 87.148 35.5933 87.148 35.46C87.148 35.3867 87.1346 35.3167 87.108 35.25C87.0813 35.1833 87.0146 35.1 86.908 35C86.8146 34.9133 86.7446 34.83 86.698 34.75C86.658 34.67 86.638 34.5867 86.638 34.5C86.638 34.3667 86.6846 34.26 86.778 34.18C86.8713 34.0933 86.9946 34.05 87.148 34.05C87.3013 34.05 87.4346 34.09 87.548 34.17C87.6613 34.25 87.748 34.3633 87.808 34.51C87.8746 34.65 87.908 34.8167 87.908 35.01C87.908 35.19 87.8813 35.3567 87.828 35.51C87.7746 35.67 87.698 35.82 87.598 35.96C87.498 36.1 87.378 36.2267 87.238 36.34C87.098 36.4533 86.9346 36.5567 86.748 36.65ZM92.1409 35L91.9009 34.42L94.2609 31.77C94.3743 31.6433 94.4909 31.5 94.6109 31.34C94.7376 31.18 94.8543 31.0133 94.9609 30.84C95.0743 30.66 95.1643 30.4833 95.2309 30.31C95.2976 30.1367 95.3309 29.9667 95.3309 29.8C95.3309 29.5533 95.2776 29.3467 95.1709 29.18C95.0643 29.0067 94.9109 28.8733 94.7109 28.78C94.5176 28.6867 94.2909 28.64 94.0309 28.64C93.8043 28.64 93.5809 28.6933 93.3609 28.8C93.1409 28.9067 92.9409 29.07 92.7609 29.29C92.5809 29.51 92.4409 29.79 92.3409 30.13L91.7209 29.76C91.8409 29.3533 92.0176 29.0133 92.2509 28.74C92.4843 28.46 92.7609 28.25 93.0809 28.11C93.4009 27.97 93.7443 27.9 94.1109 27.9C94.4976 27.9 94.8443 27.98 95.1509 28.14C95.4576 28.2933 95.7009 28.5133 95.8809 28.8C96.0609 29.08 96.1509 29.4033 96.1509 29.77C96.1509 29.93 96.1309 30.09 96.0909 30.25C96.0576 30.41 96.0043 30.57 95.9309 30.73C95.8576 30.89 95.7676 31.0533 95.6609 31.22C95.5609 31.3867 95.4409 31.5567 95.3009 31.73C95.1676 31.9033 95.0176 32.0833 94.8509 32.27L92.8409 34.51L92.7209 34.25H96.3709V35H92.1409ZM97.8295 35.1C97.6495 35.1 97.5095 35.0467 97.4095 34.94C97.3161 34.8333 97.2695 34.68 97.2695 34.48C97.2695 34.3 97.3195 34.1533 97.4195 34.04C97.5261 33.92 97.6628 33.86 97.8295 33.86C98.0095 33.86 98.1461 33.9167 98.2395 34.03C98.3395 34.1367 98.3895 34.2867 98.3895 34.48C98.3895 34.6667 98.3361 34.8167 98.2295 34.93C98.1295 35.0433 97.9961 35.1 97.8295 35.1ZM97.8295 30.91C97.6495 30.91 97.5095 30.8567 97.4095 30.75C97.3161 30.6433 97.2695 30.49 97.2695 30.29C97.2695 30.11 97.3195 29.9633 97.4195 29.85C97.5261 29.73 97.6628 29.67 97.8295 29.67C98.0095 29.67 98.1461 29.7267 98.2395 29.84C98.3395 29.9467 98.3895 30.0967 98.3895 30.29C98.3895 30.4767 98.3361 30.6267 98.2295 30.74C98.1295 30.8533 97.9961 30.91 97.8295 30.91ZM102.765 35V28.93L102.985 29L100.085 32.54L100.005 32.36H104.745V33.1H99.7148L99.3448 32.36L102.915 28H103.525V35H102.765ZM107.236 34.66V28.62L107.526 28.84L106.226 29.62L105.996 28.92L107.726 27.9H108.026V34.66H107.236ZM106.206 35V34.24H109.076V35H106.206ZM112.799 35L115.479 28H116.369L119.029 35H118.179L116.469 30.46C116.422 30.3333 116.369 30.1867 116.309 30.02C116.255 29.8467 116.195 29.67 116.129 29.49C116.069 29.3033 116.009 29.1233 115.949 28.95C115.895 28.7767 115.845 28.6233 115.799 28.49H115.999C115.945 28.6567 115.889 28.8267 115.829 29C115.775 29.1667 115.719 29.3367 115.659 29.51C115.599 29.6767 115.539 29.8433 115.479 30.01C115.419 30.1767 115.359 30.3433 115.299 30.51L113.599 35H112.799ZM113.939 33.07L114.229 32.31H117.539L117.859 33.07H113.939ZM120.307 35V28H121.067L123.757 32.37L123.397 32.36L126.117 28H126.827V35H126.047V31.8C126.047 31.2 126.057 30.66 126.077 30.18C126.097 29.7 126.134 29.2233 126.187 28.75L126.327 29.03L123.817 32.97H123.277L120.837 29.08L120.947 28.75C121.001 29.1967 121.037 29.6567 121.057 30.13C121.077 30.5967 121.087 31.1533 121.087 31.8V35H120.307Z" fill="white"/>
<path d="M54.396 21.14C53.864 21.14 53.3693 21.07 52.912 20.93C52.464 20.79 52.0533 20.58 51.68 20.3C51.316 20.0107 50.9893 19.656 50.7 19.236L51.736 18.046C52.1933 18.6993 52.632 19.152 53.052 19.404C53.472 19.656 53.9713 19.782 54.55 19.782C54.9047 19.782 55.2267 19.726 55.516 19.614C55.8053 19.502 56.034 19.348 56.202 19.152C56.37 18.956 56.454 18.732 56.454 18.48C56.454 18.312 56.426 18.1533 56.37 18.004C56.314 17.8547 56.2253 17.7193 56.104 17.598C55.992 17.4767 55.8427 17.3647 55.656 17.262C55.4787 17.1593 55.2687 17.0707 55.026 16.996C54.7833 16.912 54.5033 16.842 54.186 16.786C53.682 16.6833 53.2433 16.548 52.87 16.38C52.4967 16.212 52.184 16.002 51.932 15.75C51.68 15.498 51.4933 15.2133 51.372 14.896C51.2507 14.5693 51.19 14.2053 51.19 13.804C51.19 13.412 51.274 13.048 51.442 12.712C51.6193 12.376 51.8573 12.0867 52.156 11.844C52.464 11.592 52.8233 11.4007 53.234 11.27C53.6447 11.13 54.088 11.06 54.564 11.06C55.068 11.06 55.53 11.1253 55.95 11.256C56.37 11.3867 56.7433 11.5827 57.07 11.844C57.3967 12.096 57.6673 12.4087 57.882 12.782L56.818 13.832C56.6313 13.524 56.4213 13.2673 56.188 13.062C55.9547 12.8473 55.698 12.6887 55.418 12.586C55.138 12.474 54.8393 12.418 54.522 12.418C54.158 12.418 53.8407 12.474 53.57 12.586C53.2993 12.698 53.0847 12.8567 52.926 13.062C52.7767 13.258 52.702 13.4913 52.702 13.762C52.702 13.958 52.7393 14.14 52.814 14.308C52.8887 14.4667 53.0007 14.6113 53.15 14.742C53.3087 14.8633 53.5187 14.9753 53.78 15.078C54.0413 15.1713 54.354 15.2553 54.718 15.33C55.2313 15.442 55.6887 15.5867 56.09 15.764C56.4913 15.932 56.832 16.1327 57.112 16.366C57.392 16.5993 57.602 16.8607 57.742 17.15C57.8913 17.4393 57.966 17.752 57.966 18.088C57.966 18.7133 57.8213 19.2547 57.532 19.712C57.2427 20.1693 56.832 20.524 56.3 20.776C55.768 21.0187 55.1333 21.14 54.396 21.14ZM63.1743 21.14C62.4183 21.14 61.7463 20.9813 61.1583 20.664C60.5797 20.3373 60.1223 19.894 59.7863 19.334C59.4597 18.774 59.2963 18.13 59.2963 17.402C59.2963 16.8233 59.3897 16.296 59.5763 15.82C59.763 15.344 60.0197 14.9333 60.3463 14.588C60.6823 14.2333 61.079 13.9627 61.5363 13.776C62.003 13.58 62.507 13.482 63.0483 13.482C63.5243 13.482 63.9677 13.5753 64.3783 13.762C64.789 13.9393 65.1437 14.1867 65.4423 14.504C65.7503 14.8213 65.9837 15.1993 66.1423 15.638C66.3103 16.0673 66.3897 16.5387 66.3803 17.052L66.3663 17.668H60.3603L60.0383 16.52H65.1203L64.9103 16.758V16.422C64.8823 16.114 64.7797 15.8387 64.6023 15.596C64.425 15.3533 64.201 15.162 63.9303 15.022C63.6597 14.882 63.3657 14.812 63.0483 14.812C62.5443 14.812 62.1197 14.91 61.7743 15.106C61.429 15.2927 61.1677 15.5727 60.9903 15.946C60.813 16.31 60.7243 16.7627 60.7243 17.304C60.7243 17.8173 60.8317 18.2653 61.0463 18.648C61.261 19.0213 61.5643 19.3107 61.9563 19.516C62.3483 19.7213 62.801 19.824 63.3143 19.824C63.6783 19.824 64.0143 19.7633 64.3223 19.642C64.6397 19.5207 64.9803 19.3013 65.3443 18.984L66.0723 20.006C65.8483 20.23 65.573 20.426 65.2463 20.594C64.929 20.762 64.5883 20.8973 64.2243 21C63.8697 21.0933 63.5197 21.14 63.1743 21.14ZM67.9475 21V13.65H69.3895V15.162L69.1375 15.33C69.2308 15.0033 69.4128 14.7047 69.6835 14.434C69.9541 14.154 70.2761 13.93 70.6495 13.762C71.0228 13.5847 71.4055 13.496 71.7975 13.496C72.3575 13.496 72.8241 13.608 73.1975 13.832C73.5708 14.0467 73.8508 14.378 74.0375 14.826C74.2241 15.274 74.3175 15.8387 74.3175 16.52V21H72.8755V16.618C72.8755 16.198 72.8195 15.8527 72.7075 15.582C72.5955 15.302 72.4228 15.1013 72.1895 14.98C71.9561 14.8493 71.6668 14.7933 71.3215 14.812C71.0415 14.812 70.7848 14.8587 70.5515 14.952C70.3181 15.036 70.1128 15.1573 69.9355 15.316C69.7675 15.4747 69.6321 15.6613 69.5295 15.876C69.4361 16.0813 69.3895 16.3053 69.3895 16.548V21H68.6755C68.5541 21 68.4328 21 68.3115 21C68.1901 21 68.0688 21 67.9475 21ZM77.1836 21V11.774H78.6256V21H77.1836ZM75.6576 15.05V13.65H80.3336V15.05H75.6576Z" fill="white"/>
</svg>
