<svg width="224" height="59" viewBox="0 0 224 59" fill="none" xmlns="http://www.w3.org/2000/svg">
<rect y="0.147614" width="32" height="32" rx="16" fill="#F00500"/>
<g clip-path="url(#clip0_336_1113)">
<path d="M21.5726 6.25905C20.948 6.87662 20.3758 7.54595 19.8672 8.25967L19.7063 8.20789C18.7788 7.90836 17.8176 7.72346 16.8489 7.66059C16.5572 7.6384 15.4688 7.6384 15.1135 7.66059C14.0401 7.73085 13.2173 7.88987 12.2823 8.21159C12.2449 8.22638 12.2112 8.23748 12.1776 8.24857C11.6502 7.53856 11.063 6.87292 10.416 6.26275C13.5203 4.6911 17.1519 4.5025 20.402 5.74133C20.7498 5.87076 21.0902 6.02238 21.423 6.18509L21.5726 6.25905Z" fill="#F00500"/>
<path d="M27.3622 20.2856C26.891 21.6131 26.1841 22.8446 25.2678 23.917C24.7704 24.4939 24.2206 25.0227 23.6296 25.5034C22.2458 26.6054 20.6301 27.3931 18.9059 27.8073C16.9985 28.2621 15.0088 28.2621 13.1014 27.8073C11.3735 27.3931 9.76149 26.6054 8.37766 25.5034C7.78673 25.0227 7.23694 24.4939 6.73951 23.917C4.10277 20.8366 3.30239 16.606 4.64508 12.7934C4.8994 12.0871 5.21731 11.4067 5.59879 10.7595C5.77457 10.4637 5.9915 10.1309 6.09622 9.99403C6.45527 11.5213 6.89659 12.8637 7.06116 13.3481C7.04994 13.374 7.03498 13.4036 7.02002 13.4295C6.14858 15.1749 5.67733 16.8575 5.56513 18.6473C5.56513 18.6695 5.56139 18.6954 5.56139 18.7176C5.53147 19.2538 5.54643 19.509 5.63619 19.8455C5.9167 20.8994 6.78065 22.0606 8.13456 23.1996C10.3524 25.0634 13.3594 26.4094 15.6371 26.5648C18.0121 26.7238 21.5165 25.3518 23.8503 23.3475C24.2168 23.0258 24.5609 22.6856 24.8826 22.3232C25.1145 22.0569 25.4585 21.5984 25.4324 21.5984C25.4249 21.5984 25.4324 21.591 25.4473 21.5836C25.4585 21.5762 25.4698 21.5651 25.4623 21.5577C25.4585 21.554 25.466 21.5429 25.4772 21.5392C25.4885 21.5355 25.4959 21.5281 25.4922 21.5207C25.4885 21.5133 25.4922 21.5059 25.5072 21.5022C25.5184 21.4985 25.5221 21.4874 25.5184 21.48C25.5146 21.4726 25.5184 21.4652 25.5259 21.4652C25.5333 21.4652 25.5408 21.4541 25.5408 21.4467C25.5408 21.4393 25.5483 21.4282 25.5558 21.4282C25.5633 21.4282 25.5707 21.4208 25.5707 21.4135C25.582 21.3839 25.6007 21.3543 25.6194 21.3284C25.6755 21.2433 25.8999 20.8477 25.9298 20.7811C26.143 20.304 26.2776 19.8788 26.3412 19.4535C26.3711 19.2501 26.3898 18.8766 26.3749 18.7879C26.3711 18.7731 26.3711 18.7472 26.3674 18.7065C26.3599 18.6326 26.3562 18.5216 26.3487 18.4107C26.3412 18.2443 26.3262 18.0113 26.315 17.8967C26.1542 16.2178 25.7203 14.8458 24.8975 13.3925C24.8639 13.337 24.8339 13.2815 24.8152 13.2372C24.8078 13.2261 24.804 13.215 24.8003 13.2076C24.9162 12.8637 25.3912 11.4252 25.769 9.77954L25.7764 9.78694L25.8325 9.8609C25.9298 9.99033 26.1878 10.3749 26.3038 10.5598C26.8311 11.4104 27.2425 12.3238 27.5343 13.2778C28.2112 15.5743 28.1551 18.0224 27.3622 20.2856Z" fill="#F00500"/>
<path d="M22.5079 15.8665C22.4967 15.9256 22.3209 16.1031 22.1451 16.2326C21.629 16.6061 20.7052 16.9537 19.7664 17.1201C19.2316 17.2162 18.6968 17.231 18.5359 17.1534C18.4312 17.1016 18.4163 17.0609 18.4537 16.9278C18.5322 16.6504 18.7865 16.3472 19.183 16.0625C19.3849 15.9182 20.204 15.4264 20.5855 15.2193C21.2138 14.8791 21.7225 14.6757 22.0666 14.6276C22.1751 14.6128 22.306 14.6091 22.3471 14.6276C22.4144 14.6535 22.4892 14.8495 22.5191 15.0862C22.5341 15.2119 22.5266 15.7666 22.5079 15.8665Z" fill="black"/>
<path d="M13.6963 17.0905C13.6739 17.1349 13.5617 17.1829 13.4345 17.2014C13.3073 17.2199 12.9184 17.2088 12.6977 17.1829C11.9048 17.0794 11.0633 16.839 10.4499 16.5432C10.1058 16.3768 9.85898 16.2104 9.67571 16.0292L9.57099 15.9219L9.55977 15.7814C9.54107 15.5373 9.54481 15.1527 9.57473 15.0159C9.59343 14.9013 9.63457 14.7903 9.69067 14.6905C9.72059 14.6535 9.72059 14.6535 9.85524 14.6535C10.0198 14.6535 10.1582 14.6794 10.3826 14.7497C10.8426 14.8902 11.5271 15.2304 12.3611 15.7259C13.0493 16.1327 13.3073 16.3324 13.5056 16.606C13.6402 16.7762 13.73 17.0165 13.6963 17.0905Z" fill="black"/>
<path d="M18.9923 22.2381C18.9923 22.2492 18.9474 22.4267 18.8913 22.6375C18.8352 22.8483 18.7903 23.0184 18.7903 23.0258C18.7492 23.0295 18.7118 23.0332 18.6706 23.0295H18.5509L18.3864 23.4141C18.2966 23.6249 18.2143 23.8208 18.2031 23.8504L18.1807 23.9022L18.1021 23.7765L18.0236 23.6507V22.6264L17.9937 22.6338C17.9301 22.6486 17.4775 22.7078 17.2793 22.7262C16.4602 22.8076 15.6374 22.7891 14.8221 22.6745C14.6912 22.656 14.579 22.6412 14.5752 22.6449C14.5715 22.6486 14.5752 22.8853 14.5827 23.1774L14.5939 23.7025L14.5303 23.7987C14.4967 23.8504 14.463 23.8948 14.463 23.8985C14.4518 23.9096 14.4144 23.8504 14.3284 23.6803C14.2349 23.5028 14.1676 23.3142 14.1189 23.1182L14.0928 23.011L13.9768 23.0184L13.8609 23.0295L13.8309 22.8927C13.816 22.8187 13.7973 22.7041 13.7898 22.6412L13.7786 22.5229L13.6813 22.4378C13.6252 22.3897 13.5691 22.3416 13.5579 22.3343C13.5392 22.3195 13.5317 22.2936 13.5317 22.2714V22.227L13.9992 22.2307L14.4668 22.2344L14.4817 22.2825L14.4967 22.3306L14.6575 22.338C14.7473 22.3417 15.0315 22.349 15.2858 22.3564L15.7534 22.3675L15.873 22.1826L15.9965 21.9977H16.1535L16.1498 21.6131L16.1461 21.2286L15.9404 21.1398C15.2784 20.8514 14.8894 20.5222 14.7435 20.1229C14.7136 20.0415 14.7136 20.0119 14.7061 19.6421C14.7024 19.276 14.7024 19.2427 14.7286 19.1614C14.7809 18.9765 14.9268 18.8322 15.1138 18.7842C15.1774 18.7657 15.3457 18.7657 16.2283 18.7657L17.2681 18.7694L17.384 18.8249C17.5224 18.8914 17.586 18.9395 17.6645 19.043C17.7543 19.1614 17.7805 19.2538 17.7805 19.4794C17.7805 19.8011 17.758 20.0785 17.7244 20.1894C17.6758 20.341 17.601 20.4853 17.5075 20.6147C17.3204 20.8514 16.9801 21.088 16.6697 21.1953L16.5799 21.2286L16.5837 21.6168L16.5874 22.0051L16.6697 22.0125L16.752 22.0199L16.8642 22.1863L16.9726 22.3527H17.4738C17.7506 22.3527 17.9937 22.3564 18.0161 22.3601C18.0535 22.3675 18.061 22.3638 18.0984 22.301L18.1433 22.2344H18.5734C18.895 22.2196 18.9923 22.227 18.9923 22.2381Z" fill="black"/>
<path d="M17.017 23.2994C16.946 23.3401 16.8974 23.3586 16.8861 23.3512C16.8749 23.3475 16.8225 23.3031 16.7664 23.2624L16.6655 23.181L16.5607 23.292C16.3326 23.5361 16.3251 23.5472 16.2578 23.5509C16.1531 23.562 16.1306 23.5435 16.0035 23.3549C15.9362 23.2587 15.8838 23.1773 15.8838 23.1773C15.8838 23.1773 15.8352 23.17 15.7791 23.1663L15.6744 23.1552L15.6257 23.255L15.5771 23.3549L15.4911 23.329C15.4238 23.3068 15.3564 23.2809 15.2929 23.2513L15.1807 23.1958V22.985L16.1755 22.9887L17.1704 22.9924L17.1741 23.0923C17.1779 23.2106 17.1816 23.2069 17.017 23.2994Z" fill="black"/>
<path d="M26.3674 18.7879C26.3636 18.7731 26.3636 18.7472 26.3599 18.7065C25.4623 18.6103 22.9003 18.5512 20.5216 20.4926C20.5216 20.4926 19.7549 17.0165 16.1645 17.0165C12.574 17.0165 11.2425 20.4926 11.2425 20.4926C9.23037 18.3515 6.53753 18.5068 5.56511 18.6473C5.56511 18.6695 5.56137 18.6954 5.56137 18.7176C5.53145 19.2538 5.54641 19.509 5.63617 19.8455C5.91667 20.8994 6.78063 22.0606 8.13453 23.1996C10.3524 25.0634 13.3594 26.4094 15.6371 26.5647C18.012 26.7238 21.5165 25.3518 23.8503 23.3475C24.2168 23.0258 24.5609 22.6855 24.8825 22.3231C25.1144 22.0569 25.4585 21.5983 25.4323 21.5983C25.4249 21.5983 25.4323 21.5909 25.4473 21.5835C25.4585 21.5761 25.4697 21.565 25.4623 21.5576C25.4585 21.554 25.466 21.5429 25.4772 21.5392C25.4884 21.5355 25.4959 21.5281 25.4922 21.5207C25.4884 21.5133 25.4922 21.5059 25.5071 21.5022C25.5184 21.4985 25.5221 21.4874 25.5184 21.48C25.5146 21.4726 25.5184 21.4652 25.5258 21.4652C25.5333 21.4652 25.5408 21.4541 25.5408 21.4467C25.5408 21.4393 25.5483 21.4282 25.5558 21.4282C25.5632 21.4282 25.5707 21.4208 25.5707 21.4134C25.5819 21.3838 25.6006 21.3543 25.6193 21.3284C25.6754 21.2433 25.8998 20.8476 25.9298 20.7811C26.143 20.304 26.2776 19.8788 26.3412 19.4535C26.3636 19.2501 26.3823 18.8766 26.3674 18.7879ZM17.0172 23.2994C16.9461 23.3401 16.8975 23.3586 16.8863 23.3512C16.8751 23.3475 16.8227 23.3031 16.7666 23.2624L16.6656 23.1811L16.5609 23.292C16.3328 23.5361 16.3253 23.5472 16.258 23.5509C16.1532 23.562 16.1308 23.5435 16.0036 23.3549C15.9363 23.2587 15.8839 23.1774 15.8839 23.1774C15.8839 23.1774 15.8353 23.17 15.7792 23.1663L15.6745 23.1552L15.6259 23.255L15.5773 23.3549L15.4912 23.329C15.4239 23.3068 15.3566 23.2809 15.293 23.2513L15.1808 23.1959V22.9851L16.1757 22.9888L17.1705 22.9925L17.1743 23.0923C17.178 23.2107 17.1818 23.207 17.0172 23.2994ZM18.8872 22.6338C18.8311 22.8446 18.7862 23.0147 18.7862 23.0221C18.7451 23.0258 18.7077 23.0295 18.6666 23.0258H18.5469L18.3861 23.414C18.2963 23.6248 18.214 23.8208 18.2028 23.8504L18.1804 23.9022L18.1018 23.7764L18.0233 23.6507V22.6264L17.9933 22.6338C17.9298 22.6486 17.4772 22.7077 17.279 22.7262C16.4599 22.8076 15.6371 22.7891 14.8218 22.6744C14.6909 22.656 14.5787 22.6412 14.5749 22.6449C14.5712 22.6486 14.5749 22.8852 14.5824 23.1774L14.5936 23.7025L14.53 23.7986C14.4964 23.8504 14.4627 23.8948 14.4627 23.8985C14.4515 23.9096 14.4141 23.8504 14.3281 23.6803C14.2346 23.5028 14.1673 23.3142 14.1186 23.1182L14.0925 23.011L13.9765 23.0184L13.8606 23.0295L13.8307 22.8926C13.8157 22.8187 13.797 22.704 13.7895 22.6412L13.7783 22.5228L13.6811 22.4378C13.6249 22.3897 13.5689 22.3416 13.5576 22.3342C13.5389 22.3194 13.5314 22.2935 13.5314 22.2714V22.227L13.999 22.2307L14.4665 22.2344L14.4814 22.2825L14.4964 22.3305L14.6572 22.3379C14.747 22.3416 15.0312 22.349 15.2855 22.3564L15.753 22.3675L15.8727 22.1826L15.9962 21.9977H16.1532L16.1495 21.6131L16.1458 21.2285L15.9401 21.1398C15.2781 20.8513 14.8891 20.5222 14.7432 20.1228C14.7133 20.0415 14.7133 20.0119 14.7058 19.6421C14.7021 19.276 14.7021 19.2427 14.7283 19.1613C14.7806 18.9764 14.9265 18.8322 15.1135 18.7842C15.1771 18.7657 15.3454 18.7657 16.228 18.7657L17.2678 18.7694L17.3837 18.8248C17.5221 18.8914 17.5857 18.9395 17.6642 19.043C17.754 19.1613 17.7802 19.2538 17.7802 19.4794C17.7802 19.8011 17.7577 20.0785 17.7241 20.1894C17.6754 20.341 17.6006 20.4852 17.5071 20.6147C17.3201 20.8513 16.9798 21.088 16.6694 21.1952L16.5796 21.2285L16.5833 21.6168L16.5871 22.0051L16.6694 22.0125L16.7516 22.0199L16.8638 22.1863L16.9723 22.3527H17.4735C17.7502 22.3527 17.9933 22.3564 18.0158 22.3601C18.0532 22.3675 18.0607 22.3638 18.0981 22.3009L18.143 22.2344H18.5731C18.9059 22.2344 19.0032 22.2381 19.0032 22.2492C18.9919 22.2455 18.9433 22.4267 18.8872 22.6338Z" fill="white"/>
<path d="M26.3374 18.4107C26.3299 18.2443 26.315 18.0113 26.3038 17.8966C26.1429 16.2178 25.7091 14.8458 24.8863 13.3925C24.8526 13.337 24.8227 13.2815 24.804 13.2372C24.7965 13.2261 24.7928 13.215 24.789 13.2076C24.905 12.8637 25.38 11.4252 25.7577 9.77955C26.2701 7.54596 26.5955 4.93517 25.6006 4.1512C25.6006 4.1512 23.8802 4.02547 21.5763 6.25906C20.9517 6.87662 20.3795 7.54596 19.8708 8.25967L19.71 8.2079C18.7825 7.90836 17.8213 7.72346 16.8526 7.6606C16.5609 7.63841 15.4725 7.63841 15.1172 7.6606C14.0438 7.73086 13.221 7.88987 12.286 8.2116C12.2486 8.22639 12.2149 8.23748 12.1813 8.24858C11.6539 7.53856 11.0667 6.87292 10.4197 6.26275C8.02232 4.01807 6.23831 4.1475 6.23831 4.1475C5.18361 4.95736 5.54266 7.68648 6.08871 9.99403C6.44775 11.5213 6.88908 12.8637 7.05364 13.3481C7.04242 13.374 7.02746 13.4036 7.0125 13.4295C6.14107 15.1749 5.66982 16.8575 5.55762 18.6473C6.53377 18.5068 9.22288 18.3478 11.2388 20.4926C11.2388 20.4926 12.5702 17.0165 16.1607 17.0165C19.7512 17.0165 20.5179 20.4926 20.5179 20.4926C22.8966 18.5512 25.4585 18.6141 26.3561 18.7065C26.3524 18.6325 26.3449 18.5216 26.3374 18.4107ZM7.76052 11.954C7.76052 11.954 6.36173 8.49634 6.72078 6.52161C6.78062 6.18879 6.89282 5.89665 7.0686 5.67477C7.0686 5.67477 8.65439 5.83009 11.2126 8.64056C11.2126 8.64056 10.7264 8.87354 10.0756 9.36907C10.0756 9.36907 10.0719 9.37277 10.0681 9.37277C9.36126 9.90898 8.45617 10.7595 7.76052 11.954ZM13.696 17.0905C13.6736 17.1349 13.5614 17.1829 13.4342 17.2014C13.307 17.2199 12.9181 17.2088 12.6974 17.1829C11.9045 17.0794 11.063 16.839 10.4496 16.5432C10.1055 16.3768 9.85869 16.2104 9.67543 16.0292L9.57071 15.9219L9.55949 15.7814C9.54079 15.5373 9.54453 15.1527 9.57445 15.0159C9.59315 14.9013 9.63429 14.7903 9.69039 14.6905C9.72031 14.6535 9.72031 14.6535 9.85495 14.6535C10.0195 14.6535 10.1579 14.6794 10.3823 14.7496C10.8423 14.8902 11.5268 15.2304 12.3608 15.7259C13.049 16.1327 13.307 16.3324 13.5053 16.606C13.6399 16.7762 13.7297 17.0165 13.696 17.0905ZM22.5076 15.8664C22.4964 15.9256 22.3206 16.1031 22.1448 16.2325C21.6287 16.606 20.7049 16.9537 19.7661 17.1201C19.2313 17.2162 18.6965 17.231 18.5356 17.1533C18.4309 17.1016 18.416 17.0609 18.4534 16.9278C18.5319 16.6504 18.7862 16.3472 19.1827 16.0624C19.3846 15.9182 20.2037 15.4264 20.5852 15.2193C21.2135 14.8791 21.7222 14.6757 22.0663 14.6276C22.1747 14.6128 22.3056 14.6091 22.3468 14.6276C22.4141 14.6535 22.4889 14.8495 22.5188 15.0862C22.5338 15.2119 22.5263 15.7666 22.5076 15.8664ZM21.8867 9.36907L21.8793 9.36537C21.2509 8.86984 20.7797 8.63687 20.7797 8.63687C23.2519 5.82639 24.7816 5.67108 24.7816 5.67108C24.9499 5.89665 25.0583 6.1851 25.1182 6.51792C25.466 8.49264 24.1158 11.954 24.1158 11.954C23.5511 10.9592 22.7918 10.0791 21.8867 9.36907Z" fill="#FFA409"/>
<path d="M25.122 6.51792C24.8302 6.48094 23.4502 6.47355 21.8868 9.36908L21.8794 9.36538C21.251 8.86985 20.7798 8.63687 20.7798 8.63687C23.252 5.8264 24.7816 5.67108 24.7816 5.67108C24.9537 5.89666 25.0621 6.1851 25.122 6.51792Z" fill="#FF9300"/>
<path d="M24.1195 11.954C23.551 10.9555 22.7956 10.0791 21.8867 9.36909C23.4501 6.47356 24.8264 6.48096 25.1219 6.51794C25.4697 8.49636 24.1195 11.954 24.1195 11.954Z" fill="#FF8300"/>
<path d="M25.1782 6.52901C25.1595 6.52531 25.1408 6.52161 25.1221 6.51791L25.1782 6.52901Z" fill="#FF8300"/>
<path d="M11.2128 8.63687C11.2128 8.63687 10.7266 8.86985 10.0759 9.36538C10.0759 9.36538 10.0721 9.36908 10.0684 9.36908C8.44893 6.46985 7.02397 6.48094 6.71729 6.51792C6.77713 6.1851 6.88933 5.89296 7.06511 5.67108C7.06885 5.67108 8.65464 5.8264 11.2128 8.63687Z" fill="#FF9300"/>
<path d="M10.0722 9.36909C9.36154 9.909 8.45644 10.7558 7.76079 11.954C7.76079 11.954 6.362 8.49636 6.72105 6.51794C7.02399 6.48096 8.4527 6.47356 10.0722 9.36909Z" fill="#FF8300"/>
<path d="M6.72097 6.51791C6.70227 6.52161 6.67983 6.52531 6.66113 6.52901L6.72097 6.51791Z" fill="#FF8300"/>
<path d="M20.3346 13.8732C20.3346 13.8732 19.1378 13.9472 19.2874 13.0227C19.437 12.0982 20.372 11.9873 20.6338 12.0242C20.8956 12.0612 21.9428 12.431 21.7558 13.2076C21.5688 13.9842 21.307 13.8363 21.1574 13.8732C21.0078 13.9102 20.3346 13.8732 20.3346 13.8732Z" fill="white"/>
<path d="M11.5079 13.8732C11.5079 13.8732 10.3111 13.9472 10.4607 13.0227C10.6103 12.0982 11.5453 11.9873 11.8071 12.0242C12.0689 12.0612 13.1161 12.431 12.9291 13.2076C12.7421 13.9842 12.4803 13.8363 12.3307 13.8732C12.1811 13.9102 11.5079 13.8732 11.5079 13.8732Z" fill="white"/>
</g>
<path d="M49.088 23.2246C48.3947 23.2246 47.76 23.1392 47.184 22.9686C46.6187 22.7979 46.112 22.5472 45.664 22.2166C45.2267 21.8859 44.832 21.4859 44.48 21.0166L45.984 19.3046C46.5067 20.0299 47.024 20.5259 47.536 20.7926C48.0587 21.0486 48.624 21.1766 49.232 21.1766C49.5627 21.1766 49.856 21.1339 50.112 21.0486C50.3787 20.9526 50.5867 20.8192 50.736 20.6486C50.8853 20.4779 50.96 20.2752 50.96 20.0406C50.96 19.8699 50.9227 19.7152 50.848 19.5766C50.7733 19.4272 50.6667 19.2992 50.528 19.1926C50.3893 19.0752 50.224 18.9739 50.032 18.8886C49.84 18.7926 49.6267 18.7126 49.392 18.6486C49.1573 18.5739 48.9013 18.5152 48.624 18.4726C48.0267 18.3339 47.504 18.1686 47.056 17.9766C46.608 17.7739 46.2347 17.5286 45.936 17.2406C45.6373 16.9419 45.4133 16.6059 45.264 16.2326C45.1253 15.8592 45.056 15.4379 45.056 14.9686C45.056 14.4886 45.1627 14.0459 45.376 13.6406C45.5893 13.2246 45.8827 12.8672 46.256 12.5686C46.64 12.2699 47.0773 12.0406 47.568 11.8806C48.0693 11.7206 48.5973 11.6406 49.152 11.6406C49.8347 11.6406 50.432 11.7206 50.944 11.8806C51.456 12.0299 51.8987 12.2486 52.272 12.5366C52.656 12.8246 52.976 13.1766 53.232 13.5926L51.712 15.0646C51.488 14.7659 51.2427 14.5152 50.976 14.3126C50.72 14.1099 50.4373 13.9606 50.128 13.8646C49.8293 13.7579 49.52 13.7046 49.2 13.7046C48.848 13.7046 48.544 13.7526 48.288 13.8486C48.032 13.9339 47.8293 14.0619 47.68 14.2326C47.5413 14.4032 47.472 14.6112 47.472 14.8566C47.472 15.0486 47.52 15.2192 47.616 15.3686C47.712 15.5179 47.8507 15.6512 48.032 15.7686C48.2133 15.8752 48.432 15.9712 48.688 16.0566C48.944 16.1419 49.2267 16.2166 49.536 16.2806C50.1227 16.3979 50.6507 16.5526 51.12 16.7446C51.5893 16.9366 51.9893 17.1712 52.32 17.4486C52.6613 17.7152 52.9227 18.0352 53.104 18.4086C53.2853 18.7712 53.376 19.1819 53.376 19.6406C53.376 20.3979 53.1947 21.0432 52.832 21.5766C52.4693 22.1099 51.968 22.5206 51.328 22.8086C50.688 23.0859 49.9413 23.2246 49.088 23.2246ZM55.2298 23.0646V11.2246H57.4698V16.3286L57.0218 16.5206C57.1391 16.1366 57.3471 15.7899 57.6458 15.4806C57.9551 15.1606 58.3231 14.9046 58.7498 14.7126C59.1764 14.5206 59.6244 14.4246 60.0938 14.4246C60.7338 14.4246 61.2671 14.5526 61.6938 14.8086C62.1311 15.0646 62.4564 15.4539 62.6698 15.9766C62.8938 16.4886 63.0058 17.1232 63.0058 17.8806V23.0646H60.7338V18.0566C60.7338 17.6726 60.6804 17.3526 60.5738 17.0966C60.4671 16.8406 60.3018 16.6539 60.0778 16.5366C59.8644 16.4086 59.5978 16.3552 59.2778 16.3766C59.0218 16.3766 58.7818 16.4192 58.5578 16.5046C58.3444 16.5792 58.1578 16.6912 57.9978 16.8406C57.8484 16.9899 57.7258 17.1606 57.6298 17.3526C57.5444 17.5446 57.5018 17.7526 57.5018 17.9766V23.0646H56.3818C56.1364 23.0646 55.9178 23.0646 55.7258 23.0646C55.5338 23.0646 55.3684 23.0646 55.2298 23.0646ZM65.3749 23.0646V14.6006H67.6469V23.0646H65.3749ZM66.4949 12.8566C66.0575 12.8566 65.7162 12.7499 65.4709 12.5366C65.2255 12.3232 65.1029 12.0192 65.1029 11.6246C65.1029 11.2619 65.2255 10.9686 65.4709 10.7446C65.7269 10.5099 66.0682 10.3926 66.4949 10.3926C66.9322 10.3926 67.2735 10.5046 67.5189 10.7286C67.7642 10.9419 67.8869 11.2406 67.8869 11.6246C67.8869 11.9979 67.7589 12.2966 67.5029 12.5206C67.2575 12.7446 66.9215 12.8566 66.4949 12.8566ZM74.9535 23.2246C74.5802 23.2246 74.2175 23.1712 73.8655 23.0646C73.5135 22.9579 73.1935 22.8139 72.9055 22.6326C72.6175 22.4406 72.3775 22.2272 72.1855 21.9926C71.9935 21.7472 71.8708 21.4966 71.8175 21.2406L72.3295 21.0486L72.2175 23.0326H70.0735V11.2246H72.3455V16.5846L71.9135 16.4086C71.9775 16.1526 72.1002 15.9072 72.2815 15.6726C72.4628 15.4272 72.6922 15.2139 72.9695 15.0326C73.2468 14.8406 73.5508 14.6912 73.8815 14.5846C74.2122 14.4779 74.5535 14.4246 74.9055 14.4246C75.6415 14.4246 76.2975 14.6166 76.8735 15.0006C77.4495 15.3739 77.9028 15.8912 78.2335 16.5526C78.5748 17.2139 78.7455 17.9712 78.7455 18.8246C78.7455 19.6779 78.5802 20.4352 78.2495 21.0966C77.9188 21.7579 77.4655 22.2806 76.8895 22.6646C76.3242 23.0379 75.6788 23.2246 74.9535 23.2246ZM74.4095 21.2886C74.8362 21.2886 75.2042 21.1872 75.5135 20.9846C75.8335 20.7712 76.0842 20.4832 76.2655 20.1206C76.4468 19.7472 76.5375 19.3152 76.5375 18.8246C76.5375 18.3446 76.4468 17.9179 76.2655 17.5446C76.0948 17.1712 75.8495 16.8832 75.5295 16.6806C75.2095 16.4779 74.8362 16.3766 74.4095 16.3766C73.9828 16.3766 73.6095 16.4779 73.2895 16.6806C72.9695 16.8832 72.7188 17.1712 72.5375 17.5446C72.3562 17.9179 72.2655 18.3446 72.2655 18.8246C72.2655 19.3152 72.3562 19.7472 72.5375 20.1206C72.7188 20.4832 72.9695 20.7712 73.2895 20.9846C73.6095 21.1872 73.9828 21.2886 74.4095 21.2886ZM83.6321 23.2246C82.9281 23.2246 82.2935 23.0326 81.7281 22.6486C81.1628 22.2646 80.7148 21.7419 80.3841 21.0806C80.0535 20.4192 79.8881 19.6619 79.8881 18.8086C79.8881 17.9552 80.0535 17.2032 80.3841 16.5526C80.7255 15.8912 81.1841 15.3739 81.7601 15.0006C82.3361 14.6166 82.9921 14.4246 83.7281 14.4246C84.1441 14.4246 84.5228 14.4886 84.8641 14.6166C85.2161 14.7339 85.5201 14.8992 85.7761 15.1126C86.0428 15.3259 86.2668 15.5712 86.4481 15.8486C86.6295 16.1259 86.7575 16.4246 86.8321 16.7446L86.3521 16.6646V14.6006H88.6081V23.0646H86.3201V21.0326L86.8321 20.9846C86.7468 21.2832 86.6081 21.5659 86.4161 21.8326C86.2241 22.0992 85.9841 22.3392 85.6961 22.5526C85.4188 22.7552 85.1041 22.9206 84.7521 23.0486C84.4001 23.1659 84.0268 23.2246 83.6321 23.2246ZM84.2561 21.2566C84.6828 21.2566 85.0561 21.1552 85.3761 20.9526C85.6961 20.7499 85.9415 20.4672 86.1121 20.1046C86.2935 19.7312 86.3841 19.2992 86.3841 18.8086C86.3841 18.3286 86.2935 17.9072 86.1121 17.5446C85.9415 17.1819 85.6961 16.8992 85.3761 16.6966C85.0561 16.4832 84.6828 16.3766 84.2561 16.3766C83.8401 16.3766 83.4721 16.4832 83.1521 16.6966C82.8428 16.8992 82.5975 17.1819 82.4161 17.5446C82.2348 17.9072 82.1441 18.3286 82.1441 18.8086C82.1441 19.2992 82.2348 19.7312 82.4161 20.1046C82.5975 20.4672 82.8428 20.7499 83.1521 20.9526C83.4721 21.1552 83.8401 21.2566 84.2561 21.2566Z" fill="white"/>
<path d="M171.432 23.2246C170.429 23.2246 169.554 23.0592 168.808 22.7286C168.072 22.3872 167.437 21.8912 166.904 21.2406L168.168 19.3846C168.733 20.0459 169.282 20.5099 169.816 20.7766C170.36 21.0432 170.946 21.1766 171.576 21.1766C171.906 21.1766 172.2 21.1339 172.456 21.0486C172.722 20.9526 172.93 20.8192 173.08 20.6486C173.229 20.4779 173.304 20.2752 173.304 20.0406C173.304 19.8699 173.266 19.7152 173.192 19.5766C173.117 19.4272 173.01 19.2992 172.872 19.1926C172.733 19.0752 172.568 18.9739 172.376 18.8886C172.184 18.7926 171.97 18.7126 171.736 18.6486C171.501 18.5739 171.245 18.5152 170.968 18.4726C170.168 18.3019 169.501 18.0619 168.968 17.7526C168.445 17.4432 168.05 17.0592 167.784 16.6006C167.528 16.1419 167.4 15.5979 167.4 14.9686C167.4 14.4886 167.506 14.0459 167.72 13.6406C167.933 13.2246 168.226 12.8672 168.6 12.5686C168.984 12.2699 169.421 12.0406 169.912 11.8806C170.413 11.7206 170.941 11.6406 171.496 11.6406C172.392 11.6406 173.181 11.7899 173.864 12.0886C174.557 12.3766 175.154 12.8246 175.656 13.4326L174.504 15.0966C174.109 14.6379 173.656 14.2912 173.144 14.0566C172.642 13.8219 172.109 13.7046 171.544 13.7046C171.192 13.7046 170.888 13.7526 170.632 13.8486C170.376 13.9339 170.173 14.0619 170.024 14.2326C169.885 14.4032 169.816 14.6112 169.816 14.8566C169.816 15.0486 169.864 15.2192 169.96 15.3686C170.056 15.5179 170.194 15.6512 170.376 15.7686C170.557 15.8752 170.776 15.9712 171.032 16.0566C171.288 16.1419 171.57 16.2166 171.88 16.2806C172.466 16.3979 172.994 16.5526 173.464 16.7446C173.933 16.9366 174.333 17.1712 174.664 17.4486C175.005 17.7152 175.266 18.0352 175.448 18.4086C175.629 18.7712 175.72 19.1819 175.72 19.6406C175.72 20.3979 175.538 21.0432 175.176 21.5766C174.813 22.1099 174.312 22.5206 173.672 22.8086C173.032 23.0859 172.285 23.2246 171.432 23.2246ZM170.472 24.5206L170.6 17.1286L171.96 17.6566L172.088 24.5206H170.472ZM172.44 17.6726L171.08 17.1446L170.952 10.4886H172.568L172.44 17.6726ZM182.464 23.0646L181.936 21.7526L185.248 18.0886C185.429 17.8966 185.621 17.6726 185.824 17.4166C186.037 17.1606 186.24 16.8992 186.432 16.6326C186.634 16.3552 186.794 16.0886 186.912 15.8326C187.029 15.5659 187.088 15.3259 187.088 15.1126C187.088 14.8672 187.034 14.6539 186.928 14.4726C186.821 14.2806 186.666 14.1312 186.464 14.0246C186.261 13.9179 186.01 13.8646 185.712 13.8646C185.434 13.8646 185.173 13.9392 184.928 14.0886C184.682 14.2272 184.453 14.4352 184.24 14.7126C184.026 14.9899 183.84 15.3259 183.68 15.7206L181.888 14.7126C182.101 14.0939 182.405 13.5552 182.8 13.0966C183.194 12.6379 183.664 12.2806 184.208 12.0246C184.752 11.7686 185.333 11.6406 185.952 11.6406C186.602 11.6512 187.189 11.7899 187.712 12.0566C188.234 12.3232 188.645 12.6966 188.944 13.1766C189.242 13.6566 189.392 14.2112 189.392 14.8406C189.392 15.0752 189.365 15.3152 189.312 15.5606C189.269 15.8059 189.189 16.0619 189.072 16.3286C188.965 16.5952 188.821 16.8779 188.64 17.1766C188.469 17.4646 188.256 17.7739 188 18.1046C187.754 18.4246 187.472 18.7606 187.152 19.1126L184.608 21.8806L184.288 20.9046H189.856V23.0646H182.464ZM194.509 23.2246C193.645 23.2246 192.888 23.0379 192.237 22.6646C191.597 22.2912 191.005 21.6512 190.461 20.7446L192.221 19.6246C192.467 19.9979 192.712 20.3019 192.957 20.5366C193.213 20.7712 193.48 20.9419 193.757 21.0486C194.035 21.1552 194.323 21.2086 194.621 21.2086C194.941 21.2086 195.24 21.1339 195.517 20.9846C195.795 20.8352 196.013 20.6272 196.173 20.3606C196.344 20.0832 196.429 19.7686 196.429 19.4166C196.429 19.0539 196.36 18.7499 196.221 18.5046C196.083 18.2592 195.88 18.0726 195.613 17.9446C195.347 17.8166 195.032 17.7526 194.669 17.7526C194.509 17.7526 194.333 17.7686 194.141 17.8006C193.949 17.8326 193.752 17.8859 193.549 17.9606C193.347 18.0246 193.128 18.1046 192.893 18.2006L192.333 16.7286L195.293 13.4966L195.901 13.9286L191.197 13.8646V11.8006H197.933L198.365 12.6806L194.669 16.6806L194.109 16.0246C194.195 15.9819 194.333 15.9446 194.525 15.9126C194.728 15.8699 194.915 15.8486 195.085 15.8486C195.576 15.8486 196.035 15.9392 196.461 16.1206C196.888 16.3019 197.267 16.5526 197.597 16.8726C197.928 17.1926 198.184 17.5659 198.365 17.9926C198.557 18.4192 198.653 18.8779 198.653 19.3686C198.653 20.1046 198.467 20.7659 198.093 21.3526C197.731 21.9286 197.235 22.3872 196.605 22.7286C195.987 23.0592 195.288 23.2246 194.509 23.2246ZM200.626 26.1526L199.922 25.3046C200.338 25.1019 200.669 24.8566 200.914 24.5686C201.17 24.2806 201.298 24.0299 201.298 23.8166C201.298 23.7206 201.271 23.6192 201.218 23.5126C201.165 23.4059 201.047 23.2726 200.866 23.1126C200.631 22.9312 200.471 22.7606 200.386 22.6006C200.311 22.4299 200.274 22.2486 200.274 22.0566C200.274 21.7472 200.386 21.5019 200.61 21.3206C200.834 21.1392 201.122 21.0486 201.474 21.0486C201.762 21.0486 202.023 21.1339 202.258 21.3046C202.503 21.4646 202.695 21.6939 202.834 21.9926C202.973 22.2806 203.042 22.6166 203.042 23.0006C203.042 23.3419 202.983 23.6726 202.866 23.9926C202.749 24.3232 202.578 24.6272 202.354 24.9046C202.141 25.1926 201.885 25.4432 201.586 25.6566C201.298 25.8699 200.978 26.0352 200.626 26.1526ZM208.15 23.2246C207.286 23.2246 206.529 23.0379 205.878 22.6646C205.238 22.2912 204.646 21.6512 204.102 20.7446L205.862 19.6246C206.107 19.9979 206.353 20.3019 206.598 20.5366C206.854 20.7712 207.121 20.9419 207.398 21.0486C207.675 21.1552 207.963 21.2086 208.262 21.2086C208.582 21.2086 208.881 21.1339 209.158 20.9846C209.435 20.8352 209.654 20.6272 209.814 20.3606C209.985 20.0832 210.07 19.7686 210.07 19.4166C210.07 19.0539 210.001 18.7499 209.862 18.5046C209.723 18.2592 209.521 18.0726 209.254 17.9446C208.987 17.8166 208.673 17.7526 208.31 17.7526C208.15 17.7526 207.974 17.7686 207.782 17.8006C207.59 17.8326 207.393 17.8859 207.19 17.9606C206.987 18.0246 206.769 18.1046 206.534 18.2006L205.974 16.7286L208.934 13.4966L209.542 13.9286L204.838 13.8646V11.8006H211.574L212.006 12.6806L208.31 16.6806L207.75 16.0246C207.835 15.9819 207.974 15.9446 208.166 15.9126C208.369 15.8699 208.555 15.8486 208.726 15.8486C209.217 15.8486 209.675 15.9392 210.102 16.1206C210.529 16.3019 210.907 16.5526 211.238 16.8726C211.569 17.1926 211.825 17.5659 212.006 17.9926C212.198 18.4192 212.294 18.8779 212.294 19.3686C212.294 20.1046 212.107 20.7659 211.734 21.3526C211.371 21.9286 210.875 22.3872 210.246 22.7286C209.627 23.0592 208.929 23.2246 208.15 23.2246ZM214.347 23.0646V11.8646H219.211C219.957 11.8646 220.587 11.9766 221.099 12.2006C221.621 12.4139 222.016 12.7286 222.283 13.1446C222.549 13.5606 222.683 14.0566 222.683 14.6326C222.683 15.2726 222.523 15.8059 222.203 16.2326C221.883 16.6592 221.424 16.9526 220.827 17.1126L220.811 16.7926C221.301 16.9099 221.733 17.1019 222.107 17.3686C222.48 17.6352 222.768 17.9659 222.971 18.3606C223.173 18.7552 223.275 19.2032 223.275 19.7046C223.275 20.2592 223.184 20.7499 223.003 21.1766C222.821 21.5926 222.555 21.9392 222.203 22.2166C221.851 22.4939 221.435 22.7072 220.955 22.8566C220.485 22.9952 219.957 23.0646 219.371 23.0646H214.347ZM216.651 20.9846H219.275C219.616 20.9846 219.904 20.9366 220.139 20.8406C220.384 20.7339 220.571 20.5739 220.699 20.3606C220.827 20.1472 220.891 19.8966 220.891 19.6086C220.891 19.3312 220.821 19.0966 220.683 18.9046C220.544 18.7126 220.347 18.5686 220.091 18.4726C219.845 18.3659 219.547 18.3126 219.195 18.3126H216.651V20.9846ZM216.651 16.4086H218.923C219.211 16.4086 219.461 16.3552 219.675 16.2486C219.888 16.1419 220.048 15.9979 220.155 15.8166C220.272 15.6352 220.331 15.4219 220.331 15.1766C220.331 14.7819 220.203 14.4779 219.947 14.2646C219.691 14.0512 219.307 13.9446 218.795 13.9446H216.651V16.4086Z" fill="white"/>
<path d="M178.328 55.3782L182.346 46.5022L182.682 47.1882H177.67V45.5502H183.844L184.054 46.5722L180.218 55.3782H178.328ZM187.348 54.6922V46.7402L187.866 47.4122L185.878 48.4202L185.472 46.8242L188.146 45.4382H189.154V54.6922H187.348ZM185.71 55.3782V53.6982H190.834V55.3782H185.71ZM192.87 57.9822L192.296 57.2962C192.642 57.1096 192.917 56.8902 193.122 56.6382C193.337 56.3956 193.444 56.1856 193.444 56.0082C193.444 55.9149 193.421 55.8216 193.374 55.7282C193.337 55.6442 193.239 55.5276 193.08 55.3782C192.884 55.2009 192.754 55.0469 192.688 54.9162C192.623 54.7856 192.59 54.6409 192.59 54.4822C192.59 54.2396 192.679 54.0436 192.856 53.8942C193.034 53.7449 193.262 53.6702 193.542 53.6702C193.794 53.6702 194.018 53.7402 194.214 53.8802C194.42 54.0202 194.578 54.2162 194.69 54.4682C194.802 54.7109 194.858 54.9956 194.858 55.3222C194.858 55.6116 194.807 55.8916 194.704 56.1622C194.611 56.4422 194.471 56.6989 194.284 56.9322C194.107 57.1656 193.897 57.3709 193.654 57.5482C193.421 57.7349 193.16 57.8796 192.87 57.9822ZM199.512 55.3782C199.017 55.3782 198.555 55.2896 198.126 55.1122C197.706 54.9349 197.337 54.6922 197.02 54.3842C196.712 54.0669 196.469 53.6982 196.292 53.2782C196.115 52.8582 196.026 52.3962 196.026 51.8922C196.026 51.6122 196.059 51.3136 196.124 50.9962C196.199 50.6789 196.306 50.3429 196.446 49.9882C196.595 49.6242 196.768 49.2462 196.964 48.8542C197.16 48.4622 197.389 48.0516 197.65 47.6222L198.952 45.4102H200.688L200.744 45.5502L199.078 48.2942C198.807 48.7422 198.569 49.1669 198.364 49.5682C198.159 49.9602 197.981 50.3382 197.832 50.7022C197.692 51.0569 197.575 51.4022 197.482 51.7382L197.104 50.4642C197.244 50.1656 197.417 49.8949 197.622 49.6522C197.827 49.4096 198.056 49.2042 198.308 49.0362C198.56 48.8682 198.821 48.7422 199.092 48.6582C199.372 48.5742 199.657 48.5322 199.946 48.5322C200.487 48.5322 200.987 48.6816 201.444 48.9802C201.901 49.2696 202.265 49.6569 202.536 50.1422C202.816 50.6276 202.956 51.1596 202.956 51.7382C202.956 52.4382 202.807 53.0636 202.508 53.6142C202.219 54.1556 201.813 54.5849 201.29 54.9022C200.767 55.2196 200.175 55.3782 199.512 55.3782ZM199.526 53.7822C199.862 53.7822 200.161 53.7029 200.422 53.5442C200.693 53.3856 200.903 53.1662 201.052 52.8862C201.201 52.5969 201.276 52.2656 201.276 51.8922C201.276 51.5749 201.197 51.2809 201.038 51.0102C200.889 50.7302 200.683 50.5062 200.422 50.3382C200.161 50.1609 199.867 50.0722 199.54 50.0722C199.185 50.0722 198.868 50.1562 198.588 50.3242C198.317 50.4829 198.103 50.7022 197.944 50.9822C197.795 51.2529 197.72 51.5562 197.72 51.8922C197.72 52.2469 197.795 52.5689 197.944 52.8582C198.103 53.1382 198.317 53.3622 198.588 53.5302C198.859 53.6982 199.171 53.7822 199.526 53.7822ZM207.498 55.4202C206.873 55.4202 206.299 55.2942 205.776 55.0422C205.263 54.7809 204.852 54.4356 204.544 54.0062C204.236 53.5676 204.082 53.0822 204.082 52.5502C204.082 52.2329 204.124 51.9389 204.208 51.6682C204.301 51.3976 204.432 51.1549 204.6 50.9402C204.777 50.7256 204.987 50.5342 205.23 50.3662C205.482 50.1889 205.767 50.0349 206.084 49.9042L205.972 50.2962C205.729 50.1936 205.505 50.0722 205.3 49.9322C205.104 49.7922 204.931 49.6336 204.782 49.4562C204.642 49.2696 204.535 49.0736 204.46 48.8682C204.385 48.6536 204.348 48.4296 204.348 48.1962C204.348 47.6922 204.488 47.2396 204.768 46.8382C205.057 46.4369 205.44 46.1196 205.916 45.8862C206.392 45.6436 206.919 45.5222 207.498 45.5222C208.086 45.5222 208.618 45.6436 209.094 45.8862C209.57 46.1196 209.948 46.4369 210.228 46.8382C210.517 47.2396 210.662 47.6922 210.662 48.1962C210.662 48.4296 210.625 48.6536 210.55 48.8682C210.475 49.0736 210.368 49.2649 210.228 49.4422C210.097 49.6102 209.929 49.7689 209.724 49.9182C209.519 50.0582 209.281 50.1842 209.01 50.2962L208.94 49.9602C209.239 50.0629 209.509 50.1982 209.752 50.3662C209.995 50.5342 210.205 50.7302 210.382 50.9542C210.559 51.1782 210.695 51.4256 210.788 51.6962C210.891 51.9669 210.942 52.2516 210.942 52.5502C210.942 53.0916 210.788 53.5816 210.48 54.0202C210.172 54.4496 209.757 54.7902 209.234 55.0422C208.721 55.2942 208.142 55.4202 207.498 55.4202ZM207.498 53.8522C207.815 53.8522 208.1 53.7916 208.352 53.6702C208.604 53.5489 208.8 53.3856 208.94 53.1802C209.089 52.9749 209.164 52.7369 209.164 52.4662C209.164 52.1769 209.089 51.9249 208.94 51.7102C208.8 51.4862 208.604 51.3136 208.352 51.1922C208.1 51.0616 207.815 50.9962 207.498 50.9962C207.19 50.9962 206.91 51.0616 206.658 51.1922C206.415 51.3136 206.219 51.4862 206.07 51.7102C205.921 51.9249 205.846 52.1769 205.846 52.4662C205.846 52.7276 205.921 52.9609 206.07 53.1662C206.219 53.3716 206.415 53.5396 206.658 53.6702C206.91 53.7916 207.19 53.8522 207.498 53.8522ZM207.498 49.4562C207.778 49.4562 208.025 49.4049 208.24 49.3022C208.464 49.1996 208.637 49.0596 208.758 48.8822C208.879 48.7049 208.94 48.4996 208.94 48.2662C208.94 48.0236 208.879 47.8136 208.758 47.6362C208.637 47.4496 208.464 47.3049 208.24 47.2022C208.025 47.0902 207.778 47.0342 207.498 47.0342C207.227 47.0342 206.98 47.0902 206.756 47.2022C206.541 47.3049 206.373 47.4496 206.252 47.6362C206.131 47.8136 206.07 48.0236 206.07 48.2662C206.07 48.4996 206.131 48.7049 206.252 48.8822C206.373 49.0596 206.541 49.1996 206.756 49.3022C206.98 49.4049 207.227 49.4562 207.498 49.4562ZM213.629 55.3782L220.111 45.5782H221.777L215.225 55.3782H213.629ZM214.427 50.7722C213.989 50.7722 213.597 50.6556 213.251 50.4222C212.915 50.1889 212.649 49.8716 212.453 49.4702C212.267 49.0689 212.173 48.6116 212.173 48.0982C212.173 47.5756 212.267 47.1136 212.453 46.7122C212.649 46.3016 212.915 45.9796 213.251 45.7462C213.597 45.5129 213.993 45.3962 214.441 45.3962C214.88 45.3962 215.267 45.5129 215.603 45.7462C215.949 45.9796 216.215 46.3016 216.401 46.7122C216.597 47.1136 216.695 47.5756 216.695 48.0982C216.695 48.6022 216.597 49.0596 216.401 49.4702C216.205 49.8716 215.935 50.1889 215.589 50.4222C215.244 50.6556 214.857 50.7722 214.427 50.7722ZM214.441 49.5822C214.619 49.5822 214.773 49.5216 214.903 49.4002C215.034 49.2789 215.137 49.1109 215.211 48.8962C215.286 48.6722 215.323 48.4062 215.323 48.0982C215.323 47.7902 215.286 47.5242 215.211 47.3002C215.137 47.0762 215.034 46.9036 214.903 46.7822C214.773 46.6609 214.614 46.6002 214.427 46.6002C214.25 46.6002 214.091 46.6656 213.951 46.7962C213.821 46.9176 213.718 47.0902 213.643 47.3142C213.569 47.5289 213.531 47.7902 213.531 48.0982C213.531 48.4062 213.564 48.6722 213.629 48.8962C213.704 49.1109 213.811 49.2789 213.951 49.4002C214.091 49.5216 214.255 49.5822 214.441 49.5822ZM221.077 55.5042C220.639 55.5042 220.247 55.3876 219.901 55.1542C219.565 54.9209 219.299 54.6036 219.103 54.2022C218.907 53.8009 218.809 53.3436 218.809 52.8302C218.809 52.3076 218.903 51.8456 219.089 51.4442C219.285 51.0336 219.556 50.7116 219.901 50.4782C220.247 50.2449 220.639 50.1282 221.077 50.1282C221.525 50.1282 221.917 50.2449 222.253 50.4782C222.589 50.7116 222.851 51.0336 223.037 51.4442C223.233 51.8456 223.331 52.3076 223.331 52.8302C223.331 53.3342 223.233 53.7916 223.037 54.2022C222.841 54.6036 222.571 54.9209 222.225 55.1542C221.889 55.3876 221.507 55.5042 221.077 55.5042ZM221.077 54.3282C221.255 54.3282 221.409 54.2676 221.539 54.1462C221.679 54.0156 221.787 53.8429 221.861 53.6282C221.936 53.4042 221.973 53.1382 221.973 52.8302C221.973 52.5316 221.936 52.2702 221.861 52.0462C221.787 51.8222 221.679 51.6496 221.539 51.5282C221.409 51.3976 221.255 51.3322 221.077 51.3322C220.891 51.3322 220.727 51.3929 220.587 51.5142C220.457 51.6356 220.354 51.8129 220.279 52.0462C220.205 52.2702 220.167 52.5316 220.167 52.8302C220.167 53.1382 220.205 53.4042 220.279 53.6282C220.354 53.8429 220.457 54.0156 220.587 54.1462C220.727 54.2676 220.891 54.3282 221.077 54.3282Z" fill="white"/>
<rect y="46.4243" width="168" height="8.0738" rx="4.0369" fill="#353535"/>
<rect y="46.4243" width="120" height="8.0738" rx="4.0369" fill="url(#paint0_linear_336_1113)"/>
<defs>
<linearGradient id="paint0_linear_336_1113" x1="124" y1="19.6798" x2="-8.82262" y2="71.33" gradientUnits="userSpaceOnUse">
<stop stop-color="#FB035C"/>
<stop offset="1" stop-color="#FA9FA5"/>
</linearGradient>
<clipPath id="clip0_336_1113">
<rect width="24" height="24" fill="white" transform="translate(4 4.14761)"/>
</clipPath>
</defs>
</svg>
