<svg width="224" height="59" viewBox="0 0 224 59" fill="none" xmlns="http://www.w3.org/2000/svg">
<rect y="0.147614" width="32" height="32" rx="16" fill="#CFFFF3"/>
<g clip-path="url(#clip0_336_1116)">
<path d="M27.6397 19.0505C26.0371 25.4791 19.5259 29.3914 13.0965 27.7883C6.6698 26.1857 2.75746 19.6741 4.36085 13.246C5.96283 6.81664 12.474 2.90401 18.9014 4.50669C25.3303 6.10938 29.2424 12.6217 27.6396 19.0506L27.6397 19.0505H27.6397Z" fill="#CFFFF3"/>
<g clip-path="url(#clip1_336_1116)">
<path d="M12.0727 18.7799C12.1497 18.7029 12.2555 18.658 12.3678 18.658H22.5507C22.7368 18.658 22.8298 18.8826 22.6983 19.0141L20.6867 21.0257C20.6097 21.1027 20.5038 21.1476 20.3916 21.1476H10.2087C10.0226 21.1476 9.92958 20.923 10.0611 20.7915L12.0727 18.7799Z" fill="url(#paint0_linear_336_1116)"/>
<path d="M12.0727 11.2695C12.1529 11.1925 12.2587 11.1476 12.3678 11.1476H22.5507C22.7368 11.1476 22.8298 11.3722 22.6983 11.5037L20.6867 13.5153C20.6097 13.5923 20.5038 13.6372 20.3916 13.6372H10.2087C10.0226 13.6372 9.92958 13.4126 10.0611 13.2811L12.0727 11.2695Z" fill="url(#paint1_linear_336_1116)"/>
<path d="M20.6867 15.0007C20.6097 14.9237 20.5038 14.8788 20.3916 14.8788H10.2087C10.0226 14.8788 9.92958 15.1034 10.0611 15.2349L12.0727 17.2464C12.1497 17.3234 12.2555 17.3684 12.3678 17.3684H22.5507C22.7368 17.3684 22.8298 17.1438 22.6983 17.0122L20.6867 15.0007Z" fill="url(#paint2_linear_336_1116)"/>
</g>
</g>
<path d="M49.088 23.2246C48.3947 23.2246 47.76 23.1392 47.184 22.9686C46.6187 22.7979 46.112 22.5472 45.664 22.2166C45.2267 21.8859 44.832 21.4859 44.48 21.0166L45.984 19.3046C46.5067 20.0299 47.024 20.5259 47.536 20.7926C48.0587 21.0486 48.624 21.1766 49.232 21.1766C49.5627 21.1766 49.856 21.1339 50.112 21.0486C50.3787 20.9526 50.5867 20.8192 50.736 20.6486C50.8853 20.4779 50.96 20.2752 50.96 20.0406C50.96 19.8699 50.9227 19.7152 50.848 19.5766C50.7733 19.4272 50.6667 19.2992 50.528 19.1926C50.3893 19.0752 50.224 18.9739 50.032 18.8886C49.84 18.7926 49.6267 18.7126 49.392 18.6486C49.1573 18.5739 48.9013 18.5152 48.624 18.4726C48.0267 18.3339 47.504 18.1686 47.056 17.9766C46.608 17.7739 46.2347 17.5286 45.936 17.2406C45.6373 16.9419 45.4133 16.6059 45.264 16.2326C45.1253 15.8592 45.056 15.4379 45.056 14.9686C45.056 14.4886 45.1627 14.0459 45.376 13.6406C45.5893 13.2246 45.8827 12.8672 46.256 12.5686C46.64 12.2699 47.0773 12.0406 47.568 11.8806C48.0693 11.7206 48.5973 11.6406 49.152 11.6406C49.8347 11.6406 50.432 11.7206 50.944 11.8806C51.456 12.0299 51.8987 12.2486 52.272 12.5366C52.656 12.8246 52.976 13.1766 53.232 13.5926L51.712 15.0646C51.488 14.7659 51.2427 14.5152 50.976 14.3126C50.72 14.1099 50.4373 13.9606 50.128 13.8646C49.8293 13.7579 49.52 13.7046 49.2 13.7046C48.848 13.7046 48.544 13.7526 48.288 13.8486C48.032 13.9339 47.8293 14.0619 47.68 14.2326C47.5413 14.4032 47.472 14.6112 47.472 14.8566C47.472 15.0486 47.52 15.2192 47.616 15.3686C47.712 15.5179 47.8507 15.6512 48.032 15.7686C48.2133 15.8752 48.432 15.9712 48.688 16.0566C48.944 16.1419 49.2267 16.2166 49.536 16.2806C50.1227 16.3979 50.6507 16.5526 51.12 16.7446C51.5893 16.9366 51.9893 17.1712 52.32 17.4486C52.6613 17.7152 52.9227 18.0352 53.104 18.4086C53.2853 18.7712 53.376 19.1819 53.376 19.6406C53.376 20.3979 53.1947 21.0432 52.832 21.5766C52.4693 22.1099 51.968 22.5206 51.328 22.8086C50.688 23.0859 49.9413 23.2246 49.088 23.2246ZM59.1658 23.2246C58.3018 23.2246 57.5284 23.0379 56.8458 22.6646C56.1738 22.2806 55.6404 21.7579 55.2458 21.0966C54.8618 20.4352 54.6698 19.6779 54.6698 18.8246C54.6698 17.9712 54.8618 17.2192 55.2458 16.5686C55.6404 15.9072 56.1738 15.3846 56.8458 15.0006C57.5284 14.6166 58.3018 14.4246 59.1658 14.4246C60.0191 14.4246 60.7818 14.6166 61.4538 15.0006C62.1364 15.3846 62.6698 15.9072 63.0538 16.5686C63.4378 17.2192 63.6298 17.9712 63.6298 18.8246C63.6298 19.6779 63.4378 20.4352 63.0538 21.0966C62.6698 21.7579 62.1364 22.2806 61.4538 22.6646C60.7818 23.0379 60.0191 23.2246 59.1658 23.2246ZM59.1658 21.2406C59.5818 21.2406 59.9551 21.1392 60.2858 20.9366C60.6164 20.7232 60.8724 20.4352 61.0538 20.0726C61.2458 19.6992 61.3418 19.2832 61.3418 18.8246C61.3418 18.3552 61.2458 17.9392 61.0538 17.5766C60.8724 17.2032 60.6164 16.9152 60.2858 16.7126C59.9551 16.4992 59.5818 16.3926 59.1658 16.3926C58.7391 16.3926 58.3604 16.4992 58.0298 16.7126C57.6991 16.9259 57.4378 17.2139 57.2458 17.5766C57.0538 17.9392 56.9631 18.3552 56.9738 18.8246C56.9631 19.2832 57.0538 19.6992 57.2458 20.0726C57.4378 20.4352 57.6991 20.7232 58.0298 20.9366C58.3604 21.1392 58.7391 21.2406 59.1658 21.2406ZM65.3551 23.0646V11.2246H67.6271V23.0646H65.3551ZM73.7126 23.2246C72.8486 23.2246 72.0753 23.0379 71.3926 22.6646C70.7206 22.2806 70.1873 21.7579 69.7926 21.0966C69.4086 20.4352 69.2166 19.6779 69.2166 18.8246C69.2166 17.9712 69.4086 17.2192 69.7926 16.5686C70.1873 15.9072 70.7206 15.3846 71.3926 15.0006C72.0753 14.6166 72.8486 14.4246 73.7126 14.4246C74.566 14.4246 75.3286 14.6166 76.0006 15.0006C76.6833 15.3846 77.2166 15.9072 77.6006 16.5686C77.9846 17.2192 78.1766 17.9712 78.1766 18.8246C78.1766 19.6779 77.9846 20.4352 77.6006 21.0966C77.2166 21.7579 76.6833 22.2806 76.0006 22.6646C75.3286 23.0379 74.566 23.2246 73.7126 23.2246ZM73.7126 21.2406C74.1286 21.2406 74.502 21.1392 74.8326 20.9366C75.1633 20.7232 75.4193 20.4352 75.6006 20.0726C75.7926 19.6992 75.8886 19.2832 75.8886 18.8246C75.8886 18.3552 75.7926 17.9392 75.6006 17.5766C75.4193 17.2032 75.1633 16.9152 74.8326 16.7126C74.502 16.4992 74.1286 16.3926 73.7126 16.3926C73.286 16.3926 72.9073 16.4992 72.5766 16.7126C72.246 16.9259 71.9846 17.2139 71.7926 17.5766C71.6006 17.9392 71.51 18.3552 71.5206 18.8246C71.51 19.2832 71.6006 19.6992 71.7926 20.0726C71.9846 20.4352 72.246 20.7232 72.5766 20.9366C72.9073 21.1392 73.286 21.2406 73.7126 21.2406ZM79.886 23.0646V14.6006H82.062L82.126 16.3286L81.678 16.5206C81.7953 16.1366 82.0033 15.7899 82.302 15.4806C82.6113 15.1606 82.9793 14.9046 83.406 14.7126C83.8327 14.5206 84.2807 14.4246 84.75 14.4246C85.39 14.4246 85.9233 14.5526 86.35 14.8086C86.7873 15.0646 87.1127 15.4539 87.326 15.9766C87.55 16.4886 87.662 17.1232 87.662 17.8806V23.0646H85.39V18.0566C85.39 17.6726 85.3367 17.3526 85.23 17.0966C85.1233 16.8406 84.958 16.6539 84.734 16.5366C84.5207 16.4086 84.254 16.3552 83.934 16.3766C83.678 16.3766 83.438 16.4192 83.214 16.5046C83.0007 16.5792 82.814 16.6912 82.654 16.8406C82.5047 16.9899 82.382 17.1606 82.286 17.3526C82.2007 17.5446 82.158 17.7526 82.158 17.9766V23.0646H81.038C80.7927 23.0646 80.574 23.0646 80.382 23.0646C80.19 23.0646 80.0247 23.0646 79.886 23.0646ZM93.0071 23.2246C92.3031 23.2246 91.6685 23.0326 91.1031 22.6486C90.5378 22.2646 90.0898 21.7419 89.7591 21.0806C89.4285 20.4192 89.2631 19.6619 89.2631 18.8086C89.2631 17.9552 89.4285 17.2032 89.7591 16.5526C90.1005 15.8912 90.5591 15.3739 91.1351 15.0006C91.7111 14.6166 92.3671 14.4246 93.1031 14.4246C93.5191 14.4246 93.8978 14.4886 94.2391 14.6166C94.5911 14.7339 94.8951 14.8992 95.1511 15.1126C95.4178 15.3259 95.6418 15.5712 95.8231 15.8486C96.0045 16.1259 96.1325 16.4246 96.2071 16.7446L95.7271 16.6646V14.6006H97.9831V23.0646H95.6951V21.0326L96.2071 20.9846C96.1218 21.2832 95.9831 21.5659 95.7911 21.8326C95.5991 22.0992 95.3591 22.3392 95.0711 22.5526C94.7938 22.7552 94.4791 22.9206 94.1271 23.0486C93.7751 23.1659 93.4018 23.2246 93.0071 23.2246ZM93.6311 21.2566C94.0578 21.2566 94.4311 21.1552 94.7511 20.9526C95.0711 20.7499 95.3165 20.4672 95.4871 20.1046C95.6685 19.7312 95.7591 19.2992 95.7591 18.8086C95.7591 18.3286 95.6685 17.9072 95.4871 17.5446C95.3165 17.1819 95.0711 16.8992 94.7511 16.6966C94.4311 16.4832 94.0578 16.3766 93.6311 16.3766C93.2151 16.3766 92.8471 16.4832 92.5271 16.6966C92.2178 16.8992 91.9725 17.1819 91.7911 17.5446C91.6098 17.9072 91.5191 18.3286 91.5191 18.8086C91.5191 19.2992 91.6098 19.7312 91.7911 20.1046C91.9725 20.4672 92.2178 20.7499 92.5271 20.9526C92.8471 21.1552 93.2151 21.2566 93.6311 21.2566Z" fill="white"/>
<path d="M171.432 23.2246C170.429 23.2246 169.554 23.0592 168.808 22.7286C168.072 22.3872 167.437 21.8912 166.904 21.2406L168.168 19.3846C168.733 20.0459 169.282 20.5099 169.816 20.7766C170.36 21.0432 170.946 21.1766 171.576 21.1766C171.906 21.1766 172.2 21.1339 172.456 21.0486C172.722 20.9526 172.93 20.8192 173.08 20.6486C173.229 20.4779 173.304 20.2752 173.304 20.0406C173.304 19.8699 173.266 19.7152 173.192 19.5766C173.117 19.4272 173.01 19.2992 172.872 19.1926C172.733 19.0752 172.568 18.9739 172.376 18.8886C172.184 18.7926 171.97 18.7126 171.736 18.6486C171.501 18.5739 171.245 18.5152 170.968 18.4726C170.168 18.3019 169.501 18.0619 168.968 17.7526C168.445 17.4432 168.05 17.0592 167.784 16.6006C167.528 16.1419 167.4 15.5979 167.4 14.9686C167.4 14.4886 167.506 14.0459 167.72 13.6406C167.933 13.2246 168.226 12.8672 168.6 12.5686C168.984 12.2699 169.421 12.0406 169.912 11.8806C170.413 11.7206 170.941 11.6406 171.496 11.6406C172.392 11.6406 173.181 11.7899 173.864 12.0886C174.557 12.3766 175.154 12.8246 175.656 13.4326L174.504 15.0966C174.109 14.6379 173.656 14.2912 173.144 14.0566C172.642 13.8219 172.109 13.7046 171.544 13.7046C171.192 13.7046 170.888 13.7526 170.632 13.8486C170.376 13.9339 170.173 14.0619 170.024 14.2326C169.885 14.4032 169.816 14.6112 169.816 14.8566C169.816 15.0486 169.864 15.2192 169.96 15.3686C170.056 15.5179 170.194 15.6512 170.376 15.7686C170.557 15.8752 170.776 15.9712 171.032 16.0566C171.288 16.1419 171.57 16.2166 171.88 16.2806C172.466 16.3979 172.994 16.5526 173.464 16.7446C173.933 16.9366 174.333 17.1712 174.664 17.4486C175.005 17.7152 175.266 18.0352 175.448 18.4086C175.629 18.7712 175.72 19.1819 175.72 19.6406C175.72 20.3979 175.538 21.0432 175.176 21.5766C174.813 22.1099 174.312 22.5206 173.672 22.8086C173.032 23.0859 172.285 23.2246 171.432 23.2246ZM170.472 24.5206L170.6 17.1286L171.96 17.6566L172.088 24.5206H170.472ZM172.44 17.6726L171.08 17.1446L170.952 10.4886H172.568L172.44 17.6726ZM182.464 23.0646L181.936 21.7526L185.248 18.0886C185.429 17.8966 185.621 17.6726 185.824 17.4166C186.037 17.1606 186.24 16.8992 186.432 16.6326C186.634 16.3552 186.794 16.0886 186.912 15.8326C187.029 15.5659 187.088 15.3259 187.088 15.1126C187.088 14.8672 187.034 14.6539 186.928 14.4726C186.821 14.2806 186.666 14.1312 186.464 14.0246C186.261 13.9179 186.01 13.8646 185.712 13.8646C185.434 13.8646 185.173 13.9392 184.928 14.0886C184.682 14.2272 184.453 14.4352 184.24 14.7126C184.026 14.9899 183.84 15.3259 183.68 15.7206L181.888 14.7126C182.101 14.0939 182.405 13.5552 182.8 13.0966C183.194 12.6379 183.664 12.2806 184.208 12.0246C184.752 11.7686 185.333 11.6406 185.952 11.6406C186.602 11.6512 187.189 11.7899 187.712 12.0566C188.234 12.3232 188.645 12.6966 188.944 13.1766C189.242 13.6566 189.392 14.2112 189.392 14.8406C189.392 15.0752 189.365 15.3152 189.312 15.5606C189.269 15.8059 189.189 16.0619 189.072 16.3286C188.965 16.5952 188.821 16.8779 188.64 17.1766C188.469 17.4646 188.256 17.7739 188 18.1046C187.754 18.4246 187.472 18.7606 187.152 19.1126L184.608 21.8806L184.288 20.9046H189.856V23.0646H182.464ZM194.509 23.2246C193.645 23.2246 192.888 23.0379 192.237 22.6646C191.597 22.2912 191.005 21.6512 190.461 20.7446L192.221 19.6246C192.467 19.9979 192.712 20.3019 192.957 20.5366C193.213 20.7712 193.48 20.9419 193.757 21.0486C194.035 21.1552 194.323 21.2086 194.621 21.2086C194.941 21.2086 195.24 21.1339 195.517 20.9846C195.795 20.8352 196.013 20.6272 196.173 20.3606C196.344 20.0832 196.429 19.7686 196.429 19.4166C196.429 19.0539 196.36 18.7499 196.221 18.5046C196.083 18.2592 195.88 18.0726 195.613 17.9446C195.347 17.8166 195.032 17.7526 194.669 17.7526C194.509 17.7526 194.333 17.7686 194.141 17.8006C193.949 17.8326 193.752 17.8859 193.549 17.9606C193.347 18.0246 193.128 18.1046 192.893 18.2006L192.333 16.7286L195.293 13.4966L195.901 13.9286L191.197 13.8646V11.8006H197.933L198.365 12.6806L194.669 16.6806L194.109 16.0246C194.195 15.9819 194.333 15.9446 194.525 15.9126C194.728 15.8699 194.915 15.8486 195.085 15.8486C195.576 15.8486 196.035 15.9392 196.461 16.1206C196.888 16.3019 197.267 16.5526 197.597 16.8726C197.928 17.1926 198.184 17.5659 198.365 17.9926C198.557 18.4192 198.653 18.8779 198.653 19.3686C198.653 20.1046 198.467 20.7659 198.093 21.3526C197.731 21.9286 197.235 22.3872 196.605 22.7286C195.987 23.0592 195.288 23.2246 194.509 23.2246ZM200.626 26.1526L199.922 25.3046C200.338 25.1019 200.669 24.8566 200.914 24.5686C201.17 24.2806 201.298 24.0299 201.298 23.8166C201.298 23.7206 201.271 23.6192 201.218 23.5126C201.165 23.4059 201.047 23.2726 200.866 23.1126C200.631 22.9312 200.471 22.7606 200.386 22.6006C200.311 22.4299 200.274 22.2486 200.274 22.0566C200.274 21.7472 200.386 21.5019 200.61 21.3206C200.834 21.1392 201.122 21.0486 201.474 21.0486C201.762 21.0486 202.023 21.1339 202.258 21.3046C202.503 21.4646 202.695 21.6939 202.834 21.9926C202.973 22.2806 203.042 22.6166 203.042 23.0006C203.042 23.3419 202.983 23.6726 202.866 23.9926C202.749 24.3232 202.578 24.6272 202.354 24.9046C202.141 25.1926 201.885 25.4432 201.586 25.6566C201.298 25.8699 200.978 26.0352 200.626 26.1526ZM208.15 23.2246C207.286 23.2246 206.529 23.0379 205.878 22.6646C205.238 22.2912 204.646 21.6512 204.102 20.7446L205.862 19.6246C206.107 19.9979 206.353 20.3019 206.598 20.5366C206.854 20.7712 207.121 20.9419 207.398 21.0486C207.675 21.1552 207.963 21.2086 208.262 21.2086C208.582 21.2086 208.881 21.1339 209.158 20.9846C209.435 20.8352 209.654 20.6272 209.814 20.3606C209.985 20.0832 210.07 19.7686 210.07 19.4166C210.07 19.0539 210.001 18.7499 209.862 18.5046C209.723 18.2592 209.521 18.0726 209.254 17.9446C208.987 17.8166 208.673 17.7526 208.31 17.7526C208.15 17.7526 207.974 17.7686 207.782 17.8006C207.59 17.8326 207.393 17.8859 207.19 17.9606C206.987 18.0246 206.769 18.1046 206.534 18.2006L205.974 16.7286L208.934 13.4966L209.542 13.9286L204.838 13.8646V11.8006H211.574L212.006 12.6806L208.31 16.6806L207.75 16.0246C207.835 15.9819 207.974 15.9446 208.166 15.9126C208.369 15.8699 208.555 15.8486 208.726 15.8486C209.217 15.8486 209.675 15.9392 210.102 16.1206C210.529 16.3019 210.907 16.5526 211.238 16.8726C211.569 17.1926 211.825 17.5659 212.006 17.9926C212.198 18.4192 212.294 18.8779 212.294 19.3686C212.294 20.1046 212.107 20.7659 211.734 21.3526C211.371 21.9286 210.875 22.3872 210.246 22.7286C209.627 23.0592 208.929 23.2246 208.15 23.2246ZM214.347 23.0646V11.8646H219.211C219.957 11.8646 220.587 11.9766 221.099 12.2006C221.621 12.4139 222.016 12.7286 222.283 13.1446C222.549 13.5606 222.683 14.0566 222.683 14.6326C222.683 15.2726 222.523 15.8059 222.203 16.2326C221.883 16.6592 221.424 16.9526 220.827 17.1126L220.811 16.7926C221.301 16.9099 221.733 17.1019 222.107 17.3686C222.48 17.6352 222.768 17.9659 222.971 18.3606C223.173 18.7552 223.275 19.2032 223.275 19.7046C223.275 20.2592 223.184 20.7499 223.003 21.1766C222.821 21.5926 222.555 21.9392 222.203 22.2166C221.851 22.4939 221.435 22.7072 220.955 22.8566C220.485 22.9952 219.957 23.0646 219.371 23.0646H214.347ZM216.651 20.9846H219.275C219.616 20.9846 219.904 20.9366 220.139 20.8406C220.384 20.7339 220.571 20.5739 220.699 20.3606C220.827 20.1472 220.891 19.8966 220.891 19.6086C220.891 19.3312 220.821 19.0966 220.683 18.9046C220.544 18.7126 220.347 18.5686 220.091 18.4726C219.845 18.3659 219.547 18.3126 219.195 18.3126H216.651V20.9846ZM216.651 16.4086H218.923C219.211 16.4086 219.461 16.3552 219.675 16.2486C219.888 16.1419 220.048 15.9979 220.155 15.8166C220.272 15.6352 220.331 15.4219 220.331 15.1766C220.331 14.7819 220.203 14.4779 219.947 14.2646C219.691 14.0512 219.307 13.9446 218.795 13.9446H216.651V16.4086Z" fill="white"/>
<path d="M178.328 55.3782L182.346 46.5022L182.682 47.1882H177.67V45.5502H183.844L184.054 46.5722L180.218 55.3782H178.328ZM187.348 54.6922V46.7402L187.866 47.4122L185.878 48.4202L185.472 46.8242L188.146 45.4382H189.154V54.6922H187.348ZM185.71 55.3782V53.6982H190.834V55.3782H185.71ZM192.87 57.9822L192.296 57.2962C192.642 57.1096 192.917 56.8902 193.122 56.6382C193.337 56.3956 193.444 56.1856 193.444 56.0082C193.444 55.9149 193.421 55.8216 193.374 55.7282C193.337 55.6442 193.239 55.5276 193.08 55.3782C192.884 55.2009 192.754 55.0469 192.688 54.9162C192.623 54.7856 192.59 54.6409 192.59 54.4822C192.59 54.2396 192.679 54.0436 192.856 53.8942C193.034 53.7449 193.262 53.6702 193.542 53.6702C193.794 53.6702 194.018 53.7402 194.214 53.8802C194.42 54.0202 194.578 54.2162 194.69 54.4682C194.802 54.7109 194.858 54.9956 194.858 55.3222C194.858 55.6116 194.807 55.8916 194.704 56.1622C194.611 56.4422 194.471 56.6989 194.284 56.9322C194.107 57.1656 193.897 57.3709 193.654 57.5482C193.421 57.7349 193.16 57.8796 192.87 57.9822ZM199.512 55.3782C199.017 55.3782 198.555 55.2896 198.126 55.1122C197.706 54.9349 197.337 54.6922 197.02 54.3842C196.712 54.0669 196.469 53.6982 196.292 53.2782C196.115 52.8582 196.026 52.3962 196.026 51.8922C196.026 51.6122 196.059 51.3136 196.124 50.9962C196.199 50.6789 196.306 50.3429 196.446 49.9882C196.595 49.6242 196.768 49.2462 196.964 48.8542C197.16 48.4622 197.389 48.0516 197.65 47.6222L198.952 45.4102H200.688L200.744 45.5502L199.078 48.2942C198.807 48.7422 198.569 49.1669 198.364 49.5682C198.159 49.9602 197.981 50.3382 197.832 50.7022C197.692 51.0569 197.575 51.4022 197.482 51.7382L197.104 50.4642C197.244 50.1656 197.417 49.8949 197.622 49.6522C197.827 49.4096 198.056 49.2042 198.308 49.0362C198.56 48.8682 198.821 48.7422 199.092 48.6582C199.372 48.5742 199.657 48.5322 199.946 48.5322C200.487 48.5322 200.987 48.6816 201.444 48.9802C201.901 49.2696 202.265 49.6569 202.536 50.1422C202.816 50.6276 202.956 51.1596 202.956 51.7382C202.956 52.4382 202.807 53.0636 202.508 53.6142C202.219 54.1556 201.813 54.5849 201.29 54.9022C200.767 55.2196 200.175 55.3782 199.512 55.3782ZM199.526 53.7822C199.862 53.7822 200.161 53.7029 200.422 53.5442C200.693 53.3856 200.903 53.1662 201.052 52.8862C201.201 52.5969 201.276 52.2656 201.276 51.8922C201.276 51.5749 201.197 51.2809 201.038 51.0102C200.889 50.7302 200.683 50.5062 200.422 50.3382C200.161 50.1609 199.867 50.0722 199.54 50.0722C199.185 50.0722 198.868 50.1562 198.588 50.3242C198.317 50.4829 198.103 50.7022 197.944 50.9822C197.795 51.2529 197.72 51.5562 197.72 51.8922C197.72 52.2469 197.795 52.5689 197.944 52.8582C198.103 53.1382 198.317 53.3622 198.588 53.5302C198.859 53.6982 199.171 53.7822 199.526 53.7822ZM207.498 55.4202C206.873 55.4202 206.299 55.2942 205.776 55.0422C205.263 54.7809 204.852 54.4356 204.544 54.0062C204.236 53.5676 204.082 53.0822 204.082 52.5502C204.082 52.2329 204.124 51.9389 204.208 51.6682C204.301 51.3976 204.432 51.1549 204.6 50.9402C204.777 50.7256 204.987 50.5342 205.23 50.3662C205.482 50.1889 205.767 50.0349 206.084 49.9042L205.972 50.2962C205.729 50.1936 205.505 50.0722 205.3 49.9322C205.104 49.7922 204.931 49.6336 204.782 49.4562C204.642 49.2696 204.535 49.0736 204.46 48.8682C204.385 48.6536 204.348 48.4296 204.348 48.1962C204.348 47.6922 204.488 47.2396 204.768 46.8382C205.057 46.4369 205.44 46.1196 205.916 45.8862C206.392 45.6436 206.919 45.5222 207.498 45.5222C208.086 45.5222 208.618 45.6436 209.094 45.8862C209.57 46.1196 209.948 46.4369 210.228 46.8382C210.517 47.2396 210.662 47.6922 210.662 48.1962C210.662 48.4296 210.625 48.6536 210.55 48.8682C210.475 49.0736 210.368 49.2649 210.228 49.4422C210.097 49.6102 209.929 49.7689 209.724 49.9182C209.519 50.0582 209.281 50.1842 209.01 50.2962L208.94 49.9602C209.239 50.0629 209.509 50.1982 209.752 50.3662C209.995 50.5342 210.205 50.7302 210.382 50.9542C210.559 51.1782 210.695 51.4256 210.788 51.6962C210.891 51.9669 210.942 52.2516 210.942 52.5502C210.942 53.0916 210.788 53.5816 210.48 54.0202C210.172 54.4496 209.757 54.7902 209.234 55.0422C208.721 55.2942 208.142 55.4202 207.498 55.4202ZM207.498 53.8522C207.815 53.8522 208.1 53.7916 208.352 53.6702C208.604 53.5489 208.8 53.3856 208.94 53.1802C209.089 52.9749 209.164 52.7369 209.164 52.4662C209.164 52.1769 209.089 51.9249 208.94 51.7102C208.8 51.4862 208.604 51.3136 208.352 51.1922C208.1 51.0616 207.815 50.9962 207.498 50.9962C207.19 50.9962 206.91 51.0616 206.658 51.1922C206.415 51.3136 206.219 51.4862 206.07 51.7102C205.921 51.9249 205.846 52.1769 205.846 52.4662C205.846 52.7276 205.921 52.9609 206.07 53.1662C206.219 53.3716 206.415 53.5396 206.658 53.6702C206.91 53.7916 207.19 53.8522 207.498 53.8522ZM207.498 49.4562C207.778 49.4562 208.025 49.4049 208.24 49.3022C208.464 49.1996 208.637 49.0596 208.758 48.8822C208.879 48.7049 208.94 48.4996 208.94 48.2662C208.94 48.0236 208.879 47.8136 208.758 47.6362C208.637 47.4496 208.464 47.3049 208.24 47.2022C208.025 47.0902 207.778 47.0342 207.498 47.0342C207.227 47.0342 206.98 47.0902 206.756 47.2022C206.541 47.3049 206.373 47.4496 206.252 47.6362C206.131 47.8136 206.07 48.0236 206.07 48.2662C206.07 48.4996 206.131 48.7049 206.252 48.8822C206.373 49.0596 206.541 49.1996 206.756 49.3022C206.98 49.4049 207.227 49.4562 207.498 49.4562ZM213.629 55.3782L220.111 45.5782H221.777L215.225 55.3782H213.629ZM214.427 50.7722C213.989 50.7722 213.597 50.6556 213.251 50.4222C212.915 50.1889 212.649 49.8716 212.453 49.4702C212.267 49.0689 212.173 48.6116 212.173 48.0982C212.173 47.5756 212.267 47.1136 212.453 46.7122C212.649 46.3016 212.915 45.9796 213.251 45.7462C213.597 45.5129 213.993 45.3962 214.441 45.3962C214.88 45.3962 215.267 45.5129 215.603 45.7462C215.949 45.9796 216.215 46.3016 216.401 46.7122C216.597 47.1136 216.695 47.5756 216.695 48.0982C216.695 48.6022 216.597 49.0596 216.401 49.4702C216.205 49.8716 215.935 50.1889 215.589 50.4222C215.244 50.6556 214.857 50.7722 214.427 50.7722ZM214.441 49.5822C214.619 49.5822 214.773 49.5216 214.903 49.4002C215.034 49.2789 215.137 49.1109 215.211 48.8962C215.286 48.6722 215.323 48.4062 215.323 48.0982C215.323 47.7902 215.286 47.5242 215.211 47.3002C215.137 47.0762 215.034 46.9036 214.903 46.7822C214.773 46.6609 214.614 46.6002 214.427 46.6002C214.25 46.6002 214.091 46.6656 213.951 46.7962C213.821 46.9176 213.718 47.0902 213.643 47.3142C213.569 47.5289 213.531 47.7902 213.531 48.0982C213.531 48.4062 213.564 48.6722 213.629 48.8962C213.704 49.1109 213.811 49.2789 213.951 49.4002C214.091 49.5216 214.255 49.5822 214.441 49.5822ZM221.077 55.5042C220.639 55.5042 220.247 55.3876 219.901 55.1542C219.565 54.9209 219.299 54.6036 219.103 54.2022C218.907 53.8009 218.809 53.3436 218.809 52.8302C218.809 52.3076 218.903 51.8456 219.089 51.4442C219.285 51.0336 219.556 50.7116 219.901 50.4782C220.247 50.2449 220.639 50.1282 221.077 50.1282C221.525 50.1282 221.917 50.2449 222.253 50.4782C222.589 50.7116 222.851 51.0336 223.037 51.4442C223.233 51.8456 223.331 52.3076 223.331 52.8302C223.331 53.3342 223.233 53.7916 223.037 54.2022C222.841 54.6036 222.571 54.9209 222.225 55.1542C221.889 55.3876 221.507 55.5042 221.077 55.5042ZM221.077 54.3282C221.255 54.3282 221.409 54.2676 221.539 54.1462C221.679 54.0156 221.787 53.8429 221.861 53.6282C221.936 53.4042 221.973 53.1382 221.973 52.8302C221.973 52.5316 221.936 52.2702 221.861 52.0462C221.787 51.8222 221.679 51.6496 221.539 51.5282C221.409 51.3976 221.255 51.3322 221.077 51.3322C220.891 51.3322 220.727 51.3929 220.587 51.5142C220.457 51.6356 220.354 51.8129 220.279 52.0462C220.205 52.2702 220.167 52.5316 220.167 52.8302C220.167 53.1382 220.205 53.4042 220.279 53.6282C220.354 53.8429 220.457 54.0156 220.587 54.1462C220.727 54.2676 220.891 54.3282 221.077 54.3282Z" fill="white"/>
<rect y="46.4243" width="168" height="8.0738" rx="4.0369" fill="#353535"/>
<rect y="46.4243" width="120" height="8.0738" rx="4.0369" fill="url(#paint3_linear_336_1116)"/>
<defs>
<linearGradient id="paint0_linear_336_1116" x1="21.5779" y1="9.94595" x2="14.5306" y2="23.4445" gradientUnits="userSpaceOnUse">
<stop stop-color="#00FFA3"/>
<stop offset="1" stop-color="#DC1FFF"/>
</linearGradient>
<linearGradient id="paint1_linear_336_1116" x1="18.4964" y1="8.33717" x2="11.4491" y2="21.8357" gradientUnits="userSpaceOnUse">
<stop stop-color="#00FFA3"/>
<stop offset="1" stop-color="#DC1FFF"/>
</linearGradient>
<linearGradient id="paint2_linear_336_1116" x1="20.0274" y1="9.13647" x2="12.98" y2="22.635" gradientUnits="userSpaceOnUse">
<stop stop-color="#00FFA3"/>
<stop offset="1" stop-color="#DC1FFF"/>
</linearGradient>
<linearGradient id="paint3_linear_336_1116" x1="124" y1="19.6798" x2="-8.82262" y2="71.33" gradientUnits="userSpaceOnUse">
<stop stop-color="#FB03F5"/>
<stop offset="1" stop-color="#AA9CFF"/>
</linearGradient>
<clipPath id="clip0_336_1116">
<rect width="24" height="24" fill="white" transform="translate(4 4.14761)"/>
</clipPath>
<clipPath id="clip1_336_1116">
<rect width="12.7591" height="10" fill="white" transform="translate(10 11.1476)"/>
</clipPath>
</defs>
</svg>
