<svg width="224" height="60" viewBox="0 0 224 60" fill="none" xmlns="http://www.w3.org/2000/svg">
<rect y="0.690063" width="32" height="32" rx="16" fill="#50AF95"/>
<g clip-path="url(#clip0_80_1351)">
<path fill-rule="evenodd" clip-rule="evenodd" d="M8.39449 4.80794L4.01845 15.3745C4.0018 15.4138 3.99652 15.4582 4.00339 15.5012C4.01026 15.5442 4.02892 15.5836 4.05663 15.6135L15.8753 28.6324C15.9088 28.6694 15.9536 28.6901 16.0001 28.6901C16.0466 28.6901 16.0913 28.6694 16.1249 28.6324L27.9435 15.6143C27.9712 15.5844 27.9899 15.5451 27.9967 15.5021C28.0036 15.4591 27.9983 15.4147 27.9817 15.3754L23.6056 4.80875C23.5915 4.77326 23.5688 4.7432 23.5402 4.72216C23.5116 4.70111 23.4784 4.68998 23.4444 4.69008H8.55712C8.52301 4.68959 8.4895 4.70046 8.46065 4.72137C8.43179 4.74228 8.40882 4.77235 8.39449 4.80794V4.80794V4.80794Z" fill="#50AF95"/>
<path fill-rule="evenodd" clip-rule="evenodd" d="M17.5184 16.4596C17.4336 16.4669 16.9952 16.497 16.0173 16.497C15.2396 16.497 14.6873 16.4701 14.4936 16.4596C11.4879 16.3076 9.24433 15.7061 9.24433 14.9859C9.24433 14.2658 11.4879 13.6651 14.4936 13.5107V15.8605C14.6902 15.8768 15.253 15.915 16.0308 15.915C16.9641 15.915 17.4315 15.8703 17.5156 15.8613V13.5123C20.515 13.6659 22.7536 14.2674 22.7536 14.9859C22.7536 15.7045 20.5157 16.306 17.5156 16.4588L17.5184 16.4596ZM17.5184 13.2693V11.1665H21.7043V7.95996H10.3078V11.1665H14.4929V13.2685C11.0912 13.4481 8.53302 14.2227 8.53302 15.1509C8.53302 16.0792 11.0912 16.853 14.4929 17.0334V23.7717H17.5177V17.031C20.9117 16.8514 23.4656 16.0776 23.4656 15.1501C23.4656 14.2227 20.9138 13.4489 17.5177 13.2685L17.5184 13.2693Z" fill="white"/>
</g>
<path d="M47.792 23.6071V14.5671H44.528V12.4071H53.552V14.5671H50.192V23.6071H47.792ZM57.6364 23.7671C56.719 23.7671 55.919 23.5804 55.2364 23.2071C54.5537 22.8337 54.0204 22.3217 53.6364 21.6711C53.2524 21.0204 53.0604 20.2737 53.0604 19.4311C53.0604 18.7804 53.167 18.1831 53.3804 17.6391C53.5937 17.0951 53.8924 16.6257 54.2764 16.2311C54.6604 15.8257 55.1137 15.5164 55.6364 15.3031C56.1697 15.0791 56.7457 14.9671 57.3644 14.9671C57.9404 14.9671 58.4737 15.0737 58.9644 15.2871C59.455 15.4897 59.8764 15.7831 60.2284 16.1671C60.591 16.5404 60.8684 16.9831 61.0604 17.4951C61.2524 18.0071 61.3377 18.5671 61.3164 19.1751L61.3004 19.8791H54.5004L54.1324 18.4871H59.4284L59.1724 18.7751V18.4231C59.151 18.1351 59.055 17.8737 58.8844 17.6391C58.7244 17.4044 58.5164 17.2231 58.2604 17.0951C58.0044 16.9671 57.7164 16.9031 57.3964 16.9031C56.927 16.9031 56.527 16.9937 56.1964 17.1751C55.8764 17.3564 55.631 17.6231 55.4604 17.9751C55.2897 18.3271 55.2044 18.7537 55.2044 19.2551C55.2044 19.7671 55.311 20.2097 55.5244 20.5831C55.7484 20.9564 56.0577 21.2497 56.4524 21.4631C56.8577 21.6657 57.3324 21.7671 57.8764 21.7671C58.2497 21.7671 58.591 21.7084 58.9004 21.5911C59.2097 21.4737 59.5404 21.2711 59.8924 20.9831L60.9804 22.5031C60.671 22.7804 60.3297 23.0151 59.9564 23.2071C59.583 23.3884 59.199 23.5271 58.8044 23.6231C58.4097 23.7191 58.0204 23.7671 57.6364 23.7671ZM63.8114 23.6071V12.9991H66.0834V23.6071H63.8114ZM62.2274 17.1751V15.1431H67.8114V17.1751H62.2274ZM69.2923 23.6071V11.7671H71.5323V16.8711L71.0843 17.0631C71.2016 16.6791 71.4096 16.3324 71.7083 16.0231C72.0176 15.7031 72.3856 15.4471 72.8123 15.2551C73.2389 15.0631 73.6869 14.9671 74.1563 14.9671C74.7963 14.9671 75.3296 15.0951 75.7563 15.3511C76.1936 15.6071 76.5189 15.9964 76.7323 16.5191C76.9563 17.0311 77.0683 17.6657 77.0683 18.4231V23.6071H74.7963V18.5991C74.7963 18.2151 74.7429 17.8951 74.6363 17.6391C74.5296 17.3831 74.3643 17.1964 74.1403 17.0791C73.9269 16.9511 73.6603 16.8977 73.3403 16.9191C73.0843 16.9191 72.8443 16.9617 72.6203 17.0471C72.4069 17.1217 72.2203 17.2337 72.0603 17.3831C71.9109 17.5324 71.7883 17.7031 71.6923 17.8951C71.6069 18.0871 71.5643 18.2951 71.5643 18.5191V23.6071H70.4443C70.1989 23.6071 69.9803 23.6071 69.7883 23.6071C69.5963 23.6071 69.4309 23.6071 69.2923 23.6071ZM83.2614 23.7671C82.344 23.7671 81.544 23.5804 80.8614 23.2071C80.1787 22.8337 79.6454 22.3217 79.2614 21.6711C78.8774 21.0204 78.6854 20.2737 78.6854 19.4311C78.6854 18.7804 78.792 18.1831 79.0054 17.6391C79.2187 17.0951 79.5174 16.6257 79.9014 16.2311C80.2854 15.8257 80.7387 15.5164 81.2614 15.3031C81.7947 15.0791 82.3707 14.9671 82.9894 14.9671C83.5654 14.9671 84.0987 15.0737 84.5894 15.2871C85.08 15.4897 85.5014 15.7831 85.8534 16.1671C86.216 16.5404 86.4934 16.9831 86.6854 17.4951C86.8774 18.0071 86.9627 18.5671 86.9414 19.1751L86.9254 19.8791H80.1254L79.7574 18.4871H85.0534L84.7974 18.7751V18.4231C84.776 18.1351 84.68 17.8737 84.5094 17.6391C84.3494 17.4044 84.1414 17.2231 83.8854 17.0951C83.6294 16.9671 83.3414 16.9031 83.0214 16.9031C82.552 16.9031 82.152 16.9937 81.8214 17.1751C81.5014 17.3564 81.256 17.6231 81.0854 17.9751C80.9147 18.3271 80.8294 18.7537 80.8294 19.2551C80.8294 19.7671 80.936 20.2097 81.1494 20.5831C81.3734 20.9564 81.6827 21.2497 82.0774 21.4631C82.4827 21.6657 82.9574 21.7671 83.5014 21.7671C83.8747 21.7671 84.216 21.7084 84.5254 21.5911C84.8347 21.4737 85.1654 21.2711 85.5174 20.9831L86.6054 22.5031C86.296 22.7804 85.9547 23.0151 85.5814 23.2071C85.208 23.3884 84.824 23.5271 84.4294 23.6231C84.0347 23.7191 83.6454 23.7671 83.2614 23.7671ZM88.6204 23.6071V15.1431H90.8124L90.8924 17.8631L90.5084 17.3031C90.6364 16.8657 90.8444 16.4711 91.1324 16.1191C91.4204 15.7564 91.7564 15.4737 92.1404 15.2711C92.535 15.0684 92.9457 14.9671 93.3724 14.9671C93.5537 14.9671 93.7297 14.9831 93.9004 15.0151C94.071 15.0471 94.215 15.0844 94.3324 15.1271L93.7244 17.6231C93.5964 17.5591 93.4417 17.5057 93.2604 17.4631C93.079 17.4097 92.8924 17.3831 92.7004 17.3831C92.4444 17.3831 92.2044 17.4311 91.9804 17.5271C91.767 17.6124 91.5804 17.7404 91.4204 17.9111C91.2604 18.0711 91.1324 18.2631 91.0364 18.4871C90.951 18.7111 90.9084 18.9564 90.9084 19.2231V23.6071H88.6204Z" fill="white"/>
<path d="M171.432 23.7671C170.429 23.7671 169.554 23.6017 168.808 23.2711C168.072 22.9297 167.437 22.4337 166.904 21.7831L168.168 19.9271C168.733 20.5884 169.282 21.0524 169.816 21.3191C170.36 21.5857 170.946 21.7191 171.576 21.7191C171.906 21.7191 172.2 21.6764 172.456 21.5911C172.722 21.4951 172.93 21.3617 173.08 21.1911C173.229 21.0204 173.304 20.8177 173.304 20.5831C173.304 20.4124 173.266 20.2577 173.192 20.1191C173.117 19.9697 173.01 19.8417 172.872 19.7351C172.733 19.6177 172.568 19.5164 172.376 19.4311C172.184 19.3351 171.97 19.2551 171.736 19.1911C171.501 19.1164 171.245 19.0577 170.968 19.0151C170.168 18.8444 169.501 18.6044 168.968 18.2951C168.445 17.9857 168.05 17.6017 167.784 17.1431C167.528 16.6844 167.4 16.1404 167.4 15.5111C167.4 15.0311 167.506 14.5884 167.72 14.1831C167.933 13.7671 168.226 13.4097 168.6 13.1111C168.984 12.8124 169.421 12.5831 169.912 12.4231C170.413 12.2631 170.941 12.1831 171.496 12.1831C172.392 12.1831 173.181 12.3324 173.864 12.6311C174.557 12.9191 175.154 13.3671 175.656 13.9751L174.504 15.6391C174.109 15.1804 173.656 14.8337 173.144 14.5991C172.642 14.3644 172.109 14.2471 171.544 14.2471C171.192 14.2471 170.888 14.2951 170.632 14.3911C170.376 14.4764 170.173 14.6044 170.024 14.7751C169.885 14.9457 169.816 15.1537 169.816 15.3991C169.816 15.5911 169.864 15.7617 169.96 15.9111C170.056 16.0604 170.194 16.1937 170.376 16.3111C170.557 16.4177 170.776 16.5137 171.032 16.5991C171.288 16.6844 171.57 16.7591 171.88 16.8231C172.466 16.9404 172.994 17.0951 173.464 17.2871C173.933 17.4791 174.333 17.7137 174.664 17.9911C175.005 18.2577 175.266 18.5777 175.448 18.9511C175.629 19.3137 175.72 19.7244 175.72 20.1831C175.72 20.9404 175.538 21.5857 175.176 22.1191C174.813 22.6524 174.312 23.0631 173.672 23.3511C173.032 23.6284 172.285 23.7671 171.432 23.7671ZM170.472 25.0631L170.6 17.6711L171.96 18.1991L172.088 25.0631H170.472ZM172.44 18.2151L171.08 17.6871L170.952 11.0311H172.568L172.44 18.2151ZM182.464 23.6071L181.936 22.2951L185.248 18.6311C185.429 18.4391 185.621 18.2151 185.824 17.9591C186.037 17.7031 186.24 17.4417 186.432 17.1751C186.634 16.8977 186.794 16.6311 186.912 16.3751C187.029 16.1084 187.088 15.8684 187.088 15.6551C187.088 15.4097 187.034 15.1964 186.928 15.0151C186.821 14.8231 186.666 14.6737 186.464 14.5671C186.261 14.4604 186.01 14.4071 185.712 14.4071C185.434 14.4071 185.173 14.4817 184.928 14.6311C184.682 14.7697 184.453 14.9777 184.24 15.2551C184.026 15.5324 183.84 15.8684 183.68 16.2631L181.888 15.2551C182.101 14.6364 182.405 14.0977 182.8 13.6391C183.194 13.1804 183.664 12.8231 184.208 12.5671C184.752 12.3111 185.333 12.1831 185.952 12.1831C186.602 12.1937 187.189 12.3324 187.712 12.5991C188.234 12.8657 188.645 13.2391 188.944 13.7191C189.242 14.1991 189.392 14.7537 189.392 15.3831C189.392 15.6177 189.365 15.8577 189.312 16.1031C189.269 16.3484 189.189 16.6044 189.072 16.8711C188.965 17.1377 188.821 17.4204 188.64 17.7191C188.469 18.0071 188.256 18.3164 188 18.6471C187.754 18.9671 187.472 19.3031 187.152 19.6551L184.608 22.4231L184.288 21.4471H189.856V23.6071H182.464ZM194.509 23.7671C193.645 23.7671 192.888 23.5804 192.237 23.2071C191.597 22.8337 191.005 22.1937 190.461 21.2871L192.221 20.1671C192.467 20.5404 192.712 20.8444 192.957 21.0791C193.213 21.3137 193.48 21.4844 193.757 21.5911C194.035 21.6977 194.323 21.7511 194.621 21.7511C194.941 21.7511 195.24 21.6764 195.517 21.5271C195.795 21.3777 196.013 21.1697 196.173 20.9031C196.344 20.6257 196.429 20.3111 196.429 19.9591C196.429 19.5964 196.36 19.2924 196.221 19.0471C196.083 18.8017 195.88 18.6151 195.613 18.4871C195.347 18.3591 195.032 18.2951 194.669 18.2951C194.509 18.2951 194.333 18.3111 194.141 18.3431C193.949 18.3751 193.752 18.4284 193.549 18.5031C193.347 18.5671 193.128 18.6471 192.893 18.7431L192.333 17.2711L195.293 14.0391L195.901 14.4711L191.197 14.4071V12.3431H197.933L198.365 13.2231L194.669 17.2231L194.109 16.5671C194.195 16.5244 194.333 16.4871 194.525 16.4551C194.728 16.4124 194.915 16.3911 195.085 16.3911C195.576 16.3911 196.035 16.4817 196.461 16.6631C196.888 16.8444 197.267 17.0951 197.597 17.4151C197.928 17.7351 198.184 18.1084 198.365 18.5351C198.557 18.9617 198.653 19.4204 198.653 19.9111C198.653 20.6471 198.467 21.3084 198.093 21.8951C197.731 22.4711 197.235 22.9297 196.605 23.2711C195.987 23.6017 195.288 23.7671 194.509 23.7671ZM200.626 26.6951L199.922 25.8471C200.338 25.6444 200.669 25.3991 200.914 25.1111C201.17 24.8231 201.298 24.5724 201.298 24.3591C201.298 24.2631 201.271 24.1617 201.218 24.0551C201.165 23.9484 201.047 23.8151 200.866 23.6551C200.631 23.4737 200.471 23.3031 200.386 23.1431C200.311 22.9724 200.274 22.7911 200.274 22.5991C200.274 22.2897 200.386 22.0444 200.61 21.8631C200.834 21.6817 201.122 21.5911 201.474 21.5911C201.762 21.5911 202.023 21.6764 202.258 21.8471C202.503 22.0071 202.695 22.2364 202.834 22.5351C202.973 22.8231 203.042 23.1591 203.042 23.5431C203.042 23.8844 202.983 24.2151 202.866 24.5351C202.749 24.8657 202.578 25.1697 202.354 25.4471C202.141 25.7351 201.885 25.9857 201.586 26.1991C201.298 26.4124 200.978 26.5777 200.626 26.6951ZM208.15 23.7671C207.286 23.7671 206.529 23.5804 205.878 23.2071C205.238 22.8337 204.646 22.1937 204.102 21.2871L205.862 20.1671C206.107 20.5404 206.353 20.8444 206.598 21.0791C206.854 21.3137 207.121 21.4844 207.398 21.5911C207.675 21.6977 207.963 21.7511 208.262 21.7511C208.582 21.7511 208.881 21.6764 209.158 21.5271C209.435 21.3777 209.654 21.1697 209.814 20.9031C209.985 20.6257 210.07 20.3111 210.07 19.9591C210.07 19.5964 210.001 19.2924 209.862 19.0471C209.723 18.8017 209.521 18.6151 209.254 18.4871C208.987 18.3591 208.673 18.2951 208.31 18.2951C208.15 18.2951 207.974 18.3111 207.782 18.3431C207.59 18.3751 207.393 18.4284 207.19 18.5031C206.987 18.5671 206.769 18.6471 206.534 18.7431L205.974 17.2711L208.934 14.0391L209.542 14.4711L204.838 14.4071V12.3431H211.574L212.006 13.2231L208.31 17.2231L207.75 16.5671C207.835 16.5244 207.974 16.4871 208.166 16.4551C208.369 16.4124 208.555 16.3911 208.726 16.3911C209.217 16.3911 209.675 16.4817 210.102 16.6631C210.529 16.8444 210.907 17.0951 211.238 17.4151C211.569 17.7351 211.825 18.1084 212.006 18.5351C212.198 18.9617 212.294 19.4204 212.294 19.9111C212.294 20.6471 212.107 21.3084 211.734 21.8951C211.371 22.4711 210.875 22.9297 210.246 23.2711C209.627 23.6017 208.929 23.7671 208.15 23.7671ZM214.347 23.6071V12.4071H219.211C219.957 12.4071 220.587 12.5191 221.099 12.7431C221.621 12.9564 222.016 13.2711 222.283 13.6871C222.549 14.1031 222.683 14.5991 222.683 15.1751C222.683 15.8151 222.523 16.3484 222.203 16.7751C221.883 17.2017 221.424 17.4951 220.827 17.6551L220.811 17.3351C221.301 17.4524 221.733 17.6444 222.107 17.9111C222.48 18.1777 222.768 18.5084 222.971 18.9031C223.173 19.2977 223.275 19.7457 223.275 20.2471C223.275 20.8017 223.184 21.2924 223.003 21.7191C222.821 22.1351 222.555 22.4817 222.203 22.7591C221.851 23.0364 221.435 23.2497 220.955 23.3991C220.485 23.5377 219.957 23.6071 219.371 23.6071H214.347ZM216.651 21.5271H219.275C219.616 21.5271 219.904 21.4791 220.139 21.3831C220.384 21.2764 220.571 21.1164 220.699 20.9031C220.827 20.6897 220.891 20.4391 220.891 20.1511C220.891 19.8737 220.821 19.6391 220.683 19.4471C220.544 19.2551 220.347 19.1111 220.091 19.0151C219.845 18.9084 219.547 18.8551 219.195 18.8551H216.651V21.5271ZM216.651 16.9511H218.923C219.211 16.9511 219.461 16.8977 219.675 16.7911C219.888 16.6844 220.048 16.5404 220.155 16.3591C220.272 16.1777 220.331 15.9644 220.331 15.7191C220.331 15.3244 220.203 15.0204 219.947 14.8071C219.691 14.5937 219.307 14.4871 218.795 14.4871H216.651V16.9511Z" fill="white"/>
<path d="M178.328 55.9207L182.346 47.0447L182.682 47.7307H177.67V46.0927H183.844L184.054 47.1147L180.218 55.9207H178.328ZM187.348 55.2347V47.2827L187.866 47.9547L185.878 48.9627L185.472 47.3667L188.146 45.9807H189.154V55.2347H187.348ZM185.71 55.9207V54.2407H190.834V55.9207H185.71ZM192.87 58.5247L192.296 57.8387C192.642 57.652 192.917 57.4327 193.122 57.1807C193.337 56.938 193.444 56.728 193.444 56.5507C193.444 56.4573 193.421 56.364 193.374 56.2707C193.337 56.1867 193.239 56.07 193.08 55.9207C192.884 55.7433 192.754 55.5893 192.688 55.4587C192.623 55.328 192.59 55.1833 192.59 55.0247C192.59 54.782 192.679 54.586 192.856 54.4367C193.034 54.2873 193.262 54.2127 193.542 54.2127C193.794 54.2127 194.018 54.2827 194.214 54.4227C194.42 54.5627 194.578 54.7587 194.69 55.0107C194.802 55.2533 194.858 55.538 194.858 55.8647C194.858 56.154 194.807 56.434 194.704 56.7047C194.611 56.9847 194.471 57.2413 194.284 57.4747C194.107 57.708 193.897 57.9133 193.654 58.0907C193.421 58.2773 193.16 58.422 192.87 58.5247ZM199.512 55.9207C199.017 55.9207 198.555 55.832 198.126 55.6547C197.706 55.4773 197.337 55.2347 197.02 54.9267C196.712 54.6093 196.469 54.2407 196.292 53.8207C196.115 53.4007 196.026 52.9387 196.026 52.4347C196.026 52.1547 196.059 51.856 196.124 51.5387C196.199 51.2213 196.306 50.8853 196.446 50.5307C196.595 50.1667 196.768 49.7887 196.964 49.3967C197.16 49.0047 197.389 48.594 197.65 48.1647L198.952 45.9527H200.688L200.744 46.0927L199.078 48.8367C198.807 49.2847 198.569 49.7093 198.364 50.1107C198.159 50.5027 197.981 50.8807 197.832 51.2447C197.692 51.5993 197.575 51.9447 197.482 52.2807L197.104 51.0067C197.244 50.708 197.417 50.4373 197.622 50.1947C197.827 49.952 198.056 49.7467 198.308 49.5787C198.56 49.4107 198.821 49.2847 199.092 49.2007C199.372 49.1167 199.657 49.0747 199.946 49.0747C200.487 49.0747 200.987 49.224 201.444 49.5227C201.901 49.812 202.265 50.1993 202.536 50.6847C202.816 51.17 202.956 51.702 202.956 52.2807C202.956 52.9807 202.807 53.606 202.508 54.1567C202.219 54.698 201.813 55.1273 201.29 55.4447C200.767 55.762 200.175 55.9207 199.512 55.9207ZM199.526 54.3247C199.862 54.3247 200.161 54.2453 200.422 54.0867C200.693 53.928 200.903 53.7087 201.052 53.4287C201.201 53.1393 201.276 52.808 201.276 52.4347C201.276 52.1173 201.197 51.8233 201.038 51.5527C200.889 51.2727 200.683 51.0487 200.422 50.8807C200.161 50.7033 199.867 50.6147 199.54 50.6147C199.185 50.6147 198.868 50.6987 198.588 50.8667C198.317 51.0253 198.103 51.2447 197.944 51.5247C197.795 51.7953 197.72 52.0987 197.72 52.4347C197.72 52.7893 197.795 53.1113 197.944 53.4007C198.103 53.6807 198.317 53.9047 198.588 54.0727C198.859 54.2407 199.171 54.3247 199.526 54.3247ZM207.498 55.9627C206.873 55.9627 206.299 55.8367 205.776 55.5847C205.263 55.3233 204.852 54.978 204.544 54.5487C204.236 54.11 204.082 53.6247 204.082 53.0927C204.082 52.7753 204.124 52.4813 204.208 52.2107C204.301 51.94 204.432 51.6973 204.6 51.4827C204.777 51.268 204.987 51.0767 205.23 50.9087C205.482 50.7313 205.767 50.5773 206.084 50.4467L205.972 50.8387C205.729 50.736 205.505 50.6147 205.3 50.4747C205.104 50.3347 204.931 50.176 204.782 49.9987C204.642 49.812 204.535 49.616 204.46 49.4107C204.385 49.196 204.348 48.972 204.348 48.7387C204.348 48.2347 204.488 47.782 204.768 47.3807C205.057 46.9793 205.44 46.662 205.916 46.4287C206.392 46.186 206.919 46.0647 207.498 46.0647C208.086 46.0647 208.618 46.186 209.094 46.4287C209.57 46.662 209.948 46.9793 210.228 47.3807C210.517 47.782 210.662 48.2347 210.662 48.7387C210.662 48.972 210.625 49.196 210.55 49.4107C210.475 49.616 210.368 49.8073 210.228 49.9847C210.097 50.1527 209.929 50.3113 209.724 50.4607C209.519 50.6007 209.281 50.7267 209.01 50.8387L208.94 50.5027C209.239 50.6053 209.509 50.7407 209.752 50.9087C209.995 51.0767 210.205 51.2727 210.382 51.4967C210.559 51.7207 210.695 51.968 210.788 52.2387C210.891 52.5093 210.942 52.794 210.942 53.0927C210.942 53.634 210.788 54.124 210.48 54.5627C210.172 54.992 209.757 55.3327 209.234 55.5847C208.721 55.8367 208.142 55.9627 207.498 55.9627ZM207.498 54.3947C207.815 54.3947 208.1 54.334 208.352 54.2127C208.604 54.0913 208.8 53.928 208.94 53.7227C209.089 53.5173 209.164 53.2793 209.164 53.0087C209.164 52.7193 209.089 52.4673 208.94 52.2527C208.8 52.0287 208.604 51.856 208.352 51.7347C208.1 51.604 207.815 51.5387 207.498 51.5387C207.19 51.5387 206.91 51.604 206.658 51.7347C206.415 51.856 206.219 52.0287 206.07 52.2527C205.921 52.4673 205.846 52.7193 205.846 53.0087C205.846 53.27 205.921 53.5033 206.07 53.7087C206.219 53.914 206.415 54.082 206.658 54.2127C206.91 54.334 207.19 54.3947 207.498 54.3947ZM207.498 49.9987C207.778 49.9987 208.025 49.9473 208.24 49.8447C208.464 49.742 208.637 49.602 208.758 49.4247C208.879 49.2473 208.94 49.042 208.94 48.8087C208.94 48.566 208.879 48.356 208.758 48.1787C208.637 47.992 208.464 47.8473 208.24 47.7447C208.025 47.6327 207.778 47.5767 207.498 47.5767C207.227 47.5767 206.98 47.6327 206.756 47.7447C206.541 47.8473 206.373 47.992 206.252 48.1787C206.131 48.356 206.07 48.566 206.07 48.8087C206.07 49.042 206.131 49.2473 206.252 49.4247C206.373 49.602 206.541 49.742 206.756 49.8447C206.98 49.9473 207.227 49.9987 207.498 49.9987ZM213.629 55.9207L220.111 46.1207H221.777L215.225 55.9207H213.629ZM214.427 51.3147C213.989 51.3147 213.597 51.198 213.251 50.9647C212.915 50.7313 212.649 50.414 212.453 50.0127C212.267 49.6113 212.173 49.154 212.173 48.6407C212.173 48.118 212.267 47.656 212.453 47.2547C212.649 46.844 212.915 46.522 213.251 46.2887C213.597 46.0553 213.993 45.9387 214.441 45.9387C214.88 45.9387 215.267 46.0553 215.603 46.2887C215.949 46.522 216.215 46.844 216.401 47.2547C216.597 47.656 216.695 48.118 216.695 48.6407C216.695 49.1447 216.597 49.602 216.401 50.0127C216.205 50.414 215.935 50.7313 215.589 50.9647C215.244 51.198 214.857 51.3147 214.427 51.3147ZM214.441 50.1247C214.619 50.1247 214.773 50.064 214.903 49.9427C215.034 49.8213 215.137 49.6533 215.211 49.4387C215.286 49.2147 215.323 48.9487 215.323 48.6407C215.323 48.3327 215.286 48.0667 215.211 47.8427C215.137 47.6187 215.034 47.446 214.903 47.3247C214.773 47.2033 214.614 47.1427 214.427 47.1427C214.25 47.1427 214.091 47.208 213.951 47.3387C213.821 47.46 213.718 47.6327 213.643 47.8567C213.569 48.0713 213.531 48.3327 213.531 48.6407C213.531 48.9487 213.564 49.2147 213.629 49.4387C213.704 49.6533 213.811 49.8213 213.951 49.9427C214.091 50.064 214.255 50.1247 214.441 50.1247ZM221.077 56.0467C220.639 56.0467 220.247 55.93 219.901 55.6967C219.565 55.4633 219.299 55.146 219.103 54.7447C218.907 54.3433 218.809 53.886 218.809 53.3727C218.809 52.85 218.903 52.388 219.089 51.9867C219.285 51.576 219.556 51.254 219.901 51.0207C220.247 50.7873 220.639 50.6707 221.077 50.6707C221.525 50.6707 221.917 50.7873 222.253 51.0207C222.589 51.254 222.851 51.576 223.037 51.9867C223.233 52.388 223.331 52.85 223.331 53.3727C223.331 53.8767 223.233 54.334 223.037 54.7447C222.841 55.146 222.571 55.4633 222.225 55.6967C221.889 55.93 221.507 56.0467 221.077 56.0467ZM221.077 54.8707C221.255 54.8707 221.409 54.81 221.539 54.6887C221.679 54.558 221.787 54.3853 221.861 54.1707C221.936 53.9467 221.973 53.6807 221.973 53.3727C221.973 53.074 221.936 52.8127 221.861 52.5887C221.787 52.3647 221.679 52.192 221.539 52.0707C221.409 51.94 221.255 51.8747 221.077 51.8747C220.891 51.8747 220.727 51.9353 220.587 52.0567C220.457 52.178 220.354 52.3553 220.279 52.5887C220.205 52.8127 220.167 53.074 220.167 53.3727C220.167 53.6807 220.205 53.9467 220.279 54.1707C220.354 54.3853 220.457 54.558 220.587 54.6887C220.727 54.81 220.891 54.8707 221.077 54.8707Z" fill="white"/>
<rect y="46.9668" width="168" height="8.0738" rx="4.0369" fill="#353535"/>
<rect y="46.9668" width="120" height="8.0738" rx="4.0369" fill="url(#paint0_linear_80_1351)"/>
<defs>
<linearGradient id="paint0_linear_80_1351" x1="124" y1="20.2223" x2="-8.82262" y2="71.8724" gradientUnits="userSpaceOnUse">
<stop stop-color="#50AF95"/>
<stop offset="1" stop-color="#00FFB9"/>
</linearGradient>
<clipPath id="clip0_80_1351">
<rect width="24" height="24" fill="white" transform="translate(4 4.69006)"/>
</clipPath>
</defs>
</svg>
