<svg width="27" height="27" viewBox="0 0 27 27" fill="none" xmlns="http://www.w3.org/2000/svg">
<path d="M14.6052 24.3399H15.5388V23.4536H14.6052V24.3399ZM8.96683 24.3399V23.4536H8.03328V24.3399H8.96683ZM20.3101 19.2955H19.3766V19.6608L19.6477 19.92L20.3101 19.2955ZM13.892 3.85909H12.9585V4.55829L13.6747 4.72109L13.892 3.85909ZM9.61329 3.85909L9.83 4.72126L10.5468 4.55886V3.85909H9.61329ZM3.19521 19.2955L3.85762 19.92L4.12876 19.6608V19.2955H3.19521ZM1.35535 21.0545L2.01777 21.6791L1.35535 21.0545ZM22.15 21.0545L22.8124 20.43L22.15 21.0545ZM14.6052 11.1136L13.6809 11.2381L14.6052 11.1136ZM22.992 10.6202V9.73386H22.0584V10.6202H22.992ZM21.6631 10.6202H22.5966V9.73386H21.6631V10.6202ZM21.6631 9.4828V10.3692H22.5966V9.4828H21.6631ZM22.992 9.4828H22.0584V10.3692H22.992V9.4828ZM11.7527 27C12.5514 27 13.4653 26.9383 14.1988 26.5752C14.5883 26.3825 14.9401 26.0989 15.1872 25.6954C15.432 25.2955 15.5388 24.8356 15.5388 24.3399H13.6717C13.6717 24.5943 13.618 24.7311 13.573 24.8045C13.5304 24.8741 13.4633 24.9402 13.3357 25.0033C13.0351 25.1521 12.5228 25.2273 11.7527 25.2273V27ZM14.6052 23.4536H8.96683V25.2263H14.6052V23.4536ZM8.03328 24.3399C8.03328 24.8264 8.1311 25.2805 8.3621 25.6781C8.59692 26.0821 8.93651 26.3711 9.32213 26.569C10.0439 26.9395 10.9505 27 11.7527 27V25.2273C10.9717 25.2273 10.4854 25.1509 10.21 25.0096C10.0971 24.9516 10.0371 24.8908 9.99692 24.8217C9.95295 24.7461 9.90037 24.6035 9.90037 24.3399H8.03328ZM14.8256 3.85909V2.93182H12.9585V3.85909H14.8256ZM14.8256 2.93182C14.8256 1.31631 13.4581 0 11.7527 0V1.77273C12.4147 1.77273 12.9585 2.28369 12.9585 2.93182H14.8256ZM11.7527 0C10.0472 0 8.67974 1.31631 8.67974 2.93182H10.5468C10.5468 2.28369 11.0906 1.77273 11.7527 1.77273V0ZM8.67974 2.93182V3.85909H10.5468V2.93182H8.67974ZM9.39666 2.99692C4.78362 4.04193 2.26166 7.97265 2.26166 12.4773H4.12876C4.12876 8.58189 6.25636 5.5308 9.83 4.72126L9.39666 2.99692ZM2.26166 12.4773V19.2955H4.12876V12.4773H2.26166ZM2.53279 18.6709L0.692933 20.43L2.01777 21.6791L3.85762 19.92L2.53279 18.6709ZM0.692934 20.43C-0.770017 21.8287 0.225204 24.2727 2.35372 24.2727V22.5C1.94352 22.5 1.68364 21.9986 2.01777 21.6791L0.692934 20.43ZM2.35372 24.2727H21.1374V22.5H2.35372V24.2727ZM21.1374 24.2727C23.2462 24.2727 24.2894 21.842 22.8124 20.43L21.4876 21.6791C21.8078 21.9852 21.5673 22.5 21.1374 22.5V24.2727ZM22.8124 20.43L20.9726 18.6709L19.6477 19.92L21.4876 21.6791L22.8124 20.43ZM20.3101 19.2955C21.2437 19.2955 21.2437 19.2955 21.2437 19.2955C21.2437 19.2954 21.2437 19.2954 21.2437 19.2954C21.2437 19.2953 21.2437 19.2953 21.2437 19.2952C21.2437 19.2952 21.2437 19.2951 21.2437 19.2951C21.2437 19.295 21.2437 19.2949 21.2437 19.2948C21.2437 19.2948 21.2437 19.2947 21.2437 19.2946C21.2437 19.2945 21.2437 19.2944 21.2437 19.2943C21.2437 19.2942 21.2437 19.2941 21.2437 19.2939C21.2437 19.2939 21.2437 19.2937 21.2437 19.2936C21.2437 19.2934 21.2437 19.2933 21.2437 19.2931C21.2437 19.293 21.2437 19.2928 21.2437 19.2926C21.2437 19.2925 21.2437 19.2923 21.2437 19.2921C21.2437 19.292 21.2437 19.2917 21.2437 19.2915C21.2437 19.2914 21.2437 19.2911 21.2437 19.2909C21.2437 19.2907 21.2437 19.2905 21.2437 19.2902C21.2437 19.29 21.2437 19.2898 21.2437 19.2895C21.2437 19.2893 21.2437 19.289 21.2437 19.2888C21.2437 19.2886 21.2437 19.2883 21.2437 19.288C21.2437 19.2877 21.2437 19.2874 21.2437 19.2871C21.2437 19.2868 21.2437 19.2866 21.2437 19.2863C21.2437 19.286 21.2437 19.2856 21.2437 19.2853C21.2437 19.285 21.2437 19.2847 21.2437 19.2843C21.2437 19.284 21.2437 19.2836 21.2437 19.2833C21.2437 19.283 21.2437 19.2827 21.2437 19.2823C21.2437 19.2819 21.2437 19.2815 21.2437 19.2811C21.2437 19.2808 21.2437 19.2804 21.2437 19.28C21.2437 19.2796 21.2437 19.2792 21.2437 19.2788C21.2437 19.2784 21.2437 19.278 21.2437 19.2776C21.2437 19.2771 21.2437 19.2767 21.2437 19.2763C21.2437 19.2758 21.2437 19.2754 21.2437 19.2749C21.2437 19.2745 21.2437 19.274 21.2437 19.2736C21.2437 19.2731 21.2437 19.2727 21.2437 19.2721C21.2437 19.2717 21.2437 19.2712 21.2437 19.2707C21.2437 19.2702 21.2437 19.2697 21.2437 19.2692C21.2437 19.2687 21.2437 19.2682 21.2437 19.2676C21.2437 19.2671 21.2437 19.2666 21.2437 19.2661C21.2437 19.2655 21.2437 19.265 21.2437 19.2645C21.2437 19.2639 21.2437 19.2633 21.2437 19.2628C21.2437 19.2622 21.2437 19.2617 21.2437 19.2611C21.2437 19.2605 21.2437 19.2599 21.2437 19.2593C21.2437 19.2587 21.2437 19.2581 21.2437 19.2575C21.2437 19.2569 21.2437 19.2563 21.2437 19.2557C21.2437 19.2551 21.2437 19.2544 21.2437 19.2538C21.2437 19.2532 21.2437 19.2525 21.2437 19.2519C21.2437 19.2512 21.2437 19.2505 21.2437 19.2499C21.2437 19.2492 21.2437 19.2486 21.2437 19.2479C21.2437 19.2472 21.2437 19.2465 21.2437 19.2458C21.2437 19.2452 21.2437 19.2445 21.2437 19.2438C21.2437 19.243 21.2437 19.2423 21.2437 19.2417C21.2437 19.2409 21.2437 19.2402 21.2437 19.2395C21.2437 19.2387 21.2437 19.238 21.2437 19.2373C21.2437 19.2365 21.2437 19.2358 21.2437 19.235C21.2437 19.2342 21.2437 19.2335 21.2437 19.2327C21.2437 19.232 21.2437 19.2312 21.2437 19.2304C21.2437 19.2296 21.2437 19.2288 21.2437 19.228C21.2437 19.2272 21.2437 19.2264 21.2437 19.2256C21.2437 19.2248 21.2437 19.224 21.2437 19.2232C21.2437 19.2223 21.2437 19.2215 21.2437 19.2207C21.2437 19.2198 21.2437 19.219 21.2437 19.2182C21.2437 19.2173 21.2437 19.2164 21.2437 19.2156C21.2437 19.2147 21.2437 19.2139 21.2437 19.213C21.2437 19.2121 21.2437 19.2112 21.2437 19.2103C21.2437 19.2094 21.2437 19.2086 21.2437 19.2077C21.2437 19.2067 21.2437 19.2058 21.2437 19.2049C21.2437 19.204 21.2437 19.203 21.2437 19.2021C21.2437 19.2012 21.2437 19.2003 21.2437 19.1993C21.2437 19.1984 21.2437 19.1974 21.2437 19.1965C21.2437 19.1955 21.2437 19.1945 21.2437 19.1936C21.2437 19.1927 21.2437 19.1917 21.2437 19.1907C21.2437 19.1897 21.2437 19.1887 21.2437 19.1877C21.2437 19.1867 21.2437 19.1858 21.2437 19.1847C21.2437 19.1837 21.2437 19.1827 21.2437 19.1817C21.2437 19.1807 21.2437 19.1796 21.2437 19.1786C21.2437 19.1776 21.2437 19.1765 21.2437 19.1755C21.2437 19.1745 21.2437 19.1734 21.2437 19.1723C21.2437 19.1713 21.2437 19.1702 21.2437 19.1692C21.2437 19.1681 21.2437 19.167 21.2437 19.1659C21.2437 19.1648 21.2437 19.1638 21.2437 19.1626C21.2437 19.1616 21.2437 19.1605 21.2437 19.1594C21.2437 19.1583 21.2437 19.1572 21.2437 19.1561C21.2437 19.1549 21.2437 19.1538 21.2437 19.1527C21.2437 19.1515 21.2437 19.1504 21.2437 19.1492C21.2437 19.1481 21.2437 19.147 21.2437 19.1458C21.2437 19.1446 21.2437 19.1435 21.2437 19.1423C21.2437 19.1411 21.2437 19.14 21.2437 19.1388C21.2437 19.1377 21.2437 19.1364 21.2437 19.1352C21.2437 19.1341 21.2437 19.1329 21.2437 19.1317C21.2437 19.1305 21.2437 19.1292 21.2437 19.128C21.2437 19.1268 21.2437 19.1256 21.2437 19.1244C21.2437 19.1231 21.2437 19.1219 21.2437 19.1207C21.2437 19.1194 21.2437 19.1182 21.2437 19.1169C21.2437 19.1157 21.2437 19.1144 21.2437 19.1132C21.2437 19.1119 21.2437 19.1106 21.2437 19.1093C21.2437 19.108 21.2437 19.1068 21.2437 19.1055C21.2437 19.1042 21.2437 19.1029 21.2437 19.1016C21.2437 19.1003 21.2437 19.099 21.2437 19.0977C21.2437 19.0964 21.2437 19.0951 21.2437 19.0938C21.2437 19.0924 21.2437 19.0911 21.2437 19.0898C21.2437 19.0884 21.2437 19.0871 21.2437 19.0858C21.2437 19.0844 21.2437 19.083 21.2437 19.0817C21.2437 19.0803 21.2437 19.0789 21.2437 19.0776C21.2437 19.0762 21.2437 19.0748 21.2437 19.0735C21.2437 19.0721 21.2437 19.0707 21.2437 19.0693C21.2437 19.068 21.2437 19.0665 21.2437 19.0652C21.2437 19.0637 21.2437 19.0623 21.2437 19.0609C21.2437 19.0595 21.2437 19.058 21.2437 19.0567C21.2437 19.0552 21.2437 19.0538 21.2437 19.0523C21.2437 19.0509 21.2437 19.0495 21.2437 19.048C21.2437 19.0466 21.2437 19.0451 21.2437 19.0436C21.2437 19.0422 21.2437 19.0408 21.2437 19.0392C21.2437 19.0378 21.2437 19.0363 21.2437 19.0348C21.2437 19.0333 21.2437 19.0319 21.2437 19.0304C21.2437 19.0289 21.2437 19.0273 21.2437 19.0259C21.2437 19.0244 21.2437 19.0229 21.2437 19.0214C21.2437 19.0198 21.2437 19.0183 21.2437 19.0168C21.2437 19.0152 21.2437 19.0137 21.2437 19.0122C21.2437 19.0107 21.2437 19.0091 21.2437 19.0076C21.2437 19.006 21.2437 19.0045 21.2437 19.0029C21.2437 19.0014 21.2437 18.9998 21.2437 18.9982C21.2437 18.9967 21.2437 18.9951 21.2437 18.9935C21.2437 18.9919 21.2437 18.9903 21.2437 18.9887C21.2437 18.9871 21.2437 18.9855 21.2437 18.9839C21.2437 18.9823 21.2437 18.9808 21.2437 18.9791C21.2437 18.9775 21.2437 18.9759 21.2437 18.9742C21.2437 18.9726 21.2437 18.971 21.2437 18.9694C21.2437 18.9677 21.2437 18.9661 21.2437 18.9645C21.2437 18.9628 21.2437 18.9612 21.2437 18.9595C21.2437 18.9579 21.2437 18.9562 21.2437 18.9545C21.2437 18.9529 21.2437 18.9512 21.2437 18.9495C21.2437 18.9479 21.2437 18.9462 21.2437 18.9445C21.2437 18.9428 21.2437 18.9411 21.2437 18.9394C21.2437 18.9377 21.2437 18.9361 21.2437 18.9343C21.2437 18.9327 21.2437 18.9309 21.2437 18.9292C21.2437 18.9275 21.2437 18.9258 21.2437 18.924C21.2437 18.9223 21.2437 18.9206 21.2437 18.9189C21.2437 18.9171 21.2437 18.9154 21.2437 18.9136C21.2437 18.9119 21.2437 18.9101 21.2437 18.9083C21.2437 18.9066 21.2437 18.9048 21.2437 18.903C21.2437 18.9013 21.2437 18.8995 21.2437 18.8977C21.2437 18.896 21.2437 18.8942 21.2437 18.8924C21.2437 18.8906 21.2437 18.8889 21.2437 18.887C21.2437 18.8852 21.2437 18.8834 21.2437 18.8817C21.2437 18.8798 21.2437 18.878 21.2437 18.8762C21.2437 18.8744 21.2437 18.8726 21.2437 18.8708C21.2437 18.8689 21.2437 18.867 21.2437 18.8652C21.2437 18.8634 21.2437 18.8616 21.2437 18.8597C21.2437 18.8579 21.2437 18.8561 21.2437 18.8542C21.2437 18.8523 21.2437 18.8505 21.2437 18.8486C21.2437 18.8467 21.2437 18.8448 21.2437 18.843C21.2437 18.8411 21.2437 18.8392 21.2437 18.8373C21.2437 18.8355 21.2437 18.8336 21.2437 18.8317C21.2437 18.8298 21.2437 18.8279 21.2437 18.826C21.2437 18.8241 21.2437 18.8222 21.2437 18.8203C21.2437 18.8183 21.2437 18.8164 21.2437 18.8145C21.2437 18.8126 21.2437 18.8107 21.2437 18.8087C21.2437 18.8068 21.2437 18.8048 21.2437 18.803C21.2437 18.801 21.2437 18.799 21.2437 18.7971C21.2437 18.7951 21.2437 18.7932 21.2437 18.7912C21.2437 18.7892 21.2437 18.7873 21.2437 18.7854C21.2437 18.7834 21.2437 18.7814 21.2437 18.7794C21.2437 18.7774 21.2437 18.7755 21.2437 18.7735C21.2437 18.7715 21.2437 18.7695 21.2437 18.7675C21.2437 18.7655 21.2437 18.7635 21.2437 18.7615C21.2437 18.7595 21.2437 18.7575 21.2437 18.7555C21.2437 18.7535 21.2437 18.7514 21.2437 18.7495C21.2437 18.7474 21.2437 18.7454 21.2437 18.7433C21.2437 18.7414 21.2437 18.7393 21.2437 18.7373C21.2437 18.7352 21.2437 18.7332 21.2437 18.7311C21.2437 18.7291 21.2437 18.727 21.2437 18.725C21.2437 18.7229 21.2437 18.7208 21.2437 18.7188C21.2437 18.7167 21.2437 18.7146 21.2437 18.7126C21.2437 18.7105 21.2437 18.7084 21.2437 18.7064C21.2437 18.7042 21.2437 18.7022 21.2437 18.7001C21.2437 18.698 21.2437 18.6959 21.2437 18.6938C21.2437 18.6917 21.2437 18.6896 21.2437 18.6875C21.2437 18.6854 21.2437 18.6833 21.2437 18.6811C21.2437 18.679 21.2437 18.6769 21.2437 18.6748C21.2437 18.6727 21.2437 18.6705 21.2437 18.6684C21.2437 18.6662 21.2437 18.6641 21.2437 18.662C21.2437 18.6598 21.2437 18.6576 21.2437 18.6555C21.2437 18.6534 21.2437 18.6512 21.2437 18.6491C21.2437 18.6469 21.2437 18.6448 21.2437 18.6426C21.2437 18.6404 21.2437 18.6383 21.2437 18.6361C21.2437 18.6339 21.2437 18.6317 21.2437 18.6295C21.2437 18.6273 21.2437 18.6252 21.2437 18.623C21.2437 18.6208 21.2437 18.6186 21.2437 18.6164C21.2437 18.6142 21.2437 18.612 21.2437 18.6098C21.2437 18.6076 21.2437 18.6054 21.2437 18.6031C21.2437 18.6009 21.2437 18.5987 21.2437 18.5964C21.2437 18.5942 21.2437 18.592 21.2437 18.5898C21.2437 18.5876 21.2437 18.5853 21.2437 18.5831C21.2437 18.5808 21.2437 18.5786 21.2437 18.5764C21.2437 18.5741 21.2437 18.5718 21.2437 18.5696C21.2437 18.5673 21.2437 18.5651 21.2437 18.5628C21.2437 18.5605 21.2437 18.5583 21.2437 18.556C21.2437 18.5537 21.2437 18.5514 21.2437 18.5492C21.2437 18.5469 21.2437 18.5446 21.2437 18.5423C21.2437 18.5401 21.2437 18.5378 21.2437 18.5355C21.2437 18.5332 21.2437 18.5309 21.2437 18.5286C21.2437 18.5263 21.2437 18.524 21.2437 18.5217C21.2437 18.5194 21.2437 18.517 21.2437 18.5148C21.2437 18.5124 21.2437 18.5101 21.2437 18.5078C21.2437 18.5055 21.2437 18.5031 21.2437 18.5008C21.2437 18.4985 21.2437 18.4961 21.2437 18.4938C21.2437 18.4914 21.2437 18.4891 21.2437 18.4867C21.2437 18.4844 21.2437 18.482 21.2437 18.4797C21.2437 18.4773 21.2437 18.475 21.2437 18.4727C21.2437 18.4703 21.2437 18.468 21.2437 18.4656C21.2437 18.4632 21.2437 18.4608 21.2437 18.4585C21.2437 18.4561 21.2437 18.4537 21.2437 18.4514C21.2437 18.4489 21.2437 18.4466 21.2437 18.4442C21.2437 18.4418 21.2437 18.4394 21.2437 18.437C21.2437 18.4346 21.2437 18.4322 21.2437 18.4298C21.2437 18.4274 21.2437 18.425 21.2437 18.4226C21.2437 18.4201 21.2437 18.4177 21.2437 18.4154C21.2437 18.413 21.2437 18.4105 21.2437 18.4081C21.2437 18.4057 21.2437 18.4033 21.2437 18.4008C21.2437 18.3984 21.2437 18.396 21.2437 18.3935C21.2437 18.3911 21.2437 18.3886 21.2437 18.3862C21.2437 18.3838 21.2437 18.3813 21.2437 18.3789C21.2437 18.3764 21.2437 18.3739 21.2437 18.3715C21.2437 18.369 21.2437 18.3666 21.2437 18.3641C21.2437 18.3617 21.2437 18.3592 21.2437 18.3567C21.2437 18.3542 21.2437 18.3517 21.2437 18.3493C21.2437 18.3468 21.2437 18.3443 21.2437 18.3419C21.2437 18.3394 21.2437 18.3369 21.2437 18.3344C21.2437 18.3319 21.2437 18.3294 21.2437 18.3269C21.2437 18.3244 21.2437 18.322 21.2437 18.3194C21.2437 18.3169 21.2437 18.3144 21.2437 18.3119C21.2437 18.3094 21.2437 18.3069 21.2437 18.3044C21.2437 18.3019 21.2437 18.2993 21.2437 18.2968C21.2437 18.2943 21.2437 18.2918 21.2437 18.2892C21.2437 18.2867 21.2437 18.2842 21.2437 18.2817C21.2437 18.2792 21.2437 18.2766 21.2437 18.2741C21.2437 18.2715 21.2437 18.269 21.2437 18.2664C21.2437 18.2639 21.2437 18.2614 21.2437 18.2588C21.2437 18.2562 21.2437 18.2537 21.2437 18.2511C21.2437 18.2486 21.2437 18.246 21.2437 18.2435C21.2437 18.2409 21.2437 18.2383 21.2437 18.2358C21.2437 18.2332 21.2437 18.2306 21.2437 18.228C21.2437 18.2255 21.2437 18.2229 21.2437 18.2203C21.2437 18.2177 21.2437 18.2151 21.2437 18.2126C21.2437 18.21 21.2437 18.2073 21.2437 18.2048C21.2437 18.2022 21.2437 18.1996 21.2437 18.197C21.2437 18.1944 21.2437 18.1918 21.2437 18.1892C21.2437 18.1866 21.2437 18.184 21.2437 18.1814C21.2437 18.1788 21.2437 18.1761 21.2437 18.1736C21.2437 18.1709 21.2437 18.1683 21.2437 18.1657C21.2437 18.163 21.2437 18.1605 21.2437 18.1578C21.2437 18.1552 21.2437 18.1526 21.2437 18.1499C21.2437 18.1473 21.2437 18.1447 21.2437 18.142C21.2437 18.1394 21.2437 18.1367 21.2437 18.1341C21.2437 18.1314 21.2437 18.1288 21.2437 18.1261C21.2437 18.1236 21.2437 18.1209 21.2437 18.1183C21.2437 18.1156 21.2437 18.1129 21.2437 18.1102C21.2437 18.1076 21.2437 18.1049 21.2437 18.1023C21.2437 18.0996 21.2437 18.097 21.2437 18.0942C21.2437 18.0916 21.2437 18.0889 21.2437 18.0863C21.2437 18.0836 21.2437 18.0809 21.2437 18.0783C21.2437 18.0755 21.2437 18.0729 21.2437 18.0702C21.2437 18.0675 21.2437 18.0648 21.2437 18.0621C21.2437 18.0595 21.2437 18.0567 21.2437 18.0541C21.2437 18.0514 21.2437 18.0486 21.2437 18.046C21.2437 18.0433 21.2437 18.0405 21.2437 18.0379C21.2437 18.0351 21.2437 18.0324 21.2437 18.0298C21.2437 18.027 21.2437 18.0243 21.2437 18.0216C21.2437 18.0189 21.2437 18.0162 21.2437 18.0135C21.2437 18.0108 21.2437 18.008 21.2437 18.0053C21.2437 18.0026 21.2437 17.9998 21.2437 17.9971C21.2437 17.9944 21.2437 17.9917 21.2437 17.9889C21.2437 17.9862 21.2437 17.9835 21.2437 17.9808C21.2437 17.978 21.2437 17.9752 21.2437 17.9725C21.2437 17.9698 21.2437 17.967 21.2437 17.9643C21.2437 17.9615 21.2437 17.9588 21.2437 17.9561C21.2437 17.9533 21.2437 17.9505 21.2437 17.9478C21.2437 17.945 21.2437 17.9423 21.2437 17.9395C21.2437 17.9367 21.2437 17.934 21.2437 17.9312C21.2437 17.9285 21.2437 17.9257 21.2437 17.923C21.2437 17.9201 21.2437 17.9174 21.2437 17.9146C21.2437 17.9118 21.2437 17.9091 21.2437 17.9063C21.2437 17.9035 21.2437 17.9008 21.2437 17.898C21.2437 17.8951 21.2437 17.8924 21.2437 17.8896C21.2437 17.8868 21.2437 17.884 21.2437 17.8813C21.2437 17.8785 21.2437 17.8757 21.2437 17.8729C21.2437 17.8701 21.2437 17.8673 21.2437 17.8645C21.2437 17.8617 21.2437 17.8589 21.2437 17.8561C21.2437 17.8533 21.2437 17.8505 21.2437 17.8477C21.2437 17.8448 21.2437 17.842 21.2437 17.8392C21.2437 17.8364 21.2437 17.8336 21.2437 17.8308C21.2437 17.828 21.2437 17.8252 21.2437 17.8224C21.2437 17.8195 21.2437 17.8167 21.2437 17.8139C21.2437 17.8111 21.2437 17.8083 21.2437 17.8055C21.2437 17.8027 21.2437 17.7998 21.2437 17.797C21.2437 17.7942 21.2437 17.7914 21.2437 17.7885C21.2437 17.7857 21.2437 17.7828 21.2437 17.78C21.2437 17.7772 21.2437 17.7743 21.2437 17.7715C21.2437 17.7686 21.2437 17.7658 21.2437 17.763C21.2437 17.7601 21.2437 17.7573 21.2437 17.7544C21.2437 17.7516 21.2437 17.7487 21.2437 17.7459C21.2437 17.743 21.2437 17.7401 21.2437 17.7373C21.2437 17.7345 21.2437 17.7316 21.2437 17.7288C21.2437 17.7259 21.2437 17.723 21.2437 17.7202C21.2437 17.7173 21.2437 17.7145 21.2437 17.7116C21.2437 17.7088 21.2437 17.7059 21.2437 17.703C21.2437 17.7001 21.2437 17.6973 21.2437 17.6944C21.2437 17.6915 21.2437 17.6887 21.2437 17.6858C21.2437 17.683 21.2437 17.6801 21.2437 17.6772C21.2437 17.6743 21.2437 17.6714 21.2437 17.6686C21.2437 17.6657 21.2437 17.6628 21.2437 17.6599C21.2437 17.657 21.2437 17.6542 21.2437 17.6513C21.2437 17.6484 21.2437 17.6455 21.2437 17.6426C21.2437 17.6397 21.2437 17.6368 21.2437 17.6339C21.2437 17.6311 21.2437 17.6282 21.2437 17.6252C21.2437 17.6223 21.2437 17.6195 21.2437 17.6166C21.2437 17.6136 21.2437 17.6108 21.2437 17.6079C21.2437 17.605 21.2437 17.602 21.2437 17.5992C21.2437 17.5963 21.2437 17.5933 21.2437 17.5905C21.2437 17.5876 21.2437 17.5846 21.2437 17.5817C21.2437 17.5789 21.2437 17.5759 21.2437 17.573C21.2437 17.5701 21.2437 17.5672 21.2437 17.5642C21.2437 17.5614 21.2437 17.5585 21.2437 17.5555C21.2437 17.5527 21.2437 17.5497 21.2437 17.5468C21.2437 17.5439 21.2437 17.5409 21.2437 17.538C21.2437 17.5351 21.2437 17.5322 21.2437 17.5292C21.2437 17.5264 21.2437 17.5234 21.2437 17.5205C21.2437 17.5176 21.2437 17.5146 21.2437 17.5117C21.2437 17.5088 21.2437 17.5058 21.2437 17.503C21.2437 17.5 21.2437 17.497 21.2437 17.4941C21.2437 17.4912 21.2437 17.4883 21.2437 17.4853C21.2437 17.4824 21.2437 17.4795 21.2437 17.4765C21.2437 17.4736 21.2437 17.4706 21.2437 17.4677C21.2437 17.4648 21.2437 17.4618 21.2437 17.4589C21.2437 17.4559 21.2437 17.453 21.2437 17.4501C21.2437 17.4471 21.2437 17.4442 21.2437 17.4412C21.2437 17.4383 21.2437 17.4353 21.2437 17.4323C21.2437 17.4295 21.2437 17.4265 21.2437 17.4236C21.2437 17.4206 21.2437 17.4176 21.2437 17.4147C21.2437 17.4117 21.2437 17.4088 21.2437 17.4058C21.2437 17.4029 21.2437 17.3999 21.2437 17.397C21.2437 17.394 21.2437 17.3911 21.2437 17.3881C21.2437 17.3851 21.2437 17.3822 21.2437 17.3792C21.2437 17.3763 21.2437 17.3733 21.2437 17.3704C21.2437 17.3673 21.2437 17.3644 21.2437 17.3614C21.2437 17.3585 21.2437 17.3555 21.2437 17.3526C21.2437 17.3496 21.2437 17.3467 21.2437 17.3437C21.2437 17.3407 21.2437 17.3377 21.2437 17.3348C21.2437 17.3318 21.2437 17.3289 21.2437 17.3259C21.2437 17.3229 21.2437 17.3199 21.2437 17.317C21.2437 17.314 21.2437 17.3111 21.2437 17.308C21.2437 17.3051 21.2437 17.3021 21.2437 17.2992C21.2437 17.2961 21.2437 17.2932 21.2437 17.2902C21.2437 17.2873 21.2437 17.2842 21.2437 17.2813C21.2437 17.2783 21.2437 17.2754 21.2437 17.2723C21.2437 17.2694 21.2437 17.2664 21.2437 17.2634C21.2437 17.2605 21.2437 17.2575 21.2437 17.2545C21.2437 17.2515 21.2437 17.2486 21.2437 17.2455C21.2437 17.2426 21.2437 17.2396 21.2437 17.2366C21.2437 17.2336 21.2437 17.2307 21.2437 17.2277C21.2437 17.2247 21.2437 17.2217 21.2437 17.2187C21.2437 17.2158 21.2437 17.2127 21.2437 17.2098C21.2437 17.2068 21.2437 17.2038 21.2437 17.2008C21.2437 17.1978 21.2437 17.1948 21.2437 17.1918C21.2437 17.1889 21.2437 17.1859 21.2437 17.1829C21.2437 17.1799 21.2437 17.1769 21.2437 17.1739C21.2437 17.1709 21.2437 17.168 21.2437 17.165C21.2437 17.162 21.2437 17.159 21.2437 17.156C21.2437 17.153 21.2437 17.15 21.2437 17.147C21.2437 17.144 21.2437 17.1411 21.2437 17.138C21.2437 17.1351 21.2437 17.132 21.2437 17.1291C21.2437 17.1261 21.2437 17.1231 21.2437 17.1201C21.2437 17.1171 21.2437 17.1141 21.2437 17.1111C21.2437 17.1081 21.2437 17.1052 21.2437 17.1021C21.2437 17.0992 21.2437 17.0961 21.2437 17.0932C21.2437 17.0901 21.2437 17.0872 21.2437 17.0842C21.2437 17.0812 21.2437 17.0782 21.2437 17.0752C21.2437 17.0722 21.2437 17.0692 21.2437 17.0662C21.2437 17.0633 21.2437 17.0602 21.2437 17.0572C21.2437 17.0542 21.2437 17.0512 21.2437 17.0483C21.2437 17.0452 21.2437 17.0423 21.2437 17.0392C21.2437 17.0363 21.2437 17.0333 21.2437 17.0303C21.2437 17.0273 21.2437 17.0242 21.2437 17.0213C21.2437 17.0183 21.2437 17.0153 21.2437 17.0123C21.2437 17.0093 21.2437 17.0063 21.2437 17.0033C21.2437 17.0003 21.2437 16.9973 21.2437 16.9943C21.2437 16.9913 21.2437 16.9883 21.2437 16.9853C21.2437 16.9823 21.2437 16.9793 21.2437 16.9764C21.2437 16.9733 21.2437 16.9704 21.2437 16.9673C21.2437 16.9643 21.2437 16.9614 21.2437 16.9583C21.2437 16.9554 21.2437 16.9523 21.2437 16.9494C21.2437 16.9464 21.2437 16.9434 21.2437 16.9404C21.2437 16.9374 21.2437 16.9344 21.2437 16.9314C21.2437 16.9284 21.2437 16.9254 21.2437 16.9224C21.2437 16.9194 21.2437 16.9164 21.2437 16.9134C21.2437 16.9105 21.2437 16.9074 21.2437 16.9045C21.2437 16.9014 21.2437 16.8985 21.2437 16.8955C21.2437 16.8925 21.2437 16.8895 21.2437 16.8865C21.2437 16.8835 21.2437 16.8805 21.2437 16.8775C21.2437 16.8745 21.2437 16.8715 21.2437 16.8686C21.2437 16.8655 21.2437 16.8626 21.2437 16.8595C21.2437 16.8566 21.2437 16.8536 21.2437 16.8506C21.2437 16.8476 21.2437 16.8446 21.2437 16.8416C21.2437 16.8386 21.2437 16.8356 21.2437 16.8326C21.2437 16.8296 21.2437 16.8267 21.2437 16.8236C21.2437 16.8207 21.2437 16.8177 21.2437 16.8147C21.2437 16.8117 21.2437 16.8087 21.2437 16.8058C21.2437 16.8027 21.2437 16.7998 21.2437 16.7968C21.2437 16.7938 21.2437 16.7908 21.2437 16.7878C21.2437 16.7848 21.2437 16.7818 21.2437 16.7789C21.2437 16.7759 21.2437 16.7729 21.2437 16.7699C21.2437 16.7669 21.2437 16.7639 21.2437 16.761C21.2437 16.758 21.2437 16.755 21.2437 16.752C21.2437 16.749 21.2437 16.7461 21.2437 16.7431C21.2437 16.7401 21.2437 16.7371 21.2437 16.7342C21.2437 16.7311 21.2437 16.7282 21.2437 16.7252C21.2437 16.7222 21.2437 16.7192 21.2437 16.7163C21.2437 16.7133 21.2437 16.7103 21.2437 16.7073C21.2437 16.7044 21.2437 16.7014 21.2437 16.6984C21.2437 16.6955 21.2437 16.6925 21.2437 16.6895C21.2437 16.6865 21.2437 16.6836 21.2437 16.6806C21.2437 16.6776 21.2437 16.6746 21.2437 16.6717C21.2437 16.6687 21.2437 16.6658 21.2437 16.6627C21.2437 16.6598 21.2437 16.6568 21.2437 16.6539C21.2437 16.6509 21.2437 16.648 21.2437 16.6449C21.2437 16.642 21.2437 16.639 21.2437 16.6361C21.2437 16.6331 21.2437 16.6302 21.2437 16.6272C21.2437 16.6242 21.2437 16.6213 21.2437 16.6183C21.2437 16.6153 21.2437 16.6123 21.2437 16.6094C21.2437 16.6064 21.2437 16.6035 21.2437 16.6005C21.2437 16.5976 21.2437 16.5946 21.2437 16.5917C21.2437 16.5887 21.2437 16.5858 21.2437 16.5828C21.2437 16.5798 21.2437 16.5769 21.2437 16.5739C21.2437 16.571 21.2437 16.568 21.2437 16.5651C21.2437 16.5621 21.2437 16.5592 21.2437 16.5563C21.2437 16.5533 21.2437 16.5504 21.2437 16.5474C21.2437 16.5445 21.2437 16.5415 21.2437 16.5386C21.2437 16.5356 21.2437 16.5327 21.2437 16.5298C21.2437 16.5268 21.2437 16.5239 21.2437 16.5209C21.2437 16.518 21.2437 16.5151 21.2437 16.5121C21.2437 16.5092 21.2437 16.5062 21.2437 16.5033C21.2437 16.5004 21.2437 16.4974 21.2437 16.4945C21.2437 16.4916 21.2437 16.4886 21.2437 16.4857C21.2437 16.4828 21.2437 16.4798 21.2437 16.4769C21.2437 16.474 21.2437 16.4711 21.2437 16.4682C21.2437 16.4652 21.2437 16.4623 21.2437 16.4594C21.2437 16.4564 21.2437 16.4536 21.2437 16.4506C21.2437 16.4477 21.2437 16.4448 21.2437 16.4418C21.2437 16.4389 21.2437 16.436 21.2437 16.4331C21.2437 16.4301 21.2437 16.4273 21.2437 16.4244C21.2437 16.4214 21.2437 16.4186 21.2437 16.4156C21.2437 16.4127 21.2437 16.4098 21.2437 16.4069C21.2437 16.404 21.2437 16.4011 21.2437 16.3982C21.2437 16.3953 21.2437 16.3923 21.2437 16.3895C21.2437 16.3866 21.2437 16.3836 21.2437 16.3808C21.2437 16.3779 21.2437 16.375 21.2437 16.372C21.2437 16.3692 21.2437 16.3663 21.2437 16.3634C21.2437 16.3605 21.2437 16.3576 21.2437 16.3547C21.2437 16.3518 21.2437 16.3489 21.2437 16.3461C21.2437 16.3432 21.2437 16.3402 21.2437 16.3373C21.2437 16.3345 21.2437 16.3316 21.2437 16.3287C21.2437 16.3258 21.2437 16.323 21.2437 16.3201C21.2437 16.3172 21.2437 16.3143 21.2437 16.3114C21.2437 16.3086 21.2437 16.3057 21.2437 16.3028C21.2437 16.2999 21.2437 16.2971 21.2437 16.2942C21.2437 16.2914 21.2437 16.2885 21.2437 16.2856C21.2437 16.2827 21.2437 16.2798 21.2437 16.277C21.2437 16.2742 21.2437 16.2713 21.2437 16.2684C21.2437 16.2656 21.2437 16.2627 21.2437 16.2598C21.2437 16.257 21.2437 16.2542 21.2437 16.2513C21.2437 16.2485 21.2437 16.2456 21.2437 16.2427C21.2437 16.2399 21.2437 16.237 21.2437 16.2342C21.2437 16.2314 21.2437 16.2285 21.2437 16.2257C21.2437 16.2228 21.2437 16.22 21.2437 16.2171C21.2437 16.2143 21.2437 16.2114 21.2437 16.2086C21.2437 16.2058 21.2437 16.203 21.2437 16.2002C21.2437 16.1973 21.2437 16.1945 21.2437 16.1917C21.2437 16.1888 21.2437 16.186 21.2437 16.1832C21.2437 16.1804 21.2437 16.1775 21.2437 16.1747C21.2437 16.1719 21.2437 16.1691 21.2437 16.1662C21.2437 16.1634 21.2437 16.1606 21.2437 16.1578C21.2437 16.155 21.2437 16.1522 21.2437 16.1494C21.2437 16.1466 21.2437 16.1438 21.2437 16.141C21.2437 16.1381 21.2437 16.1353 21.2437 16.1326C21.2437 16.1298 21.2437 16.127 21.2437 16.1242C21.2437 16.1214 21.2437 16.1186 21.2437 16.1158C21.2437 16.113 21.2437 16.1102 21.2437 16.1073C21.2437 16.1046 21.2437 16.1018 21.2437 16.099C21.2437 16.0962 21.2437 16.0935 21.2437 16.0907C21.2437 16.0879 21.2437 16.0852 21.2437 16.0823C21.2437 16.0795 21.2437 16.0768 21.2437 16.074C21.2437 16.0712 21.2437 16.0685 21.2437 16.0657C21.2437 16.063 21.2437 16.0601 21.2437 16.0574C21.2437 16.0546 21.2437 16.0519 21.2437 16.0491C21.2437 16.0464 21.2437 16.0436 21.2437 16.0408C21.2437 16.0381 21.2437 16.0354 21.2437 16.0326C21.2437 16.0298 21.2437 16.0271 21.2437 16.0243C21.2437 16.0216 21.2437 16.0189 21.2437 16.0161C21.2437 16.0134 21.2437 16.0106 21.2437 16.0079C21.2437 16.0052 21.2437 16.0024 21.2437 15.9997C21.2437 15.997 21.2437 15.9942 21.2437 15.9915C21.2437 15.9888 21.2437 15.9861 21.2437 15.9833C21.2437 15.9806 21.2437 15.9779 21.2437 15.9751C21.2437 15.9724 21.2437 15.9698 21.2437 15.967C21.2437 15.9643 21.2437 15.9616 21.2437 15.9589C21.2437 15.9562 21.2437 15.9535 21.2437 15.9508C21.2437 15.9481 21.2437 15.9454 21.2437 15.9426C21.2437 15.94 21.2437 15.9373 21.2437 15.9345C21.2437 15.9319 21.2437 15.9292 21.2437 15.9265C21.2437 15.9238 21.2437 15.9211 21.2437 15.9184C21.2437 15.9158 21.2437 15.9131 21.2437 15.9104C21.2437 15.9077 21.2437 15.9051 21.2437 15.9023C21.2437 15.8997 21.2437 15.897 21.2437 15.8944C21.2437 15.8917 21.2437 15.889 21.2437 15.8864H19.3766C19.3766 15.889 19.3766 15.8917 19.3766 15.8944C19.3766 15.897 19.3766 15.8997 19.3766 15.9023C19.3766 15.9051 19.3766 15.9077 19.3766 15.9104C19.3766 15.9131 19.3766 15.9158 19.3766 15.9184C19.3766 15.9211 19.3766 15.9238 19.3766 15.9265C19.3766 15.9292 19.3766 15.9319 19.3766 15.9345C19.3766 15.9373 19.3766 15.94 19.3766 15.9426C19.3766 15.9454 19.3766 15.9481 19.3766 15.9508C19.3766 15.9535 19.3766 15.9562 19.3766 15.9589C19.3766 15.9616 19.3766 15.9643 19.3766 15.967C19.3766 15.9698 19.3766 15.9724 19.3766 15.9751C19.3766 15.9779 19.3766 15.9806 19.3766 15.9833C19.3766 15.9861 19.3766 15.9888 19.3766 15.9915C19.3766 15.9942 19.3766 15.997 19.3766 15.9997C19.3766 16.0024 19.3766 16.0052 19.3766 16.0079C19.3766 16.0106 19.3766 16.0134 19.3766 16.0161C19.3766 16.0189 19.3766 16.0216 19.3766 16.0243C19.3766 16.0271 19.3766 16.0298 19.3766 16.0326C19.3766 16.0354 19.3766 16.0381 19.3766 16.0408C19.3766 16.0436 19.3766 16.0464 19.3766 16.0491C19.3766 16.0519 19.3766 16.0546 19.3766 16.0574C19.3766 16.0601 19.3766 16.063 19.3766 16.0657C19.3766 16.0685 19.3766 16.0712 19.3766 16.074C19.3766 16.0768 19.3766 16.0795 19.3766 16.0823C19.3766 16.0852 19.3766 16.0879 19.3766 16.0907C19.3766 16.0935 19.3766 16.0962 19.3766 16.099C19.3766 16.1018 19.3766 16.1046 19.3766 16.1073C19.3766 16.1102 19.3766 16.113 19.3766 16.1158C19.3766 16.1186 19.3766 16.1214 19.3766 16.1242C19.3766 16.127 19.3766 16.1298 19.3766 16.1326C19.3766 16.1353 19.3766 16.1381 19.3766 16.141C19.3766 16.1438 19.3766 16.1466 19.3766 16.1494C19.3766 16.1522 19.3766 16.155 19.3766 16.1578C19.3766 16.1606 19.3766 16.1634 19.3766 16.1662C19.3766 16.1691 19.3766 16.1719 19.3766 16.1747C19.3766 16.1775 19.3766 16.1804 19.3766 16.1832C19.3766 16.186 19.3766 16.1888 19.3766 16.1917C19.3766 16.1945 19.3766 16.1973 19.3766 16.2002C19.3766 16.203 19.3766 16.2058 19.3766 16.2086C19.3766 16.2114 19.3766 16.2143 19.3766 16.2171C19.3766 16.22 19.3766 16.2228 19.3766 16.2257C19.3766 16.2285 19.3766 16.2314 19.3766 16.2342C19.3766 16.237 19.3766 16.2399 19.3766 16.2427C19.3766 16.2456 19.3766 16.2485 19.3766 16.2513C19.3766 16.2542 19.3766 16.257 19.3766 16.2598C19.3766 16.2627 19.3766 16.2656 19.3766 16.2684C19.3766 16.2713 19.3766 16.2742 19.3766 16.277C19.3766 16.2798 19.3766 16.2827 19.3766 16.2856C19.3766 16.2885 19.3766 16.2914 19.3766 16.2942C19.3766 16.2971 19.3766 16.2999 19.3766 16.3028C19.3766 16.3057 19.3766 16.3086 19.3766 16.3114C19.3766 16.3143 19.3766 16.3172 19.3766 16.3201C19.3766 16.323 19.3766 16.3258 19.3766 16.3287C19.3766 16.3316 19.3766 16.3345 19.3766 16.3373C19.3766 16.3402 19.3766 16.3432 19.3766 16.3461C19.3766 16.3489 19.3766 16.3518 19.3766 16.3547C19.3766 16.3576 19.3766 16.3605 19.3766 16.3634C19.3766 16.3663 19.3766 16.3692 19.3766 16.372C19.3766 16.375 19.3766 16.3779 19.3766 16.3808C19.3766 16.3836 19.3766 16.3866 19.3766 16.3895C19.3766 16.3923 19.3766 16.3953 19.3766 16.3982C19.3766 16.4011 19.3766 16.404 19.3766 16.4069C19.3766 16.4098 19.3766 16.4127 19.3766 16.4156C19.3766 16.4186 19.3766 16.4214 19.3766 16.4244C19.3766 16.4273 19.3766 16.4301 19.3766 16.4331C19.3766 16.436 19.3766 16.4389 19.3766 16.4418C19.3766 16.4448 19.3766 16.4477 19.3766 16.4506C19.3766 16.4536 19.3766 16.4564 19.3766 16.4594C19.3766 16.4623 19.3766 16.4652 19.3766 16.4682C19.3766 16.4711 19.3766 16.474 19.3766 16.4769C19.3766 16.4798 19.3766 16.4828 19.3766 16.4857C19.3766 16.4886 19.3766 16.4916 19.3766 16.4945C19.3766 16.4974 19.3766 16.5004 19.3766 16.5033C19.3766 16.5062 19.3766 16.5092 19.3766 16.5121C19.3766 16.5151 19.3766 16.518 19.3766 16.5209C19.3766 16.5239 19.3766 16.5268 19.3766 16.5298C19.3766 16.5327 19.3766 16.5356 19.3766 16.5386C19.3766 16.5415 19.3766 16.5445 19.3766 16.5474C19.3766 16.5504 19.3766 16.5533 19.3766 16.5563C19.3766 16.5592 19.3766 16.5621 19.3766 16.5651C19.3766 16.568 19.3766 16.571 19.3766 16.5739C19.3766 16.5769 19.3766 16.5798 19.3766 16.5828C19.3766 16.5858 19.3766 16.5887 19.3766 16.5917C19.3766 16.5946 19.3766 16.5976 19.3766 16.6005C19.3766 16.6035 19.3766 16.6064 19.3766 16.6094C19.3766 16.6123 19.3766 16.6153 19.3766 16.6183C19.3766 16.6213 19.3766 16.6242 19.3766 16.6272C19.3766 16.6302 19.3766 16.6331 19.3766 16.6361C19.3766 16.639 19.3766 16.642 19.3766 16.6449C19.3766 16.648 19.3766 16.6509 19.3766 16.6539C19.3766 16.6568 19.3766 16.6598 19.3766 16.6627C19.3766 16.6658 19.3766 16.6687 19.3766 16.6717C19.3766 16.6746 19.3766 16.6776 19.3766 16.6806C19.3766 16.6836 19.3766 16.6865 19.3766 16.6895C19.3766 16.6925 19.3766 16.6955 19.3766 16.6984C19.3766 16.7014 19.3766 16.7044 19.3766 16.7073C19.3766 16.7103 19.3766 16.7133 19.3766 16.7163C19.3766 16.7192 19.3766 16.7222 19.3766 16.7252C19.3766 16.7282 19.3766 16.7311 19.3766 16.7342C19.3766 16.7371 19.3766 16.7401 19.3766 16.7431C19.3766 16.7461 19.3766 16.749 19.3766 16.752C19.3766 16.755 19.3766 16.758 19.3766 16.761C19.3766 16.7639 19.3766 16.7669 19.3766 16.7699C19.3766 16.7729 19.3766 16.7759 19.3766 16.7789C19.3766 16.7818 19.3766 16.7848 19.3766 16.7878C19.3766 16.7908 19.3766 16.7938 19.3766 16.7968C19.3766 16.7998 19.3766 16.8027 19.3766 16.8058C19.3766 16.8087 19.3766 16.8117 19.3766 16.8147C19.3766 16.8177 19.3766 16.8207 19.3766 16.8236C19.3766 16.8267 19.3766 16.8296 19.3766 16.8326C19.3766 16.8356 19.3766 16.8386 19.3766 16.8416C19.3766 16.8446 19.3766 16.8476 19.3766 16.8506C19.3766 16.8536 19.3766 16.8566 19.3766 16.8595C19.3766 16.8626 19.3766 16.8655 19.3766 16.8686C19.3766 16.8715 19.3766 16.8745 19.3766 16.8775C19.3766 16.8805 19.3766 16.8835 19.3766 16.8865C19.3766 16.8895 19.3766 16.8925 19.3766 16.8955C19.3766 16.8985 19.3766 16.9014 19.3766 16.9045C19.3766 16.9074 19.3766 16.9105 19.3766 16.9134C19.3766 16.9164 19.3766 16.9194 19.3766 16.9224C19.3766 16.9254 19.3766 16.9284 19.3766 16.9314C19.3766 16.9344 19.3766 16.9374 19.3766 16.9404C19.3766 16.9434 19.3766 16.9464 19.3766 16.9494C19.3766 16.9523 19.3766 16.9554 19.3766 16.9583C19.3766 16.9614 19.3766 16.9643 19.3766 16.9673C19.3766 16.9704 19.3766 16.9733 19.3766 16.9764C19.3766 16.9793 19.3766 16.9823 19.3766 16.9853C19.3766 16.9883 19.3766 16.9913 19.3766 16.9943C19.3766 16.9973 19.3766 17.0003 19.3766 17.0033C19.3766 17.0063 19.3766 17.0093 19.3766 17.0123C19.3766 17.0153 19.3766 17.0183 19.3766 17.0213C19.3766 17.0242 19.3766 17.0273 19.3766 17.0303C19.3766 17.0333 19.3766 17.0363 19.3766 17.0392C19.3766 17.0423 19.3766 17.0452 19.3766 17.0483C19.3766 17.0512 19.3766 17.0542 19.3766 17.0572C19.3766 17.0602 19.3766 17.0633 19.3766 17.0662C19.3766 17.0692 19.3766 17.0722 19.3766 17.0752C19.3766 17.0782 19.3766 17.0812 19.3766 17.0842C19.3766 17.0872 19.3766 17.0901 19.3766 17.0932C19.3766 17.0961 19.3766 17.0992 19.3766 17.1021C19.3766 17.1052 19.3766 17.1081 19.3766 17.1111C19.3766 17.1141 19.3766 17.1171 19.3766 17.1201C19.3766 17.1231 19.3766 17.1261 19.3766 17.1291C19.3766 17.132 19.3766 17.1351 19.3766 17.138C19.3766 17.1411 19.3766 17.144 19.3766 17.147C19.3766 17.15 19.3766 17.153 19.3766 17.156C19.3766 17.159 19.3766 17.162 19.3766 17.165C19.3766 17.168 19.3766 17.1709 19.3766 17.1739C19.3766 17.1769 19.3766 17.1799 19.3766 17.1829C19.3766 17.1859 19.3766 17.1889 19.3766 17.1918C19.3766 17.1948 19.3766 17.1978 19.3766 17.2008C19.3766 17.2038 19.3766 17.2068 19.3766 17.2098C19.3766 17.2127 19.3766 17.2158 19.3766 17.2187C19.3766 17.2217 19.3766 17.2247 19.3766 17.2277C19.3766 17.2307 19.3766 17.2336 19.3766 17.2366C19.3766 17.2396 19.3766 17.2426 19.3766 17.2455C19.3766 17.2486 19.3766 17.2515 19.3766 17.2545C19.3766 17.2575 19.3766 17.2605 19.3766 17.2634C19.3766 17.2664 19.3766 17.2694 19.3766 17.2723C19.3766 17.2754 19.3766 17.2783 19.3766 17.2813C19.3766 17.2842 19.3766 17.2873 19.3766 17.2902C19.3766 17.2932 19.3766 17.2961 19.3766 17.2992C19.3766 17.3021 19.3766 17.3051 19.3766 17.308C19.3766 17.3111 19.3766 17.314 19.3766 17.317C19.3766 17.3199 19.3766 17.3229 19.3766 17.3259C19.3766 17.3289 19.3766 17.3318 19.3766 17.3348C19.3766 17.3377 19.3766 17.3407 19.3766 17.3437C19.3766 17.3467 19.3766 17.3496 19.3766 17.3526C19.3766 17.3555 19.3766 17.3585 19.3766 17.3614C19.3766 17.3644 19.3766 17.3673 19.3766 17.3704C19.3766 17.3733 19.3766 17.3763 19.3766 17.3792C19.3766 17.3822 19.3766 17.3851 19.3766 17.3881C19.3766 17.3911 19.3766 17.394 19.3766 17.397C19.3766 17.3999 19.3766 17.4029 19.3766 17.4058C19.3766 17.4088 19.3766 17.4117 19.3766 17.4147C19.3766 17.4176 19.3766 17.4206 19.3766 17.4236C19.3766 17.4265 19.3766 17.4295 19.3766 17.4323C19.3766 17.4353 19.3766 17.4383 19.3766 17.4412C19.3766 17.4442 19.3766 17.4471 19.3766 17.4501C19.3766 17.453 19.3766 17.4559 19.3766 17.4589C19.3766 17.4618 19.3766 17.4648 19.3766 17.4677C19.3766 17.4706 19.3766 17.4736 19.3766 17.4765C19.3766 17.4795 19.3766 17.4824 19.3766 17.4853C19.3766 17.4883 19.3766 17.4912 19.3766 17.4941C19.3766 17.497 19.3766 17.5 19.3766 17.503C19.3766 17.5058 19.3766 17.5088 19.3766 17.5117C19.3766 17.5146 19.3766 17.5176 19.3766 17.5205C19.3766 17.5234 19.3766 17.5264 19.3766 17.5292C19.3766 17.5322 19.3766 17.5351 19.3766 17.538C19.3766 17.5409 19.3766 17.5439 19.3766 17.5468C19.3766 17.5497 19.3766 17.5527 19.3766 17.5555C19.3766 17.5585 19.3766 17.5614 19.3766 17.5642C19.3766 17.5672 19.3766 17.5701 19.3766 17.573C19.3766 17.5759 19.3766 17.5789 19.3766 17.5817C19.3766 17.5846 19.3766 17.5876 19.3766 17.5905C19.3766 17.5933 19.3766 17.5963 19.3766 17.5992C19.3766 17.602 19.3766 17.605 19.3766 17.6079C19.3766 17.6108 19.3766 17.6136 19.3766 17.6166C19.3766 17.6195 19.3766 17.6223 19.3766 17.6252C19.3766 17.6282 19.3766 17.6311 19.3766 17.6339C19.3766 17.6368 19.3766 17.6397 19.3766 17.6426C19.3766 17.6455 19.3766 17.6484 19.3766 17.6513C19.3766 17.6542 19.3766 17.657 19.3766 17.6599C19.3766 17.6628 19.3766 17.6657 19.3766 17.6686C19.3766 17.6714 19.3766 17.6743 19.3766 17.6772C19.3766 17.6801 19.3766 17.683 19.3766 17.6858C19.3766 17.6887 19.3766 17.6915 19.3766 17.6944C19.3766 17.6973 19.3766 17.7001 19.3766 17.703C19.3766 17.7059 19.3766 17.7088 19.3766 17.7116C19.3766 17.7145 19.3766 17.7173 19.3766 17.7202C19.3766 17.723 19.3766 17.7259 19.3766 17.7288C19.3766 17.7316 19.3766 17.7345 19.3766 17.7373C19.3766 17.7401 19.3766 17.743 19.3766 17.7459C19.3766 17.7487 19.3766 17.7516 19.3766 17.7544C19.3766 17.7573 19.3766 17.7601 19.3766 17.763C19.3766 17.7658 19.3766 17.7686 19.3766 17.7715C19.3766 17.7743 19.3766 17.7772 19.3766 17.78C19.3766 17.7828 19.3766 17.7857 19.3766 17.7885C19.3766 17.7914 19.3766 17.7942 19.3766 17.797C19.3766 17.7998 19.3766 17.8027 19.3766 17.8055C19.3766 17.8083 19.3766 17.8111 19.3766 17.8139C19.3766 17.8167 19.3766 17.8195 19.3766 17.8224C19.3766 17.8252 19.3766 17.828 19.3766 17.8308C19.3766 17.8336 19.3766 17.8364 19.3766 17.8392C19.3766 17.842 19.3766 17.8448 19.3766 17.8477C19.3766 17.8505 19.3766 17.8533 19.3766 17.8561C19.3766 17.8589 19.3766 17.8617 19.3766 17.8645C19.3766 17.8673 19.3766 17.8701 19.3766 17.8729C19.3766 17.8757 19.3766 17.8785 19.3766 17.8813C19.3766 17.884 19.3766 17.8868 19.3766 17.8896C19.3766 17.8924 19.3766 17.8951 19.3766 17.898C19.3766 17.9008 19.3766 17.9035 19.3766 17.9063C19.3766 17.9091 19.3766 17.9118 19.3766 17.9146C19.3766 17.9174 19.3766 17.9201 19.3766 17.923C19.3766 17.9257 19.3766 17.9285 19.3766 17.9312C19.3766 17.934 19.3766 17.9367 19.3766 17.9395C19.3766 17.9423 19.3766 17.945 19.3766 17.9478C19.3766 17.9505 19.3766 17.9533 19.3766 17.9561C19.3766 17.9588 19.3766 17.9615 19.3766 17.9643C19.3766 17.967 19.3766 17.9698 19.3766 17.9725C19.3766 17.9752 19.3766 17.978 19.3766 17.9808C19.3766 17.9835 19.3766 17.9862 19.3766 17.9889C19.3766 17.9917 19.3766 17.9944 19.3766 17.9971C19.3766 17.9998 19.3766 18.0026 19.3766 18.0053C19.3766 18.008 19.3766 18.0108 19.3766 18.0135C19.3766 18.0162 19.3766 18.0189 19.3766 18.0216C19.3766 18.0243 19.3766 18.027 19.3766 18.0298C19.3766 18.0324 19.3766 18.0351 19.3766 18.0379C19.3766 18.0405 19.3766 18.0433 19.3766 18.046C19.3766 18.0486 19.3766 18.0514 19.3766 18.0541C19.3766 18.0567 19.3766 18.0595 19.3766 18.0621C19.3766 18.0648 19.3766 18.0675 19.3766 18.0702C19.3766 18.0729 19.3766 18.0755 19.3766 18.0783C19.3766 18.0809 19.3766 18.0836 19.3766 18.0863C19.3766 18.0889 19.3766 18.0916 19.3766 18.0942C19.3766 18.097 19.3766 18.0996 19.3766 18.1023C19.3766 18.1049 19.3766 18.1076 19.3766 18.1102C19.3766 18.1129 19.3766 18.1156 19.3766 18.1183C19.3766 18.1209 19.3766 18.1236 19.3766 18.1261C19.3766 18.1288 19.3766 18.1314 19.3766 18.1341C19.3766 18.1367 19.3766 18.1394 19.3766 18.142C19.3766 18.1447 19.3766 18.1473 19.3766 18.1499C19.3766 18.1526 19.3766 18.1552 19.3766 18.1578C19.3766 18.1605 19.3766 18.163 19.3766 18.1657C19.3766 18.1683 19.3766 18.1709 19.3766 18.1736C19.3766 18.1761 19.3766 18.1788 19.3766 18.1814C19.3766 18.184 19.3766 18.1866 19.3766 18.1892C19.3766 18.1918 19.3766 18.1944 19.3766 18.197C19.3766 18.1996 19.3766 18.2022 19.3766 18.2048C19.3766 18.2073 19.3766 18.21 19.3766 18.2126C19.3766 18.2151 19.3766 18.2177 19.3766 18.2203C19.3766 18.2229 19.3766 18.2255 19.3766 18.228C19.3766 18.2306 19.3766 18.2332 19.3766 18.2358C19.3766 18.2383 19.3766 18.2409 19.3766 18.2435C19.3766 18.246 19.3766 18.2486 19.3766 18.2511C19.3766 18.2537 19.3766 18.2562 19.3766 18.2588C19.3766 18.2614 19.3766 18.2639 19.3766 18.2664C19.3766 18.269 19.3766 18.2715 19.3766 18.2741C19.3766 18.2766 19.3766 18.2792 19.3766 18.2817C19.3766 18.2842 19.3766 18.2867 19.3766 18.2892C19.3766 18.2918 19.3766 18.2943 19.3766 18.2968C19.3766 18.2993 19.3766 18.3019 19.3766 18.3044C19.3766 18.3069 19.3766 18.3094 19.3766 18.3119C19.3766 18.3144 19.3766 18.3169 19.3766 18.3194C19.3766 18.322 19.3766 18.3244 19.3766 18.3269C19.3766 18.3294 19.3766 18.3319 19.3766 18.3344C19.3766 18.3369 19.3766 18.3394 19.3766 18.3419C19.3766 18.3443 19.3766 18.3468 19.3766 18.3493C19.3766 18.3517 19.3766 18.3542 19.3766 18.3567C19.3766 18.3592 19.3766 18.3617 19.3766 18.3641C19.3766 18.3666 19.3766 18.369 19.3766 18.3715C19.3766 18.3739 19.3766 18.3764 19.3766 18.3789C19.3766 18.3813 19.3766 18.3838 19.3766 18.3862C19.3766 18.3886 19.3766 18.3911 19.3766 18.3935C19.3766 18.396 19.3766 18.3984 19.3766 18.4008C19.3766 18.4033 19.3766 18.4057 19.3766 18.4081C19.3766 18.4105 19.3766 18.413 19.3766 18.4154C19.3766 18.4177 19.3766 18.4201 19.3766 18.4226C19.3766 18.425 19.3766 18.4274 19.3766 18.4298C19.3766 18.4322 19.3766 18.4346 19.3766 18.437C19.3766 18.4394 19.3766 18.4418 19.3766 18.4442C19.3766 18.4466 19.3766 18.4489 19.3766 18.4514C19.3766 18.4537 19.3766 18.4561 19.3766 18.4585C19.3766 18.4608 19.3766 18.4632 19.3766 18.4656C19.3766 18.468 19.3766 18.4703 19.3766 18.4727C19.3766 18.475 19.3766 18.4773 19.3766 18.4797C19.3766 18.482 19.3766 18.4844 19.3766 18.4867C19.3766 18.4891 19.3766 18.4914 19.3766 18.4938C19.3766 18.4961 19.3766 18.4985 19.3766 18.5008C19.3766 18.5031 19.3766 18.5055 19.3766 18.5078C19.3766 18.5101 19.3766 18.5124 19.3766 18.5148C19.3766 18.517 19.3766 18.5194 19.3766 18.5217C19.3766 18.524 19.3766 18.5263 19.3766 18.5286C19.3766 18.5309 19.3766 18.5332 19.3766 18.5355C19.3766 18.5378 19.3766 18.5401 19.3766 18.5423C19.3766 18.5446 19.3766 18.5469 19.3766 18.5492C19.3766 18.5514 19.3766 18.5537 19.3766 18.556C19.3766 18.5583 19.3766 18.5605 19.3766 18.5628C19.3766 18.5651 19.3766 18.5673 19.3766 18.5696C19.3766 18.5718 19.3766 18.5741 19.3766 18.5764C19.3766 18.5786 19.3766 18.5808 19.3766 18.5831C19.3766 18.5853 19.3766 18.5876 19.3766 18.5898C19.3766 18.592 19.3766 18.5942 19.3766 18.5964C19.3766 18.5987 19.3766 18.6009 19.3766 18.6031C19.3766 18.6054 19.3766 18.6076 19.3766 18.6098C19.3766 18.612 19.3766 18.6142 19.3766 18.6164C19.3766 18.6186 19.3766 18.6208 19.3766 18.623C19.3766 18.6252 19.3766 18.6273 19.3766 18.6295C19.3766 18.6317 19.3766 18.6339 19.3766 18.6361C19.3766 18.6383 19.3766 18.6404 19.3766 18.6426C19.3766 18.6448 19.3766 18.6469 19.3766 18.6491C19.3766 18.6512 19.3766 18.6534 19.3766 18.6555C19.3766 18.6576 19.3766 18.6598 19.3766 18.662C19.3766 18.6641 19.3766 18.6662 19.3766 18.6684C19.3766 18.6705 19.3766 18.6727 19.3766 18.6748C19.3766 18.6769 19.3766 18.679 19.3766 18.6811C19.3766 18.6833 19.3766 18.6854 19.3766 18.6875C19.3766 18.6896 19.3766 18.6917 19.3766 18.6938C19.3766 18.6959 19.3766 18.698 19.3766 18.7001C19.3766 18.7022 19.3766 18.7042 19.3766 18.7064C19.3766 18.7084 19.3766 18.7105 19.3766 18.7126C19.3766 18.7146 19.3766 18.7167 19.3766 18.7188C19.3766 18.7208 19.3766 18.7229 19.3766 18.725C19.3766 18.727 19.3766 18.7291 19.3766 18.7311C19.3766 18.7332 19.3766 18.7352 19.3766 18.7373C19.3766 18.7393 19.3766 18.7414 19.3766 18.7433C19.3766 18.7454 19.3766 18.7474 19.3766 18.7495C19.3766 18.7514 19.3766 18.7535 19.3766 18.7555C19.3766 18.7575 19.3766 18.7595 19.3766 18.7615C19.3766 18.7635 19.3766 18.7655 19.3766 18.7675C19.3766 18.7695 19.3766 18.7715 19.3766 18.7735C19.3766 18.7755 19.3766 18.7774 19.3766 18.7794C19.3766 18.7814 19.3766 18.7834 19.3766 18.7854C19.3766 18.7873 19.3766 18.7892 19.3766 18.7912C19.3766 18.7932 19.3766 18.7951 19.3766 18.7971C19.3766 18.799 19.3766 18.801 19.3766 18.803C19.3766 18.8048 19.3766 18.8068 19.3766 18.8087C19.3766 18.8107 19.3766 18.8126 19.3766 18.8145C19.3766 18.8164 19.3766 18.8183 19.3766 18.8203C19.3766 18.8222 19.3766 18.8241 19.3766 18.826C19.3766 18.8279 19.3766 18.8298 19.3766 18.8317C19.3766 18.8336 19.3766 18.8355 19.3766 18.8373C19.3766 18.8392 19.3766 18.8411 19.3766 18.843C19.3766 18.8448 19.3766 18.8467 19.3766 18.8486C19.3766 18.8505 19.3766 18.8523 19.3766 18.8542C19.3766 18.8561 19.3766 18.8579 19.3766 18.8597C19.3766 18.8616 19.3766 18.8634 19.3766 18.8652C19.3766 18.867 19.3766 18.8689 19.3766 18.8708C19.3766 18.8726 19.3766 18.8744 19.3766 18.8762C19.3766 18.878 19.3766 18.8798 19.3766 18.8817C19.3766 18.8834 19.3766 18.8852 19.3766 18.887C19.3766 18.8889 19.3766 18.8906 19.3766 18.8924C19.3766 18.8942 19.3766 18.896 19.3766 18.8977C19.3766 18.8995 19.3766 18.9013 19.3766 18.903C19.3766 18.9048 19.3766 18.9066 19.3766 18.9083C19.3766 18.9101 19.3766 18.9119 19.3766 18.9136C19.3766 18.9154 19.3766 18.9171 19.3766 18.9189C19.3766 18.9206 19.3766 18.9223 19.3766 18.924C19.3766 18.9258 19.3766 18.9275 19.3766 18.9292C19.3766 18.9309 19.3766 18.9327 19.3766 18.9343C19.3766 18.9361 19.3766 18.9377 19.3766 18.9394C19.3766 18.9411 19.3766 18.9428 19.3766 18.9445C19.3766 18.9462 19.3766 18.9479 19.3766 18.9495C19.3766 18.9512 19.3766 18.9529 19.3766 18.9545C19.3766 18.9562 19.3766 18.9579 19.3766 18.9595C19.3766 18.9612 19.3766 18.9628 19.3766 18.9645C19.3766 18.9661 19.3766 18.9677 19.3766 18.9694C19.3766 18.971 19.3766 18.9726 19.3766 18.9742C19.3766 18.9759 19.3766 18.9775 19.3766 18.9791C19.3766 18.9808 19.3766 18.9823 19.3766 18.9839C19.3766 18.9855 19.3766 18.9871 19.3766 18.9887C19.3766 18.9903 19.3766 18.9919 19.3766 18.9935C19.3766 18.9951 19.3766 18.9967 19.3766 18.9982C19.3766 18.9998 19.3766 19.0014 19.3766 19.0029C19.3766 19.0045 19.3766 19.006 19.3766 19.0076C19.3766 19.0091 19.3766 19.0107 19.3766 19.0122C19.3766 19.0137 19.3766 19.0152 19.3766 19.0168C19.3766 19.0183 19.3766 19.0198 19.3766 19.0214C19.3766 19.0229 19.3766 19.0244 19.3766 19.0259C19.3766 19.0273 19.3766 19.0289 19.3766 19.0304C19.3766 19.0319 19.3766 19.0333 19.3766 19.0348C19.3766 19.0363 19.3766 19.0378 19.3766 19.0392C19.3766 19.0408 19.3766 19.0422 19.3766 19.0436C19.3766 19.0451 19.3766 19.0466 19.3766 19.048C19.3766 19.0495 19.3766 19.0509 19.3766 19.0523C19.3766 19.0538 19.3766 19.0552 19.3766 19.0567C19.3766 19.058 19.3766 19.0595 19.3766 19.0609C19.3766 19.0623 19.3766 19.0637 19.3766 19.0652C19.3766 19.0665 19.3766 19.068 19.3766 19.0693C19.3766 19.0707 19.3766 19.0721 19.3766 19.0735C19.3766 19.0748 19.3766 19.0762 19.3766 19.0776C19.3766 19.0789 19.3766 19.0803 19.3766 19.0817C19.3766 19.083 19.3766 19.0844 19.3766 19.0858C19.3766 19.0871 19.3766 19.0884 19.3766 19.0898C19.3766 19.0911 19.3766 19.0924 19.3766 19.0938C19.3766 19.0951 19.3766 19.0964 19.3766 19.0977C19.3766 19.099 19.3766 19.1003 19.3766 19.1016C19.3766 19.1029 19.3766 19.1042 19.3766 19.1055C19.3766 19.1068 19.3766 19.108 19.3766 19.1093C19.3766 19.1106 19.3766 19.1119 19.3766 19.1132C19.3766 19.1144 19.3766 19.1157 19.3766 19.1169C19.3766 19.1182 19.3766 19.1194 19.3766 19.1207C19.3766 19.1219 19.3766 19.1231 19.3766 19.1244C19.3766 19.1256 19.3766 19.1268 19.3766 19.128C19.3766 19.1292 19.3766 19.1305 19.3766 19.1317C19.3766 19.1329 19.3766 19.1341 19.3766 19.1352C19.3766 19.1364 19.3766 19.1377 19.3766 19.1388C19.3766 19.14 19.3766 19.1411 19.3766 19.1423C19.3766 19.1435 19.3766 19.1446 19.3766 19.1458C19.3766 19.147 19.3766 19.1481 19.3766 19.1492C19.3766 19.1504 19.3766 19.1515 19.3766 19.1527C19.3766 19.1538 19.3766 19.1549 19.3766 19.1561C19.3766 19.1572 19.3766 19.1583 19.3766 19.1594C19.3766 19.1605 19.3766 19.1616 19.3766 19.1626C19.3766 19.1638 19.3766 19.1648 19.3766 19.1659C19.3766 19.167 19.3766 19.1681 19.3766 19.1692C19.3766 19.1702 19.3766 19.1713 19.3766 19.1723C19.3766 19.1734 19.3766 19.1745 19.3766 19.1755C19.3766 19.1765 19.3766 19.1776 19.3766 19.1786C19.3766 19.1796 19.3766 19.1807 19.3766 19.1817C19.3766 19.1827 19.3766 19.1837 19.3766 19.1847C19.3766 19.1858 19.3766 19.1867 19.3766 19.1877C19.3766 19.1887 19.3766 19.1897 19.3766 19.1907C19.3766 19.1917 19.3766 19.1927 19.3766 19.1936C19.3766 19.1945 19.3766 19.1955 19.3766 19.1965C19.3766 19.1974 19.3766 19.1984 19.3766 19.1993C19.3766 19.2003 19.3766 19.2012 19.3766 19.2021C19.3766 19.203 19.3766 19.204 19.3766 19.2049C19.3766 19.2058 19.3766 19.2067 19.3766 19.2077C19.3766 19.2086 19.3766 19.2094 19.3766 19.2103C19.3766 19.2112 19.3766 19.2121 19.3766 19.213C19.3766 19.2139 19.3766 19.2147 19.3766 19.2156C19.3766 19.2164 19.3766 19.2173 19.3766 19.2182C19.3766 19.219 19.3766 19.2198 19.3766 19.2207C19.3766 19.2215 19.3766 19.2223 19.3766 19.2232C19.3766 19.224 19.3766 19.2248 19.3766 19.2256C19.3766 19.2264 19.3766 19.2272 19.3766 19.228C19.3766 19.2288 19.3766 19.2296 19.3766 19.2304C19.3766 19.2312 19.3766 19.232 19.3766 19.2327C19.3766 19.2335 19.3766 19.2342 19.3766 19.235C19.3766 19.2358 19.3766 19.2365 19.3766 19.2373C19.3766 19.238 19.3766 19.2387 19.3766 19.2395C19.3766 19.2402 19.3766 19.2409 19.3766 19.2417C19.3766 19.2423 19.3766 19.243 19.3766 19.2438C19.3766 19.2445 19.3766 19.2452 19.3766 19.2458C19.3766 19.2465 19.3766 19.2472 19.3766 19.2479C19.3766 19.2486 19.3766 19.2492 19.3766 19.2499C19.3766 19.2505 19.3766 19.2512 19.3766 19.2519C19.3766 19.2525 19.3766 19.2532 19.3766 19.2538C19.3766 19.2544 19.3766 19.2551 19.3766 19.2557C19.3766 19.2563 19.3766 19.2569 19.3766 19.2575C19.3766 19.2581 19.3766 19.2587 19.3766 19.2593C19.3766 19.2599 19.3766 19.2605 19.3766 19.2611C19.3766 19.2617 19.3766 19.2622 19.3766 19.2628C19.3766 19.2633 19.3766 19.2639 19.3766 19.2645C19.3766 19.265 19.3766 19.2655 19.3766 19.2661C19.3766 19.2666 19.3766 19.2671 19.3766 19.2676C19.3766 19.2682 19.3766 19.2687 19.3766 19.2692C19.3766 19.2697 19.3766 19.2702 19.3766 19.2707C19.3766 19.2712 19.3766 19.2717 19.3766 19.2721C19.3766 19.2727 19.3766 19.2731 19.3766 19.2736C19.3766 19.274 19.3766 19.2745 19.3766 19.2749C19.3766 19.2754 19.3766 19.2758 19.3766 19.2763C19.3766 19.2767 19.3766 19.2771 19.3766 19.2776C19.3766 19.278 19.3766 19.2784 19.3766 19.2788C19.3766 19.2792 19.3766 19.2796 19.3766 19.28C19.3766 19.2804 19.3766 19.2808 19.3766 19.2811C19.3766 19.2815 19.3766 19.2819 19.3766 19.2823C19.3766 19.2827 19.3766 19.283 19.3766 19.2833C19.3766 19.2836 19.3766 19.284 19.3766 19.2843C19.3766 19.2847 19.3766 19.285 19.3766 19.2853C19.3766 19.2856 19.3766 19.286 19.3766 19.2863C19.3766 19.2866 19.3766 19.2868 19.3766 19.2871C19.3766 19.2874 19.3766 19.2877 19.3766 19.288C19.3766 19.2883 19.3766 19.2886 19.3766 19.2888C19.3766 19.289 19.3766 19.2893 19.3766 19.2895C19.3766 19.2898 19.3766 19.29 19.3766 19.2902C19.3766 19.2905 19.3766 19.2907 19.3766 19.2909C19.3766 19.2911 19.3766 19.2914 19.3766 19.2915C19.3766 19.2917 19.3766 19.292 19.3766 19.2921C19.3766 19.2923 19.3766 19.2925 19.3766 19.2926C19.3766 19.2928 19.3766 19.293 19.3766 19.2931C19.3766 19.2933 19.3766 19.2934 19.3766 19.2936C19.3766 19.2937 19.3766 19.2939 19.3766 19.2939C19.3766 19.2941 19.3766 19.2942 19.3766 19.2943C19.3766 19.2944 19.3766 19.2945 19.3766 19.2946C19.3766 19.2947 19.3766 19.2948 19.3766 19.2948C19.3766 19.2949 19.3766 19.295 19.3766 19.2951C19.3766 19.2951 19.3766 19.2952 19.3766 19.2952C19.3766 19.2953 19.3766 19.2953 19.3766 19.2954C19.3766 19.2954 19.3766 19.2954 19.3766 19.2955C19.3766 19.2955 19.3766 19.2955 20.3101 19.2955ZM17.8078 4.76241C16.7755 3.92989 15.5326 3.32062 14.1094 2.99709L13.6747 4.72109C14.8151 4.98035 15.7923 5.46289 16.5992 6.11354L17.8078 4.76241ZM16.5992 6.11354C16.5945 6.10979 16.5191 6.05001 16.4617 5.92446C16.3932 5.77466 16.3832 5.60301 16.4311 5.44845C16.4711 5.31966 16.5368 5.24954 16.5443 5.2415C16.5546 5.2304 16.548 5.23947 16.5031 5.27351C16.3998 5.35174 16.2789 5.42758 16.0538 5.58071C15.8512 5.71848 15.6077 5.89121 15.3572 6.10536C14.8506 6.53829 14.3156 7.14006 13.968 8.00008C13.6206 8.85985 13.4839 9.91992 13.6809 11.2381L15.5295 10.9892C15.3698 9.92098 15.4946 9.17114 15.7113 8.63507C15.9277 8.09939 16.2592 7.71962 16.6064 7.42289C16.7826 7.27224 16.9627 7.14314 17.1411 7.02179C17.2969 6.91579 17.5144 6.77523 17.6672 6.65948C17.7504 6.59651 17.8514 6.5142 17.9439 6.41479C18.0335 6.31843 18.1558 6.16307 18.2221 5.94957C18.2963 5.7103 18.2823 5.45449 18.1743 5.21852C18.0775 5.0068 17.9274 4.85886 17.8078 4.76241L16.5992 6.11354ZM13.6809 11.2381C13.9022 12.7194 14.4166 13.8141 15.1221 14.6116C15.828 15.4095 16.6737 15.8517 17.4565 16.1073C18.2246 16.3583 18.9583 16.436 19.4133 16.4914C19.6736 16.5232 19.7791 16.5411 19.8209 16.5534C19.8416 16.5595 19.7545 16.5393 19.6495 16.4544C19.51 16.3415 19.3766 16.1414 19.3766 15.8864H21.2437C21.2437 15.5461 21.0721 15.2763 20.8605 15.1051C20.6833 14.9617 20.4901 14.8945 20.3753 14.8606C20.1461 14.793 19.8627 14.759 19.6512 14.7332C19.1626 14.6736 18.6212 14.6131 18.064 14.4311C17.5213 14.2538 16.9912 13.9681 16.5518 13.4714C16.1121 12.9744 15.7116 12.2077 15.5295 10.9892L13.6809 11.2381ZM25.495 9.73386H22.992V11.5066H25.495V9.73386ZM22.0584 10.6202V13.0933H23.9255V10.6202H22.0584ZM22.0584 13.0933C22.0584 13.0073 22.1365 12.8683 22.3275 12.8683V14.641C23.2495 14.641 23.9255 13.9067 23.9255 13.0933H22.0584ZM22.3275 12.8683C22.5186 12.8683 22.5966 13.0073 22.5966 13.0933H20.7295C20.7295 13.9067 21.4056 14.641 22.3275 14.641V12.8683ZM22.5966 13.0933V10.6202H20.7295V13.0933H22.5966ZM21.6631 9.73386H18.992V11.5066H21.6631V9.73386ZM18.992 9.73386C18.9922 9.73386 18.9951 9.73386 19.0008 9.73462C19.0064 9.73545 19.0152 9.7372 19.0267 9.74083C19.0497 9.74803 19.0859 9.76364 19.1256 9.79545C19.1667 9.82841 19.204 9.87311 19.2296 9.92651C19.2552 9.97985 19.2611 10.0252 19.2611 10.0515H17.394C17.394 10.4848 17.5823 10.878 17.9199 11.149C18.2399 11.406 18.6329 11.5066 18.992 11.5066V9.73386ZM19.2611 10.0515C19.2611 10.0778 19.2552 10.1232 19.2296 10.1765C19.204 10.2298 19.1667 10.2746 19.1256 10.3075C19.0859 10.3394 19.0497 10.355 19.0267 10.3622C19.0152 10.3658 19.0064 10.3675 19.0008 10.3683C18.9951 10.3692 18.9922 10.3692 18.992 10.3692V8.59644C18.6329 8.59644 18.2399 8.69704 17.9199 8.95401C17.5823 9.22507 17.394 9.61826 17.394 10.0515H19.2611ZM18.992 10.3692H21.6631V8.59644H18.992V10.3692ZM22.5966 9.4828V6.91711H20.7295V9.4828H22.5966ZM22.5966 6.91711C22.5966 7.00315 22.5186 7.1422 22.3275 7.1422V5.36948C21.4056 5.36948 20.7295 6.10366 20.7295 6.91711H22.5966ZM22.3275 7.1422C22.1365 7.1422 22.0584 7.00315 22.0584 6.91711H23.9255C23.9255 6.10367 23.2495 5.36948 22.3275 5.36948V7.1422ZM22.0584 6.91711V9.4828H23.9255V6.91711H22.0584ZM22.992 10.3692H25.495V8.59644H22.992V10.3692ZM25.495 10.3692C25.493 10.3692 25.3647 10.3644 25.2423 10.2426C25.1262 10.127 25.1329 10.0223 25.1329 10.0515H27C27 9.71704 26.9038 9.32795 26.5932 9.01894C26.2765 8.70371 25.8625 8.59644 25.495 8.59644V10.3692ZM25.1329 10.0515C25.1329 10.0808 25.1262 9.97598 25.2423 9.86038C25.3647 9.73864 25.493 9.73386 25.495 9.73386V11.5066C25.8625 11.5066 26.2765 11.3992 26.5932 11.0841C26.9038 10.7751 27 10.3859 27 10.0515H25.1329Z" fill="black"/>
</svg>
