<svg width="27" height="27" viewBox="0 0 27 27" fill="none" xmlns="http://www.w3.org/2000/svg">
<path d="M17.441 12.075H23.9814C25.6516 12.075 27 13.3672 27 14.9678V24.1072C27 25.7078 25.6516 27 23.9814 27H17.441C15.7707 27 14.4224 25.7078 14.4224 24.1072V14.9678C14.4224 13.3672 15.7707 12.075 17.441 12.075ZM3.01863 0C1.34833 0 0 1.29215 0 2.89286V23.9914C0 25.65 1.4087 27 3.13938 27H9.55902C11.2293 27 12.5776 25.7078 12.5776 24.1072V2.89286C12.5776 1.29215 11.2293 0 9.55902 0H3.01863ZM27 7.48928V2.89286C27 1.29215 25.6516 0 23.9814 0H17.441C15.7707 0 14.4224 1.29215 14.4224 2.89286V7.48928C14.4224 9.09 15.7707 10.3822 17.441 10.3822H23.9814C25.6516 10.3822 27 9.09 27 7.48928Z" fill="black"/>
</svg>
