<svg width="27" height="27" viewBox="0 0 27 27" fill="none" xmlns="http://www.w3.org/2000/svg">
<path fill-rule="evenodd" clip-rule="evenodd" d="M2.76976 1.44643C2.76976 1.06282 2.62385 0.694907 2.36413 0.423649C2.10442 0.152391 1.75217 0 1.38488 0C1.01759 0 0.665337 0.152391 0.405621 0.423649C0.145907 0.694907 0 1.06282 0 1.44643V25.5536C0 26.352 0.620426 27 1.38488 27H25.6151C25.9825 27 26.3347 26.8476 26.5943 26.5763C26.8541 26.3051 27 25.9372 27 25.5536C27 25.17 26.8541 24.802 26.5943 24.5308C26.3347 24.2595 25.9825 24.1071 25.6151 24.1071H2.76976V1.44643ZM25.7731 8.94629C26.0177 8.67208 26.1509 8.30941 26.1445 7.93472C26.1382 7.56 25.9929 7.20247 25.7391 6.93746C25.4855 6.67245 25.1432 6.52065 24.7844 6.51404C24.4256 6.50743 24.0783 6.64652 23.8158 6.90202L16.8237 16.3225L12.2628 11.5589C12.0032 11.2881 11.6512 11.1359 11.2842 11.1359C10.9172 11.1359 10.5652 11.2881 10.3055 11.5589L4.30441 17.8268C4.05978 18.101 3.9266 18.4636 3.93294 18.8384C3.93927 19.2131 4.08461 19.5706 4.33834 19.8356C4.59208 20.1006 4.93439 20.2525 5.29317 20.2591C5.65195 20.2657 5.99918 20.1266 6.2617 19.8711L11.2842 14.6253L15.8451 19.3889C16.1047 19.6598 16.4567 19.812 16.8237 19.812C17.1907 19.812 17.5427 19.6598 17.8024 19.3889L25.7731 8.94629Z" fill="black"/>
</svg>
