<svg width="27" height="27" viewBox="0 0 27 27" fill="none" xmlns="http://www.w3.org/2000/svg">
<path d="M9.40848 10.6602H7.03736C6.76224 10.6602 6.49838 10.5456 6.30384 10.3417C6.1093 10.1378 6 9.86118 6 9.5728V7.08738C6 6.79899 6.1093 6.52242 6.30384 6.3185C6.49838 6.11458 6.76224 6.00002 7.03736 6.00002H9.40848C9.6836 6.00002 9.94747 6.11458 10.142 6.3185C10.3365 6.52242 10.4458 6.79899 10.4458 7.08738V9.5728C10.4458 9.86118 10.3365 10.1378 10.142 10.3417C9.94747 10.5456 9.6836 10.6602 9.40848 10.6602Z" fill="black"/>
<path d="M21.7055 2.32278H22.5349C22.5349 2.32183 22.5349 2.32088 22.5349 2.31992L21.7055 2.32278ZM20.1398 0.870967L20.1419 2.86307e-06C20.1412 9.54358e-07 20.1404 0 20.1398 0V0.870967ZM2.39506 0.870967V0C2.39436 0 2.39365 9.54358e-07 2.39294 2.86307e-06L2.39506 0.870967ZM0.829352 2.32278L4.48556e-06 2.31992C1.49519e-06 2.32088 0 2.32183 0 2.32278H0.829352ZM0.829352 23.6161H0C0 23.6171 1.58145e-06 23.6181 4.74436e-06 23.6191L0.829352 23.6161ZM3.43887 26.0358L3.44247 25.1649C3.442 25.1649 3.44152 25.1649 3.44105 25.1649L3.43887 26.0358ZM23.8552 27C24.3133 27.0021 24.6862 26.6139 24.6881 26.1328C24.6902 25.6518 24.3205 25.2602 23.8624 25.2581L23.8552 27ZM23.9477 26.1197V26.9907V26.1197ZM21.7248 23.1905H20.8954H21.7248ZM21.7248 5.615V4.74403C21.2668 4.74403 20.8954 5.13399 20.8954 5.615H21.7248ZM25.0592 5.615V4.74403V5.615ZM26.1706 23.1905H27H26.1706ZM12.9813 4.66016C12.5233 4.66016 12.1519 5.0501 12.1519 5.53113C12.1519 6.01214 12.5233 6.40209 12.9813 6.40209V4.66016ZM16.8344 6.40209C17.2924 6.40209 17.6637 6.01214 17.6637 5.53113C17.6637 5.0501 17.2924 4.66016 16.8344 4.66016V6.40209ZM12.9813 8.62129C12.5233 8.62129 12.1519 9.01123 12.1519 9.49226C12.1519 9.97325 12.5233 10.3633 12.9813 10.3633V8.62129ZM16.8344 10.3633C17.2924 10.3633 17.6637 9.97325 17.6637 9.49226C17.6637 9.01123 17.2924 8.62129 16.8344 8.62129V10.3633ZM5.27519 12.5824C4.81716 12.5824 4.44584 12.9724 4.44584 13.4534C4.44584 13.9344 4.81716 14.3243 5.27519 14.3243V12.5824ZM16.8344 14.3243C17.2924 14.3243 17.6637 13.9344 17.6637 13.4534C17.6637 12.9724 17.2924 12.5824 16.8344 12.5824V14.3243ZM5.27519 16.5435C4.81716 16.5435 4.44584 16.9335 4.44584 17.4145C4.44584 17.8956 4.81716 18.2855 5.27519 18.2855V16.5435ZM16.8344 18.2855C17.2924 18.2855 17.6637 17.8956 17.6637 17.4145C17.6637 16.9335 17.2924 16.5435 16.8344 16.5435V18.2855ZM5.27519 20.5047C4.81716 20.5047 4.44584 20.8946 4.44584 21.3757C4.44584 21.8566 4.81716 22.2466 5.27519 22.2466V20.5047ZM16.8344 22.2466C17.2924 22.2466 17.6637 21.8566 17.6637 21.3757C17.6637 20.8946 17.2924 20.5047 16.8344 20.5047V22.2466ZM6.31255 5.53113V6.40209V5.53113ZM22.5349 23.1237V2.32278H20.8762V23.1237H22.5349ZM22.5349 2.31992C22.5327 1.66785 22.2518 1.06853 21.7945 0.64454L20.6967 1.95032C20.8261 2.07039 20.8758 2.20831 20.8762 2.32565L22.5349 2.31992ZM21.7945 0.64454C21.3405 0.223596 20.745 0.00162695 20.1419 2.86307e-06L20.1377 1.74193C20.3643 1.74254 20.5639 1.82721 20.6967 1.95032L21.7945 0.64454ZM20.1398 0H2.39506V1.74193H20.1398V0ZM2.39294 2.86307e-06C1.7898 0.00162695 1.1943 0.223596 0.740341 0.64454L1.83819 1.95032C1.97096 1.82721 2.17056 1.74254 2.39719 1.74193L2.39294 2.86307e-06ZM0.740341 0.64454C0.283092 1.06853 0.00204663 1.66785 4.48556e-06 2.31992L1.6587 2.32565C1.65906 2.20832 1.70871 2.07039 1.83819 1.95032L0.740341 0.64454ZM0 2.32278V23.6161H1.6587V2.32278H0ZM4.74436e-06 23.6191C0.00293087 24.5276 0.394218 25.3725 1.04702 25.9779L2.14487 24.6721C1.8198 24.3706 1.6599 23.987 1.65869 23.6132L4.74436e-06 23.6191ZM1.04702 25.9779C1.69653 26.5802 2.55699 26.9044 3.43668 26.9068L3.44105 25.1649C2.93784 25.1635 2.47322 24.9765 2.14487 24.6721L1.04702 25.9779ZM3.43527 26.9068L23.8552 27L23.8624 25.2581L3.44247 25.1649L3.43527 26.9068ZM23.9477 25.2488C23.6467 25.2488 23.3079 25.0925 23.0245 24.7189L21.7274 25.8045C22.2776 26.5297 23.0696 26.9907 23.9477 26.9907V25.2488ZM23.0245 24.7189C22.7371 24.3403 22.5541 23.7923 22.5541 23.1905H20.8954C20.8954 24.1423 21.1809 25.0845 21.7274 25.8045L23.0245 24.7189ZM22.5541 23.1905V5.615H20.8954V23.1905H22.5541ZM21.7248 6.48597H25.0592V4.74403H21.7248V6.48597ZM25.0592 6.48597C25.0654 6.48597 25.1215 6.48792 25.1965 6.58681L26.4937 5.50116C26.1519 5.0507 25.6425 4.74403 25.0592 4.74403V6.48597ZM25.1965 6.58681C25.2754 6.69074 25.3413 6.86621 25.3413 7.07963H27C27 6.51615 26.8316 5.94656 26.4937 5.50116L25.1965 6.58681ZM25.3413 7.07963V23.1905H27V7.07963H25.3413ZM25.3413 23.1905C25.3413 23.7923 25.1583 24.3403 24.871 24.7189L26.1682 25.8045C26.7146 25.0845 27 24.1423 27 23.1905H25.3413ZM24.871 24.7189C24.5875 25.0925 24.2487 25.2488 23.9477 25.2488V26.9907C24.8259 26.9907 25.6178 26.5297 26.1682 25.8045L24.871 24.7189ZM12.9813 6.40209H16.8344V4.66016H12.9813V6.40209ZM12.9813 10.3633H16.8344V8.62129H12.9813V10.3633ZM5.27519 14.3243H16.8344V12.5824H5.27519V14.3243ZM5.27519 18.2855H16.8344V16.5435H5.27519V18.2855ZM5.27519 22.2466H16.8344V20.5047H5.27519V22.2466ZM8.68367 9.32032H6.31255V11.0623H8.68367V9.32032ZM6.31255 9.32032C6.25689 9.32032 6.20381 9.29712 6.16492 9.25635L4.99314 10.4893C5.34334 10.8563 5.81797 11.0623 6.31255 11.0623V9.32032ZM6.16492 9.25635C6.12608 9.21565 6.10454 9.16078 6.10454 9.10391H4.44584C4.44584 9.62382 4.64289 10.1221 4.99314 10.4893L6.16492 9.25635ZM6.10454 9.10391V6.61849H4.44584V9.10391H6.10454ZM6.10454 6.61849C6.10454 6.56163 6.12608 6.50677 6.16492 6.46605L4.99314 5.23316C4.64289 5.60029 4.44584 6.09858 4.44584 6.61849H6.10454ZM6.16492 6.46605C6.20381 6.42529 6.25689 6.40209 6.31255 6.40209V4.66016C5.81797 4.66016 5.34334 4.86609 4.99314 5.23316L6.16492 6.46605ZM6.31255 6.40209H8.68367V4.66016H6.31255V6.40209ZM8.68367 6.40209C8.73934 6.40209 8.79242 6.42529 8.83131 6.46605L10.0031 5.23316C9.65292 4.86609 9.17825 4.66016 8.68367 4.66016V6.40209ZM8.83131 6.46605C8.87015 6.50677 8.89168 6.56164 8.89168 6.61849H10.5504C10.5504 6.09858 10.3533 5.60029 10.0031 5.23316L8.83131 6.46605ZM8.89168 6.61849V9.10391H10.5504V6.61849H8.89168ZM8.89168 9.10391C8.89168 9.16078 8.87015 9.21564 8.83131 9.25635L10.0031 10.4893C10.3533 10.1221 10.5504 9.62382 10.5504 9.10391H8.89168ZM8.83131 9.25635C8.79242 9.29712 8.73934 9.32032 8.68367 9.32032V11.0623C9.17825 11.0623 9.65292 10.8563 10.0031 10.4893L8.83131 9.25635Z" fill="black"/>
</svg>
