<svg width="27" height="27" viewBox="0 0 27 27" fill="none" xmlns="http://www.w3.org/2000/svg">
<path d="M24 0H3C1.3455 0 0 1.3455 0 3V24C0 25.6545 1.3455 27 3 27H15C15.197 27.0003 15.3921 26.9616 15.5741 26.8862C15.7562 26.8107 15.9214 26.7001 16.0605 26.5605L26.5605 16.0605C26.6838 15.9326 26.7834 15.7838 26.8545 15.621C26.8755 15.576 26.8875 15.5295 26.904 15.4815C26.9467 15.356 26.9724 15.2253 26.9805 15.093C26.9835 15.0615 27 15.0315 27 15V3C27 1.3455 25.6545 0 24 0ZM3 3H24V13.5H15C14.6022 13.5 14.2206 13.658 13.9393 13.9393C13.658 14.2206 13.5 14.6022 13.5 15V24H3V3ZM16.5 21.879V16.5H21.879L16.5 21.879Z" fill="black"/>
</svg>
