<svg width="27" height="27" viewBox="0 0 27 27" fill="none" xmlns="http://www.w3.org/2000/svg">
<path d="M24.1099 6.07385V3.12C24.1099 1.49096 22.916 0.166154 21.4479 0.166154H4.14507C1.94362 0.166154 0.152113 2.15409 0.152113 4.59692V22.32C0.152113 25.5707 2.5399 26.7508 4.14507 26.7508H24.1099C25.578 26.7508 26.7718 25.4259 26.7718 23.7969V9.02772C26.7718 7.39865 25.578 6.07385 24.1099 6.07385ZM4.14507 3.12H21.4479V6.07385H4.14507C3.80237 6.05684 3.47879 5.8938 3.2417 5.61868C3.00461 5.34357 2.87229 4.97758 2.87229 4.59692C2.87229 4.21626 3.00461 3.85027 3.2417 3.57517C3.47879 3.30005 3.80237 3.13701 4.14507 3.12ZM24.1099 23.7969H4.16104C3.54613 23.7792 2.81408 23.5089 2.81408 22.32V8.75448C3.23201 8.92138 3.67523 9.02772 4.14507 9.02772H24.1099V23.7969Z" fill="black"/>
<path d="M10.2246 18.7094C10.6016 19.37 11.1162 19.8896 11.7687 20.2681C11.7687 20.2681 12.0735 20.4561 12.2831 20.5397C12.481 20.6186 12.8051 20.6886 12.8051 20.6886C13.1586 20.7794 13.5272 20.8248 13.9109 20.8248C14.1539 20.8248 14.3846 20.8112 14.6028 20.7839C15.0287 20.7308 15.4069 20.6256 15.7377 20.4686C16.2378 20.2236 16.7163 19.8487 17.173 19.344C17.6297 18.8393 16.2487 18.0005 15.966 18.3197C15.6833 18.6389 15.3824 18.8801 15.0634 19.0434C14.7445 19.1993 14.3603 19.2773 13.9109 19.2773C13.4324 19.2773 12.9829 19.1547 12.5625 18.9098C12.142 18.6649 11.8049 18.3308 11.5512 17.9077C11.2975 17.4772 11.1706 17.0022 11.1706 16.4826C11.1706 15.9408 11.2903 15.4509 11.5295 15.0129C11.7687 14.575 12.0949 14.2336 12.5081 13.9887C12.9213 13.7363 13.3744 13.6101 13.8674 13.6101C14.3385 13.6101 14.7372 13.6917 15.0634 13.855C15.3969 14.0109 15.7159 14.241 16.0204 14.5454C16.3248 14.8497 17.5789 14.1074 17.1295 13.6323C16.68 13.1573 16.2016 12.7899 15.6941 12.5301C15.377 12.3607 15.0132 12.245 14.6028 12.183C14.5405 12.1735 14.4771 12.1654 14.4127 12.1584C14.2321 12.139 14.043 12.1292 13.8456 12.1292C13.5567 12.1292 13.2768 12.1555 13.0056 12.2078C12.9382 12.2209 12.8714 12.2355 12.8051 12.2518C12.8051 12.2518 12.6438 12.2989 12.4732 12.3565C12.3941 12.3832 12.3131 12.4122 12.2451 12.4397C12.0463 12.5202 11.7469 12.6748 11.7469 12.6748C11.109 13.0311 10.6016 13.5395 10.2246 14.2002C9.84762 14.8608 9.65916 15.6216 9.65916 16.4826C9.65916 17.2991 9.84762 18.0414 10.2246 18.7094Z" fill="black"/>
<path d="M24.1479 6.11538H23.9577V6.32308H24.1479V6.11538ZM4.1831 3.16154V2.95385H4.17878L4.17447 2.95406L4.1831 3.16154ZM21.4859 3.16154H21.6761V2.95385H21.4859V3.16154ZM21.4859 6.11538V6.32308H21.6761V6.11538H21.4859ZM4.1831 6.11538L4.17447 6.32286L4.17878 6.32308H4.1831V6.11538ZM24.1479 23.8384V24.0461H24.338V23.8384H24.1479ZM4.19907 23.8384L4.19406 24.0461H4.19907V23.8384ZM2.85211 8.79602L2.9174 8.60095L2.66197 8.49894V8.79602H2.85211ZM24.1479 9.06926H24.338V8.86157H24.1479V9.06926ZM11.8067 20.4146L11.9002 20.2337L11.8959 20.2312L11.8067 20.4146ZM10.2626 18.8559L10.1007 18.9648L10.1013 18.9657L10.2626 18.8559ZM11.7849 12.8213L11.7037 12.6335L11.6984 12.6363L11.7849 12.8213ZM15.7322 12.6765L15.6486 12.8631L15.6515 12.8646L15.7322 12.6765ZM15.1014 14.0015L15.0223 14.1903L15.0267 14.1924L15.1014 14.0015ZM12.5461 14.1351L12.6368 14.3176L12.6379 14.317L12.6389 14.3164L12.5461 14.1351ZM11.5892 18.0542L11.4294 18.1667L11.4297 18.1673L11.4302 18.168L11.5892 18.0542ZM15.1014 19.1899L15.1791 19.3794L15.1807 19.3787L15.1821 19.3779L15.1014 19.1899ZM15.7757 20.615L15.8514 20.8055L15.8524 20.805L15.8534 20.8045L15.7757 20.615ZM12.8432 20.8351L12.8867 20.633L12.8834 20.6321L12.8801 20.6314L12.8432 20.8351ZM12.5113 11.0908V10.8831C12.4062 10.8831 12.3211 10.976 12.3211 11.0908H12.5113ZM13.0437 11.0908H13.2338C13.2338 10.976 13.1487 10.8831 13.0437 10.8831V11.0908ZM14.9831 11.0908H15.1732C15.1732 10.976 15.0881 10.8831 14.9831 10.8831V11.0908ZM14.793 12.3785C14.793 12.4932 14.8781 12.5862 14.9831 12.5862C15.0881 12.5862 15.1732 12.4932 15.1732 12.3785H14.793ZM14.4507 11.0908V10.8831C14.3457 10.8831 14.2606 10.976 14.2606 11.0908H14.4507ZM12.5113 21.8908H12.3211C12.3211 22.0055 12.4062 22.0985 12.5113 22.0985V21.8908ZM12.7014 20.7692C12.7014 20.6545 12.6163 20.5615 12.5113 20.5615C12.4062 20.5615 12.3211 20.6545 12.3211 20.7692H12.7014ZM13.0437 21.8908V22.0985C13.1487 22.0985 13.2338 22.0055 13.2338 21.8908H13.0437ZM13.2338 20.8938C13.2338 20.7791 13.1487 20.6862 13.0437 20.6862C12.9386 20.6862 12.8535 20.7791 12.8535 20.8938H13.2338ZM14.9831 21.8908V22.0985C15.0881 22.0985 15.1732 22.0055 15.1732 21.8908H14.9831ZM15.1732 20.8938C15.1732 20.7791 15.0881 20.6862 14.9831 20.6862C14.8781 20.6862 14.793 20.7791 14.793 20.8938H15.1732ZM14.4507 21.8908H14.2606C14.2606 22.0055 14.3457 22.0985 14.4507 22.0985V21.8908ZM14.6408 20.9713C14.6408 20.8566 14.5557 20.7636 14.4507 20.7636C14.3457 20.7636 14.2606 20.8566 14.2606 20.9713H14.6408ZM24.338 6.11538V3.16154H23.9577V6.11538H24.338ZM24.338 3.16154C24.338 1.42088 23.0618 0 21.4859 0V0.415385C22.8462 0.415385 23.9577 1.6441 23.9577 3.16154H24.338ZM21.4859 0H4.1831V0.415385H21.4859V0ZM4.1831 0C1.87382 0 0 2.08402 0 4.63846H0.380282C0.380282 2.30724 2.08947 0.415385 4.1831 0.415385V0ZM0 4.63846V22.3616H0.380282V4.63846H0ZM0 22.3616C0 24.0498 0.623052 25.217 1.46545 25.9577C2.30115 26.6926 3.34304 27 4.1831 27V26.5846C3.41799 26.5846 2.4634 26.302 1.70391 25.6341C0.951122 24.9722 0.380282 23.924 0.380282 22.3616H0ZM4.1831 27H24.1479V26.5846H4.1831V27ZM24.1479 27C25.7238 27 27 25.5791 27 23.8384H26.6197C26.6197 25.3559 25.5082 26.5846 24.1479 26.5846V27ZM27 23.8384V9.06926H26.6197V23.8384H27ZM27 9.06926C27 7.32857 25.7238 5.90769 24.1479 5.90769V6.32308C25.5082 6.32308 26.6197 7.55179 26.6197 9.06926H27ZM4.1831 3.36923H21.4859V2.95385H4.1831V3.36923ZM21.2958 3.16154V6.11538H21.6761V3.16154H21.2958ZM21.4859 5.90769H4.1831V6.32308H21.4859V5.90769ZM4.19173 5.90791C3.89886 5.89337 3.6217 5.75403 3.41818 5.51787L3.14128 5.80258C3.41193 6.11665 3.78193 6.30338 4.17447 6.32286L4.19173 5.90791ZM3.41818 5.51787C3.21457 5.2816 3.10046 4.96665 3.10046 4.63846H2.72018C2.72018 5.07159 2.87071 5.48862 3.14128 5.80258L3.41818 5.51787ZM3.10046 4.63846C3.10046 4.31027 3.21457 3.99533 3.41818 3.75906L3.14128 3.47434C2.87071 3.78831 2.72018 4.20534 2.72018 4.63846H3.10046ZM3.41818 3.75906C3.6217 3.52289 3.89886 3.38356 4.19173 3.36902L4.17447 2.95406C3.78193 2.97355 3.41193 3.16028 3.14128 3.47434L3.41818 3.75906ZM24.1479 23.6307H4.19907V24.0461H24.1479V23.6307ZM4.20408 23.6308C3.91498 23.6225 3.62513 23.5546 3.41094 23.3746C3.2065 23.2028 3.04225 22.9045 3.04225 22.3616H2.66197C2.66197 23.0076 2.86374 23.4388 3.17906 23.7038C3.48461 23.9606 3.86824 24.0367 4.19406 24.0461L4.20408 23.6308ZM3.04225 22.3616V8.79602H2.66197V22.3616H3.04225ZM2.78683 8.99108C3.22105 9.16446 3.68655 9.27695 4.1831 9.27695V8.86157C3.73997 8.86157 3.31903 8.76129 2.9174 8.60095L2.78683 8.99108ZM4.1831 9.27695H24.1479V8.86157H4.1831V9.27695ZM23.9577 9.06926V23.8384H24.338V9.06926H23.9577ZM11.8959 20.2312C11.2719 19.8691 10.7826 19.3745 10.424 18.746L10.1013 18.9657C10.4966 19.6585 11.0366 20.203 11.7175 20.598L11.8959 20.2312ZM10.4245 18.7469C10.0668 18.113 9.88732 17.4087 9.88732 16.6291H9.50704C9.50704 17.4825 9.70456 18.2627 10.1007 18.9648L10.4245 18.7469ZM9.88732 16.6291C9.88732 15.8026 10.0678 15.0807 10.424 14.4565L10.1013 14.2368C9.7035 14.9337 9.50704 15.7334 9.50704 16.6291H9.88732ZM10.424 14.4565C10.7826 13.8281 11.2641 13.3455 11.8715 13.0062L11.6984 12.6363C11.0299 13.0097 10.4965 13.544 10.1013 14.2368L10.424 14.4565ZM15.6515 12.8646C16.1378 13.1136 16.5992 13.4671 17.0353 13.9281L17.2997 13.6295C16.8369 13.1404 16.3414 12.759 15.8129 12.4885L15.6515 12.8646ZM16.1868 14.5385C15.8686 14.2206 15.5319 13.9768 15.1763 13.8105L15.0267 14.1924C15.338 14.3379 15.6392 14.5543 15.93 14.845L16.1868 14.5385ZM15.1807 13.8127C14.8232 13.6337 14.3957 13.5488 13.9054 13.5488V13.9642C14.3574 13.9642 14.7274 14.0427 15.0223 14.1903L15.1807 13.8127ZM13.9054 13.5488C13.3813 13.5488 12.8961 13.6834 12.4533 13.9538L12.6389 14.3164C13.0226 14.082 13.4435 13.9642 13.9054 13.9642V13.5488ZM12.4554 13.9525C12.0124 14.2151 11.661 14.5828 11.4042 15.053L11.7308 15.2658C11.9523 14.8601 12.2534 14.5449 12.6368 14.3176L12.4554 13.9525ZM11.4042 15.053C11.1463 15.5252 11.0185 16.0522 11.0185 16.6291H11.3988C11.3988 16.1222 11.5102 15.6696 11.7308 15.2658L11.4042 15.053ZM11.0185 16.6291C11.0185 17.1879 11.1556 17.7021 11.4294 18.1667L11.7491 17.9418C11.5155 17.5453 11.3988 17.1094 11.3988 16.6291H11.0185ZM11.4302 18.168C11.7019 18.6211 12.0632 18.9787 12.511 19.2395L12.69 18.873C12.2969 18.644 11.984 18.3335 11.7483 17.9404L11.4302 18.168ZM12.511 19.2395C12.9592 19.5006 13.4393 19.6314 13.9489 19.6314V19.216C13.5014 19.216 13.0828 19.1019 12.69 18.873L12.511 19.2395ZM13.9489 19.6314C14.4177 19.6314 14.8298 19.5502 15.1791 19.3794L15.0238 19.0003C14.7352 19.1413 14.3789 19.216 13.9489 19.216V19.6314ZM15.1821 19.3779C15.525 19.2024 15.8443 18.9451 16.1407 18.6106L15.8673 18.3218C15.5982 18.6255 15.3158 18.8507 15.0207 19.0019L15.1821 19.3779ZM17.0758 19.3445C16.6326 19.8343 16.1731 20.1928 15.6979 20.4255L15.8534 20.8045C16.3787 20.5473 16.876 20.1562 17.3462 19.6365L17.0758 19.3445ZM15.93 14.845C16.0068 14.9218 16.1023 14.9547 16.19 14.9657C16.2783 14.9769 16.3716 14.9678 16.4614 14.9478C16.6407 14.9078 16.8337 14.8177 16.9983 14.7024C17.1595 14.5895 17.3164 14.4364 17.3974 14.2562C17.4391 14.163 17.4642 14.0545 17.4498 13.9389C17.4351 13.821 17.3819 13.7164 17.2997 13.6295L17.0353 13.9281C17.0654 13.9599 17.0715 13.9824 17.073 13.995C17.0748 14.0097 17.0733 14.0346 17.0559 14.0731C17.0186 14.1562 16.9272 14.2587 16.793 14.3527C16.6623 14.4443 16.5126 14.5125 16.3853 14.5409C16.3217 14.555 16.2706 14.5577 16.2337 14.5531C16.1963 14.5483 16.1861 14.5379 16.1868 14.5385L15.93 14.845ZM16.1407 18.6106C16.1335 18.6187 16.1361 18.6085 16.1738 18.6046C16.2104 18.6008 16.264 18.6052 16.3326 18.6228C16.4694 18.6579 16.6338 18.7374 16.7802 18.8428C16.9293 18.9502 17.0381 19.0688 17.0866 19.1693C17.1096 19.2173 17.114 19.2505 17.1124 19.2712C17.1111 19.2883 17.1049 19.3123 17.0758 19.3445L17.3462 19.6365C17.4313 19.5425 17.4819 19.4299 17.4914 19.3057C17.5006 19.1852 17.4697 19.0726 17.4231 18.9759C17.3322 18.7872 17.1637 18.6214 16.9894 18.4959C16.8123 18.3684 16.6069 18.2665 16.4197 18.2184C16.3262 18.1944 16.229 18.1816 16.1378 18.1911C16.0476 18.2004 15.9452 18.2339 15.8673 18.3218L16.1407 18.6106ZM14.6148 12.5351C15.0086 12.5946 15.3524 12.7049 15.6486 12.8631L15.8157 12.49C15.4776 12.3093 15.0939 12.1882 14.6669 12.1237L14.6148 12.5351ZM14.831 12.3294V11.0908H14.4507V12.3294H14.831ZM13.9489 20.7636C13.579 20.7636 13.2251 20.7199 12.8867 20.633L12.7996 21.0373C13.1682 21.1319 13.5514 21.179 13.9489 21.179V20.7636ZM12.653 20.8351V21.8908H13.0333V20.8351H12.653ZM15.6999 20.4245C15.3892 20.572 15.0298 20.6728 14.6192 20.724L14.6624 21.1368C15.1036 21.0816 15.5006 20.9721 15.8514 20.8055L15.6999 20.4245ZM14.6192 20.724C14.4089 20.7504 14.1855 20.7636 13.9489 20.7636V21.179C14.1984 21.179 14.4364 21.165 14.6624 21.1368L14.6192 20.724ZM14.4507 20.9304V21.8908H14.831V20.9304H14.4507ZM11.7849 12.8213C11.8662 13.009 11.8662 13.009 11.8662 13.009C11.8663 13.009 11.8663 13.009 11.8664 13.009C11.8665 13.0089 11.8667 13.0088 11.8669 13.0087C11.8675 13.0084 11.8683 13.008 11.8694 13.0074C11.8715 13.0064 11.8747 13.0047 11.8789 13.0026C11.8871 12.9983 11.8994 12.9921 11.9147 12.9843C11.9453 12.9689 11.9882 12.9474 12.0371 12.9234C12.1362 12.8751 12.256 12.8187 12.3492 12.7809L12.217 12.3914C12.1115 12.4341 11.9823 12.4953 11.8818 12.5443C11.8311 12.5691 11.7868 12.5913 11.755 12.6073C11.7391 12.6154 11.7264 12.6219 11.7176 12.6264C11.7132 12.6286 11.7098 12.6304 11.7074 12.6316C11.7062 12.6322 11.7053 12.6327 11.7047 12.633C11.7044 12.6332 11.7042 12.6333 11.704 12.6333C11.7039 12.6334 11.7038 12.6334 11.7037 12.6335C11.7037 12.6335 11.7037 12.6335 11.7849 12.8213ZM11.8067 20.4146C11.7132 20.5954 11.7132 20.5955 11.7133 20.5955H11.7134C11.7134 20.5956 11.7135 20.5956 11.7136 20.5957C11.7138 20.5958 11.714 20.596 11.7144 20.5962C11.715 20.5966 11.716 20.5972 11.7172 20.5979C11.7197 20.5995 11.7233 20.6017 11.7279 20.6044C11.7371 20.61 11.7503 20.6179 11.7668 20.6278C11.7996 20.6473 11.8456 20.6742 11.8985 20.7038C12.0021 20.7619 12.1394 20.8348 12.2559 20.8812L12.3863 20.4911C12.2932 20.454 12.1733 20.391 12.0722 20.3342C12.0226 20.3065 11.9793 20.2812 11.9485 20.2629C11.9331 20.2537 11.9208 20.2463 11.9125 20.2413C11.9084 20.2387 11.9052 20.2368 11.9031 20.2355C11.9021 20.2349 11.9013 20.2344 11.9008 20.2341C11.9005 20.234 11.9004 20.2339 11.9002 20.2338L11.9002 20.2337C11.9002 20.2337 11.9002 20.2337 11.8067 20.4146ZM12.2559 20.8812C12.3659 20.9251 12.5054 20.9646 12.6125 20.9924C12.6671 21.0065 12.7153 21.018 12.7498 21.0261C12.767 21.0301 12.781 21.0332 12.7907 21.0354C12.7956 21.0365 12.7994 21.0373 12.802 21.0379C12.8032 21.0382 12.8043 21.0385 12.805 21.0386C12.8054 21.0386 12.8057 21.0387 12.8058 21.0388C12.806 21.0388 12.8061 21.0388 12.8061 21.0388H12.8062C12.8062 21.0389 12.8062 21.0389 12.8062 21.0389C12.8062 21.0389 12.8062 21.0389 12.8432 20.8351C12.8801 20.6314 12.8801 20.6314 12.8801 20.6314C12.8801 20.6314 12.88 20.6314 12.88 20.6313C12.8798 20.6313 12.8797 20.6313 12.8794 20.6312C12.8789 20.6312 12.8781 20.6309 12.8769 20.6307C12.8747 20.6302 12.8714 20.6295 12.867 20.6285C12.8582 20.6265 12.8452 20.6236 12.8291 20.6199C12.7966 20.6123 12.7514 20.6014 12.7002 20.5881C12.5958 20.5611 12.4743 20.5261 12.3863 20.4911L12.2559 20.8812ZM13.0333 12.3982V11.7445H12.653V12.3982H13.0333ZM13.0333 11.7445V11.0908H12.653V11.7445H13.0333ZM12.8432 10.8831H12.5113V11.2985H12.8432V10.8831ZM12.3492 12.7809C12.4124 12.7553 12.4897 12.7276 12.5674 12.7014L12.4551 12.3045C12.3746 12.3318 12.2897 12.362 12.217 12.3914L12.3492 12.7809ZM12.5674 12.7014C12.6508 12.6733 12.7321 12.6476 12.7928 12.6289C12.8231 12.6196 12.8481 12.612 12.8655 12.6068C12.8742 12.6042 12.881 12.6022 12.8855 12.6009C12.8878 12.6001 12.8896 12.5996 12.8907 12.5993C12.8913 12.5991 12.8917 12.599 12.892 12.5989C12.8921 12.5989 12.8922 12.5989 12.8922 12.5989C12.8922 12.5989 12.8923 12.5989 12.8432 12.3982C12.794 12.1976 12.794 12.1976 12.794 12.1976H12.7938C12.7937 12.1977 12.7936 12.1977 12.7934 12.1978C12.7931 12.1979 12.7925 12.198 12.7919 12.1982C12.7905 12.1986 12.7886 12.1992 12.7862 12.1998C12.7813 12.2013 12.7741 12.2034 12.7651 12.2062C12.7469 12.2116 12.7209 12.2195 12.6895 12.2291C12.627 12.2484 12.5425 12.275 12.4551 12.3045L12.5674 12.7014ZM12.3211 11.0908V12.503H12.7014V11.0908H12.3211ZM12.8432 11.2985H13.0437V10.8831H12.8432V11.2985ZM12.8848 12.6009C12.9482 12.5853 13.0123 12.5713 13.0767 12.5588L13.0106 12.1498C12.9403 12.1634 12.8706 12.1786 12.8015 12.1955L12.8848 12.6009ZM13.0767 12.5588C13.3364 12.5086 13.6053 12.4834 13.8836 12.4834V12.068C13.5842 12.068 13.2931 12.0952 13.0106 12.1498L13.0767 12.5588ZM12.8535 11.0908V12.3543H13.2338V11.0908H12.8535ZM14.6408 11.2985H14.9831V10.8831H14.6408V11.2985ZM14.793 11.0908V12.3785H15.1732V11.0908H14.793ZM14.6408 10.8831H14.4507V11.2985H14.6408V10.8831ZM13.8836 12.4834C14.0754 12.4834 14.2582 12.4929 14.4321 12.5116L14.4693 12.0982C14.282 12.0781 14.0868 12.068 13.8836 12.068V12.4834ZM14.4321 12.5116C14.4941 12.5183 14.5551 12.5261 14.6148 12.5351L14.6669 12.1237C14.6021 12.1139 14.5362 12.1054 14.4693 12.0982L14.4321 12.5116ZM14.2606 11.0908V12.3049H14.6408V11.0908H14.2606ZM12.8432 21.6831H12.5113V22.0985H12.8432V21.6831ZM12.7014 21.8908V20.7692H12.3211V21.8908H12.7014ZM12.8432 22.0985H13.0437V21.6831H12.8432V22.0985ZM13.2338 21.8908V20.8938H12.8535V21.8908H13.2338ZM14.6408 22.0985H14.9831V21.6831H14.6408V22.0985ZM15.1732 21.8908V20.8938H14.793V21.8908H15.1732ZM14.6408 21.6831H14.4507V22.0985H14.6408V21.6831ZM14.6408 21.8908V20.9713H14.2606V21.8908H14.6408Z" fill="black"/>
</svg>
