<svg width="27" height="27" viewBox="0 0 27 27" fill="none" xmlns="http://www.w3.org/2000/svg">
<path d="M23.9131 13.5C23.9131 13.1895 23.8993 12.8925 23.8715 12.582L26.4539 10.6785C27.0094 10.2735 27.162 9.5175 26.8149 8.9235L24.2186 4.563C23.8715 3.969 23.1217 3.726 22.4831 3.996L19.498 5.2245C18.9843 4.8735 18.4428 4.563 17.8735 4.3065L17.4709 1.188C17.3875 0.513 16.7906 0 16.0964 0H10.9176C10.2094 0 9.61247 0.513 9.52914 1.188L9.12647 4.3065C8.55722 4.563 8.01574 4.8735 7.50204 5.2245L4.51694 3.996C3.87827 3.726 3.12852 3.969 2.78141 4.563L0.185073 8.937C-0.162031 9.531 -0.00930523 10.2735 0.546063 10.692L3.12852 12.5955C3.10075 12.8925 3.08686 13.1895 3.08686 13.5C3.08686 13.8105 3.10075 14.1075 3.12852 14.418L0.546063 16.3215C-0.00930523 16.7265 -0.162031 17.4825 0.185073 18.0765L2.78141 22.437C3.12852 23.031 3.87827 23.274 4.51694 23.004L7.50204 21.7755C8.01574 22.1265 8.55722 22.437 9.12647 22.6935L9.52914 25.812C9.61247 26.487 10.2094 27 10.9037 27H16.0824C16.7767 27 17.3737 26.487 17.457 25.812L17.8596 22.6935C18.4289 22.437 18.9704 22.1265 19.4841 21.7755L22.4692 23.004C23.1079 23.274 23.8576 23.031 24.2047 22.437L26.8011 18.0765C27.1482 17.4825 26.9954 16.74 26.4401 16.3215L23.8576 14.418C23.8993 14.1075 23.9131 13.8105 23.9131 13.5ZM13.5556 18.225C10.8759 18.225 8.69611 16.1055 8.69611 13.5C8.69611 10.8945 10.8759 8.775 13.5556 8.775C16.2352 8.775 18.415 10.8945 18.415 13.5C18.415 16.1055 16.2352 18.225 13.5556 18.225Z" fill="black"/>
</svg>
