<svg width="24" height="27" viewBox="0 0 24 27" fill="none" xmlns="http://www.w3.org/2000/svg">
<path d="M3.44667 3H13.7867C14.7345 3 15.51 2.325 15.51 1.5C15.51 0.675 14.7345 0 13.7867 0H3.44667C1.551 0 0 1.35 0 3V24C0 25.65 1.551 27 3.44667 27H13.7867C14.7345 27 15.51 26.325 15.51 25.5C15.51 24.675 14.7345 24 13.7867 24H3.44667V3Z" fill="black"/>
<path d="M23.7883 12.975L19.6191 8.78995C19.1409 8.30995 18.334 8.63995 18.334 9.31495V12H7.87372C7.05184 12 6.37939 12.675 6.37939 13.5C6.37939 14.325 7.05184 15 7.87372 15H18.334V17.685C18.334 18.36 19.1409 18.69 19.6042 18.21L23.7733 14.025C24.0722 13.74 24.0722 13.26 23.7883 12.975Z" fill="black"/>
</svg>
