<svg width="27" height="30" viewBox="0 0 27 30" fill="none" xmlns="http://www.w3.org/2000/svg">
<path d="M13.5 0L0 7.5V22.5L13.5 30L27 22.5V7.5L13.5 0ZM13.5 1.7625L25.4117 8.38125V21.6187L13.5 28.2375L1.58831 21.6187V8.38125L13.5 1.7625ZM5.58052 10.4175C3.88442 10.4175 3.00519 11.6125 2.23766 13.43V21.2575L13.5 27.5175L24.7623 21.2575V13.7937C24.1818 13.4637 23.6013 13.2788 23.0273 13.2788C17.4753 13.2788 17.8714 19.385 14.3039 20.5288C10.7351 21.675 9.74416 10.4175 5.58052 10.4175ZM21.6377 10.9888C17.8714 10.9888 18.8623 16.9037 14.7 16.9037C12.5831 16.9037 11.4273 15.2575 10.1844 14.4275C10.3766 14.835 10.574 15.2463 10.7584 15.6525C11.3649 16.9875 11.9558 18.265 12.5494 19.07C12.8455 19.4725 13.1403 19.7463 13.3857 19.875C13.4905 19.94 13.6101 19.9796 13.7342 19.9905C13.8584 20.0014 13.9834 19.9832 14.0987 19.9375C14.8234 19.7038 15.3558 19.2238 15.8649 18.5475C16.3714 17.8713 16.826 17.0125 17.3636 16.1525C17.9 15.2925 18.5247 14.4212 19.4286 13.755C20.3312 13.0875 21.5156 12.6538 23.026 12.6538C23.6299 12.6538 24.2052 12.8238 24.7623 13.0938V12.9425C23.9403 11.8813 23.0117 10.9888 21.6377 10.9888ZM12.9623 11.1788C11.8351 11.1788 11.026 12.2038 10.2662 13.7537C10.3883 13.8225 10.5156 13.8863 10.626 13.9625C12.0026 14.9137 12.961 16.2787 14.7 16.2787C15.5805 16.2787 16.0857 16.0063 16.5416 15.5475C15.6039 13.615 14.6818 11.1825 12.9623 11.1788Z" fill="black"/>
</svg>
